<?xml version="1.0" encoding="utf-8"?>
<!-- Generator: Adobe Illustrator 24.0.0, SVG Export Plug-In . SVG Version: 6.00 Build 0)  -->
<svg version="1.1" id="Layer_1" xmlns="http://www.w3.org/2000/svg" xmlns:xlink="http://www.w3.org/1999/xlink" x="0px" y="0px"
	 viewBox="0 0 360 360" style="enable-background:new 0 0 360 360;" xml:space="preserve">
<path id="arrow-ios-downward-outline" d="M179.1,269.4c-6,0-11.7-2.1-16.3-5.9L9.7,136c-11-8.8-12.8-24.9-3.9-35.9
	c8.8-11,24.9-12.8,35.9-3.9c0.2,0.2,0.5,0.4,0.7,0.6L179.1,211l136.7-110.2c10.6-9.8,27.2-9.2,37.1,1.4c9.8,10.6,9.2,27.2-1.4,37.1
	c-1,0.9-2.1,1.8-3.3,2.6L195.1,265C190.4,268.2,184.8,269.8,179.1,269.4z"/>
</svg>
