<?xml version="1.0" encoding="utf-8"?>
<!-- Generator: Adobe Illustrator 24.0.0, SVG Export Plug-In . SVG Version: 6.00 Build 0)  -->
<svg version="1.1" id="Layer_1" xmlns="http://www.w3.org/2000/svg" xmlns:xlink="http://www.w3.org/1999/xlink" x="0px" y="0px"
	 viewBox="0 0 360 360" style="enable-background:new 0 0 360 360;" xml:space="preserve">
<style type="text/css">
	.st0{fill:none;}
	.st1{fill:#FFFFFF;}
</style>
<g id="Group_346" transform="translate(-2703 -522)">
	<rect id="Rectangle_199" x="2703.1" y="522.4" class="st0" width="359.6" height="359.6"/>
	<path id="edit-line" class="st1" d="M3037.7,591.4l-62.3-62.6c-8.6-8.5-22.4-8.5-31,0l-220.8,220.5l-20.2,87
		c-2.6,11.8,4.9,23.4,16.7,26c1.5,0.3,3,0.5,4.5,0.5c1.5,0.2,3,0.2,4.6,0l87.9-20.2l220.5-220.2
		C3046.3,613.9,3046.3,600,3037.7,591.4C3037.8,591.4,3037.7,591.4,3037.7,591.4z M2806.7,823.5l-82.4,17.3L2743,760l165.2-164.5
		l63.6,63.6L2806.7,823.5z M2986.1,643.7l-63.7-63.7l36.9-36.7l62.6,63.6L2986.1,643.7z"/>
</g>
</svg>
