<?xml version="1.0" encoding="utf-8"?>
<!-- Generator: Adobe Illustrator 24.0.0, SVG Export Plug-In . SVG Version: 6.00 Build 0)  -->
<svg version="1.1" id="Layer_1" xmlns="http://www.w3.org/2000/svg" xmlns:xlink="http://www.w3.org/1999/xlink" x="0px" y="0px"
	 viewBox="0 0 504 504" style="enable-background:new 0 0 504 504;" xml:space="preserve">
<style type="text/css">
	.st0{fill:#005EAA;}
	.st1{fill:#55607F;}
	.st2{fill:#B7B7B7;}
</style>
<g>
	<path class="st0" d="M231.2,0.4c1,0,2,0,3,0c0.5,0.6,1.3,0.5,2,0.5c0.7,0,1.4,0.1,2-0.5c5.6,0,11.1,0,16.7,0c2.3,0.8,4.6,0.8,6.9,0
		c1.3,0,2.6,0,3.9,0c0.5,0.6,1.3,0.5,2,0.5c0.7,0,1.4,0.1,2-0.5c1,0,2,0,3,0c6.9,1.1,13.9,1.2,20.9,1.7c18.8,1.4,36.4,7.4,53.7,14.4
		c31,12.5,58.3,30.7,82.4,54.2c33.1,32.3,55.3,70.7,67.9,115c4.1,14.5,6,29.4,6.4,44.5c0.5,17.1,0.1,34.2-0.5,51.4
		c-0.7,20.5-6,39.8-12.9,58.7c-10.8,29.5-26.5,56.3-47.5,79.7c-8.1,9-16.5,17.8-26,25.4c-0.8,0.6-1.5,1.3-2.5,1.4
		c-2.7,0-5.1-0.9-7.2-2.6c-2.7-2.2-5.8-3.7-8.9-5.2c-25.8-12.9-51.6-25.9-77.4-38.7c-14.2-7-20.8-18.4-21.1-33.8
		c-0.2-8-0.1-16.1,0-24.1c0-3,0.5-5.8,2.5-8.3c12.8-15.8,22.1-33.6,29-52.7c1.3-3.6,3.2-6.2,6.7-7.9c8.7-4.3,12.5-11.8,12.8-21.1
		c0.3-10.5,0.2-21,0-31.5c-0.1-5.7-1.7-11.1-5.4-15.5c-2.7-3.1-3.4-6.5-3.3-10.4c0-16.1-0.3-32.1,0.1-48.2
		c0.7-26.8-15.8-49.5-40-59.2c-12.3-5-25.2-6.8-38.3-8.1c-17.2-1.7-34.1,0.2-50.6,4.3c-16.7,4.2-30.9,12.7-40.9,27.1
		c-6.8,9.8-10.3,20.8-10.3,32.8c-0.1,17,0,34.1,0,51.1c0,4.1-0.7,7.6-3.5,10.9c-4,4.7-5.3,10.5-5.4,16.5c-0.1,9.7-0.1,19.3,0,29
		c0.1,8.1,2.5,15.2,9.2,20.3c2.1,1.6,2.9,3.9,3.6,6.3c5.3,20.1,14.2,38.4,26.5,55c2,2.7,3,5.7,3,9.1c0,8.4,0,16.7,0,25.1
		c0.1,14.2-6.4,24.6-18.5,31.3c-23.2,12.9-46.5,25.6-69.9,38.1c-3.9,2.1-7.7,4.3-11.3,6.9c-2.1,1.5-4.2,2.5-6.8,2.4
		c-3.2-0.8-5.3-3.1-7.6-5.2c-25.5-23.6-46.1-50.9-60.6-82.6c-8.1-17.7-14.2-35.9-17.8-55c-1.7-8.7-1.6-17.7-2.2-26.6
		c-0.1-0.8,0.1-1.6-0.5-2.3c0-1.3,0-2.6,0-3.9c0.7-0.6,0.4-1.4,0.5-2.2c-0.1-0.9,0.3-1.9-0.5-2.7c0-8.5,0-17.1,0-25.6
		c0.6-0.5,0.5-1.3,0.5-2c0-0.7,0.1-1.4-0.5-2c0-1.3,0-2.6,0-3.9c1.1-6.9,1.1-13.9,1.7-20.9c1.5-19,7.5-36.7,14.5-54.1
		c12.5-30.9,30.5-58.1,53.9-81.9c19.9-20.2,42.1-36.8,67.3-49.7c20.1-10.2,41.2-17.8,63.4-21.9c8.9-1.7,18-1.6,27-2.3
		C229,0.8,230.2,1.2,231.2,0.4z"/>
	<path class="st1" d="M261.7,0.4c-2.3,1.4-4.6,1.3-6.9,0C257.1,0.4,259.4,0.4,261.7,0.4z"/>
	<path class="st1" d="M0,265c1,0.8,1,1.9,0.8,3c-0.3,0.7-0.6,0.7-0.8,0C0,267,0,266,0,265z"/>
	<path class="st1" d="M236.1,1.2c-0.8,0.1-1.6,0.2-1.9-0.8c0.7,0,1.3,0,2,0C236.8,0.7,236.8,1,236.1,1.2z"/>
	<path class="st1" d="M236.1,1.2c0-0.3,0-0.5,0.1-0.8c0.7,0,1.3,0,2,0C237.6,1.2,236.9,1.3,236.1,1.2z"/>
	<path class="st1" d="M267.6,1.2c-0.8,0.1-1.6,0-2-0.8c0.7,0,1.3,0,2,0C268.3,0.6,268.3,0.9,267.6,1.2z"/>
	<path class="st1" d="M267.6,1.2c0-0.3,0-0.5,0-0.8c0.7,0,1.3,0,2,0C269.2,1.4,268.4,1.3,267.6,1.2z"/>
	<path class="st1" d="M0,235.5c0.9,0.4,0.9,1.1,0.8,1.9c-0.2,0.7-0.5,0.7-0.8,0C0,236.8,0,236.2,0,235.5z"/>
	<path class="st1" d="M0,237.5c0.3,0,0.5-0.1,0.8,0c0.1,0.8-0.2,1.5-0.8,2C0,238.8,0,238.1,0,237.5z"/>
	<path class="st1" d="M0,268c0.3,0,0.6,0,0.8,0c0.1,0.8,0.1,1.6-0.8,1.9C0,269.3,0,268.6,0,268z"/>
	<path class="st2" d="M414.1,445C321,524,182.1,523.6,88.6,444c0.8,0.1,1.6,0.3,2.3-0.2c20.4-14.5,43.3-24.5,64.8-36.9
		c6.5-3.8,13.2-7.3,19.8-10.9c11.6-6.3,17.3-16,17.3-29.2c0-8.7,0.7-17.4-0.2-26c-0.9-8.9-8.7-14.6-12.7-22.2
		c-6.9-13.1-13.1-26.4-16.7-40.8c-0.5-2.2-1.6-3.7-3.3-5.2c-5.9-4.8-9-11.3-9.2-18.8c-0.2-11.5-0.2-22.9,0-34.4
		c0.1-5.9,2-11.3,6-15.7c1.9-2.1,2.6-4.2,2.6-7c-0.2-16.4-0.5-32.8-0.3-49.2c0.3-28.7,13.2-50.3,39.8-61.1
		c35.8-14.5,72.5-14.4,108.1,0.9c25.4,10.8,38.9,35.3,37.8,62.9c-0.6,16-0.2,32.1-0.3,48.2c0,2,0.8,3.4,2.1,4.7
		c4.6,5.1,6.5,11.2,6.5,18c0,10.3,0.1,20.7,0,31c-0.1,11.2-5,19.5-15.3,24.2c-2.2,1-3.2,2.5-3.9,4.6c-6.7,19.9-16.4,38.2-29.6,54.5
		c-1.3,1.6-1.9,3.3-1.9,5.4c0.1,9.3-0.1,18.7,0.1,28c0.3,13.2,6.6,22.6,18.4,28.5c24.6,12.3,49.2,24.6,73.8,36.9
		c5.6,2.8,11.1,5.6,16,9.6C411.7,444.6,412.7,445.5,414.1,445z"/>
</g>
</svg>
