<?xml version="1.0" encoding="utf-8"?>
<!-- Generator: Adobe Illustrator 24.0.0, SVG Export Plug-In . SVG Version: 6.00 Build 0)  -->
<svg version="1.1" id="Layer_1" xmlns="http://www.w3.org/2000/svg" xmlns:xlink="http://www.w3.org/1999/xlink" x="0px" y="0px"
	 viewBox="0 0 504 504" style="enable-background:new 0 0 504 504;" xml:space="preserve">
<style type="text/css">
	.st0{fill:#005EAA;}
</style>
<path class="st0" d="M502.9,225.7c-2.4-29-10.8-56.5-23.5-82.7c-15.4-31.8-36.5-59.2-63.3-82.3c-20-17.3-42.1-31.2-66.4-41.3
	C323.8,8.6,297.1,1.5,268.8,0.7c-17.2-0.5-34.4-1.3-51.4,1.2C152.7,11.2,99,41.2,57,91.3c-29.3,35-47.6,75.4-55,120.5
	c-1.1,6.6-0.7,13.3-1.9,19.9c0,1.3,0,2.6,0,3.9c1.2,0.2,0.9,1.1,0.9,1.9c0,1,0,2,0,2.9c0,0,0,0,0,0c0,0,0,0,0,0
	c0.2,0.9,0.1,1.6-0.8,2c0,6.6,0,13.1,0,19.7c0.9,0.4,1,1.2,0.8,2c0,1,0,2,0,2.9c0,0,0,0,0,0c0.1,0.8,0.4,1.7-0.9,1.9
	c0,1.3,0,2.6,0,3.9c1.1,9.2,1.4,18.5,3.3,27.6c12.1,58.7,41,107.6,86.9,146.1c35.4,29.6,76.2,48.1,121.8,55.5
	c6.3,1,12.7,0.6,18.9,1.8c1.6,0,3.3,0,4.9,0c0.3-1.1,1.1-0.9,1.9-0.8l0,0c0,0,0,0,0,0c0.9-0.2,1.6-0.1,2,0.8c1.3,0,2.6,0,3.9,0
	c2-1.5,3.9-1.5,5.9,0c1.3,0,2.6,0,3.9,0c1.6-1.4,3.3-1.5,4.9,0c1.6,0,3.3,0,4.9,0c0.4-1,1.2-1,2-0.8c0,0,0,0,0,0
	c0.8-0.1,1.6-0.3,1.9,0.8c1,0,2,0,2.9,0c5.8-1,11.7-0.6,17.5-1.4c31.5-4.4,61-14.7,88.6-30.5c42.6-24.4,75.2-58.4,98.6-101.4
	C499.5,325.2,507.1,276.5,502.9,225.7z M236.8,32.4c0,12.9,0,24.8,0,36.7c0,10.8,0,21.6,0,32.4c0,1.7,0.6,3.5-2.5,3.5
	c-19.4-0.1-38.9-0.1-59.3-0.1C189.2,75,204.2,46.9,236.8,32.4z M175.2,43.8c0.9,1.2-0.1,1.8-0.4,2.3c-12.5,16.8-22,35.1-29.4,54.6
	c-1.2,3.3-2.8,4.4-6.3,4.3c-16-0.2-32.1-0.1-48.1-0.1c-1.4,0-2.8,0-5.3,0C111.1,76.8,140.6,56.7,175.2,43.8z M30.3,233.6
	c2.9-34.8,13.6-67,31.7-96.8c0.9-1.5,1.8-2.4,3.8-2.4c22.6,0.1,45.1,0.1,67.9,0.1c-2.3,10.6-4.8,20.9-6.8,31.3
	c-4.4,22.3-6.7,44.9-7.5,67.7c-0.1,3.3-0.9,4.3-4.4,4.3c-27-0.2-54-0.1-81,0C30.6,237.7,30,236.8,30.3,233.6z M65.8,370.3
	c-2,0-2.9-0.9-3.8-2.4c-16.2-26.7-26.5-55.6-30.6-86.6c-0.6-4.6-3.2-10.7-0.4-13.5c2.3-2.3,8.7-0.7,13.2-0.8
	c23.4,0,46.8,0.1,70.2-0.1c3.9,0,4.8,1.1,4.9,4.8c1.3,32.6,5.6,64.8,14.1,96.3c0.2,0.6,0.1,1.3,0.1,2.2
	C110.9,370.2,88.4,370.2,65.8,370.3z M86.4,400.6c1.1-1.6,2.5-0.9,3.7-0.9c16.5-0.1,33.1,0,49.6,0c1.9,0,3.8-0.6,4.8,2.1
	c7.9,20.8,18,40.5,31.2,58.7C140.7,448.1,111.2,427.9,86.4,400.6z M236.8,472.2c-32.6-14.2-47.4-42.5-61.8-72.5c7.5,0,14,0,20.5,0
	c12.6,0,25.2,0,37.8,0c2,0,3.7-0.3,3.6,2.8C236.7,425.4,236.8,448.3,236.8,472.2z M232.9,370.3c-21.4-0.1-42.9-0.1-64.3,0
	c-2.8,0-4.2-0.6-5-3.6c-9-31.6-13.4-63.9-14.9-96.6c-0.1-2.5,0.6-3,2.9-3c27.5,0.1,55,0.1,82.4,0c3.1,0,2.8,1.6,2.8,3.6
	c0,16,0,32.1,0,48.1c0,15.9-0.1,31.7,0.1,47.6C236.9,369.5,236.1,370.3,232.9,370.3z M236.8,186.4c0,15.7-0.1,31.4,0.1,47.1
	c0,2.9-0.3,4.2-3.8,4.2c-26.8-0.2-53.6-0.1-80.5-0.1c-2.5,0-4.1,0.2-4-3.5c1.6-32.1,5.9-63.7,14.5-94.7c1.1-4.1,2.9-5.1,6.9-5.1
	c20.9,0.2,41.9,0.2,62.8,0c3.1,0,4.1,0.7,4.1,4C236.7,154.3,236.8,170.3,236.8,186.4z M417.5,104.9c-8.9,0-16.7,0-24.4,0
	c-10,0-20,0-30,0c-2,0-3.6,0.1-4.6-2.4c-7.9-20.7-17.9-40.3-30.9-58.3C362.5,56.6,392,76.8,417.5,104.9z M266.3,32.4
	c32.6,14.5,47.6,42.6,61.7,72.6c-20.4,0-39.8,0-59.2,0c-1.9,0-2.5-0.6-2.5-2.5C266.3,79.4,266.3,56.4,266.3,32.4z M266.3,185.8
	c0-15.9,0.1-31.7-0.1-47.6c0-2.9,0.5-3.9,3.7-3.9c21.8,0.2,43.5,0.1,65.3,0c2.6,0,3.5,0.8,4.2,3.3c9.2,31.7,13.5,64.2,15.1,97.1
	c0.2,3.8-2.2,2.8-4.1,2.8c-21.8,0-43.5,0-65.3,0c-5.1,0-10.2-0.2-15.2,0.1c-3.1,0.2-3.8-0.8-3.7-3.8
	C266.4,217.8,266.3,201.8,266.3,185.8z M266.2,365.7c0.2-15.7,0.1-31.4,0.1-47.1c0-15.9,0.1-31.7-0.1-47.6c0-3.1,0.7-4.1,4-4
	c26.8,0.1,53.6,0.1,80.5,0.1c2.1,0,4-0.5,3.8,3.1c-1.6,32.6-5.9,64.7-14.8,96.2c-0.8,3-1.9,4.1-5.2,4.1c-21.3-0.2-42.5-0.2-63.8,0
	C266.8,370.4,266.2,369.2,266.2,365.7z M266.3,472.3c0-13.9,0-26.8,0-39.7c0-9.8,0-19.6,0-29.5c0-1.7-0.5-3.5,2.5-3.5
	c19.4,0.1,38.9,0.1,59.2,0.1C313.9,429.7,298.9,457.8,266.3,472.3z M327.5,460.5c9.6-13.6,17.9-27.8,24.6-42.9
	c2.2-5.1,4.4-10.2,6.4-15.3c0.7-1.7,1.4-2.6,3.4-2.6c18.1,0.1,36.2,0,55.6,0C391.9,427.9,362.4,448.1,327.5,460.5z M472.8,271
	c-3,34.8-13.7,67-31.7,96.9c-1,1.7-2.2,2.4-4.3,2.4c-21.4-0.1-42.9-0.1-64.3,0c-2.3,0-3.6-0.1-2.8-3.1c8.6-31.5,12.7-63.7,14-96.3
	c0.1-3.4,1.4-3.9,4.3-3.8c13.4,0.1,26.8,0.1,40.3,0.1c13.6,0,27.2,0.1,40.7-0.1C472.3,266.9,473.1,267.8,472.8,271z M468.7,237.7
	c-26.8-0.1-53.7-0.1-80.5,0c-3.3,0-4.3-0.8-4.5-4.2c-1.3-32.9-5.6-65.4-14.2-97.3c-0.1-0.5,0-1,0-1.8c4.1,0,8.2,0,12.2,0
	c18,0,36,0,54,0c2.1,0,3.9-0.2,5.4,2.2c17.9,29.9,28.7,62.1,31.7,96.9C473.1,237.1,472.1,237.7,468.7,237.7z"/>
</svg>
