<?xml version="1.0" encoding="utf-8"?>
<!-- Generator: Adobe Illustrator 24.0.0, SVG Export Plug-In . SVG Version: 6.00 Build 0)  -->
<svg version="1.1" id="Layer_1" xmlns="http://www.w3.org/2000/svg" xmlns:xlink="http://www.w3.org/1999/xlink" x="0px" y="0px"
	 viewBox="0 0 504 504" style="enable-background:new 0 0 504 504;" xml:space="preserve">
<style type="text/css">
	.st0{fill:#4F4F4F;}
</style>
<g>
	<path class="st0" d="M243.6,428.2c0-3.6-1.4-6.9-5-7.8c-3.6-0.9-3.4-3-3.4-5.7c0.1-24.5,0.2-49,0-73.5c-0.3-29.1-13-51.4-37.9-66.4
		c-23.9-14.4-48.1-28.4-72.3-42.4c-2.1-1.2-3.4-2.6-4.2-4.9c-12-34.8-24-69.5-36-104.3c-5.6-16.4-21.2-26.3-38-23.9
		c-16.1,2.3-27.9,16.7-27.9,34.2c0,2.3-0.6,3.7-2.5,5.2c-12.6,9.4-17,22.4-12.8,38c11.5,43.1,23.3,86.2,34.6,129.5
		c3.1,12,9.2,21.5,18.5,29.6c17.3,14.8,34,30.2,51.1,45.2c5.5,4.8,9.2,10.6,9.6,18c0.4,5.9,0.1,11.9,0.2,17.8c0,1.4,0.1,2.5-1.9,3
		c-5.3,1.4-6.6,5.4-6.6,10.5c0.1,20.8,0,41.6,0.1,62.5c0,7.9,2.9,10.7,10.7,10.8c18.7,0,37.4,0,56.2,0c19.2,0,38.5,0,57.7,0
		c6.3,0,9.7-3.1,9.7-9.1C243.6,472.3,243.6,450.2,243.6,428.2z M35.9,128.8c1.6-7.6,8.6-13.2,16.2-13.1c7.3,0.2,13.8,4.7,16.3,11.9
		c11.2,32.1,22.3,64.3,33.5,96.4c0.8,2.3,0.8,3.2-1.9,3.9c-8.4,2.2-8.3,2.3-11-6.1C82,200.4,75.1,179,68.1,157.6
		c-4.7-14.3-14.5-22.8-29.4-24.8C35.5,132.4,35.4,131.3,35.9,128.8z M118.8,368.2c-17.8-15.8-35.5-31.7-53.4-47.4
		c-5.2-4.6-8.5-9.9-10.2-16.6c-11.7-43.8-23.5-87.6-35.3-131.4c-2.9-11,1.4-20,10.8-22.8c8.9-2.7,18.4,3.2,21.6,13.4
		c8.1,25.1,16.2,50.1,24.3,75.2c0.9,2.8,1.1,5.1-0.3,7.9C69,262.1,74.2,280,89,289c15.8,9.6,32,18.6,48,27.8c5,2.9,9.8,1.6,12.2-2.8
		c2.4-4.4,1-8.9-4.1-11.9c-15.4-9-30.8-17.8-46.2-26.7c-6.6-3.8-9.7-9.5-8.7-17.1c0.9-6.9,4.8-11.5,11.3-13.7
		c4.7-1.6,9.3-1.1,13.6,1.4c25.4,14.9,51.2,29.4,76.2,45c17.8,11,26.4,28,26.9,48.8c0.3,12.1,0.1,24.1,0.1,36.2
		c0,13.1-0.1,26.3,0.1,39.4c0.1,3.3-0.8,4-4,4c-25.4-0.1-50.7-0.1-76.1,0c-3.3,0-4.1-0.8-4-4c0.1-6.8,0.6-13.7-0.4-20.4
		C132.3,384.1,127,375.4,118.8,368.2z M222.8,486.7c-15.6-0.2-31.2-0.1-46.7-0.1c-15.4,0-30.8-0.1-46.2,0.1c-3.3,0-4.1-0.8-4-4
		c0.2-14.2,0.2-28.4,0-42.5c0-3.3,0.8-4,4-4c31,0.1,62,0.1,92.9,0c3.3,0,4.1,0.8,4,4c-0.2,14.2-0.2,28.4,0,42.5
		C226.9,485.9,226,486.7,222.8,486.7z"/>
	<path class="st0" d="M487.8,138.7c-2.1-1.5-2.7-3.1-2.7-5.6c0-17.1-11.7-31.4-27.7-33.9c-16.5-2.6-32.1,7-37.7,23.2
		c-12.1,34.8-24.2,69.5-36.2,104.3c-1,2.9-2.6,4.6-5.1,6.1c-23.4,13.6-46.8,27.2-70.1,41c-26.3,15.5-39.5,38.6-39.5,69.2
		c0,24,0,47.9,0,71.9c0,1.8,1.2,4-2.1,4.9c-4.7,1.2-6.3,4.9-6.2,9.7c0.1,21,0,42,0,63c0,8.2,2.8,10.9,11.1,10.9
		c18.7,0,37.4,0,56.2,0c19.1,0,38.1,0,57.2,0c6.4,0,9.9-3,9.9-8.9c0.1-22,0-44.1,0.1-66.1c0-3.2-1-6.7-3.9-7.4
		c-5.3-1.2-4.5-4.7-4.5-8.2c0-2.3,0.2-4.6,0-6.8c-1-11.4,3.6-20,12.3-27.4c17.5-15,34.6-30.6,51.9-45.9c7-6.2,11.8-13.7,14.2-22.8
		c11.9-44.7,24-89.3,35.8-134C504.6,160.9,500,147.7,487.8,138.7z M403.7,219.5c10.5-30.3,21-60.5,31.5-90.8
		c2.9-8.2,9.1-13,17.1-12.9c7.5,0,14.6,6.1,15.8,13.5c0.4,2.4-0.2,3.2-2.8,3.5c-15.2,2-24.9,10.6-29.6,25.2
		c-7.3,22.9-14.8,45.7-22.1,68.6c-1,3.2-2.1,3.8-5.3,2.6C401.3,226.5,401.2,226.7,403.7,219.5z M378.1,482.9c0,3-0.8,3.8-3.8,3.7
		c-31.2-0.1-62.3-0.1-93.5,0c-3,0-3.8-0.8-3.8-3.7c0.2-14.3,0.2-28.7,0-43.1c0-3,0.8-3.8,3.8-3.8c15.6,0.1,31.2,0.1,46.7,0.1
		c15.4,0,30.8,0.1,46.2-0.1c3.4,0,4.3,0.9,4.3,4.3C377.9,454.6,377.9,468.7,378.1,482.9z M484.1,172.2
		c-11.8,44.2-23.7,88.3-35.5,132.5c-1.7,6.3-4.8,11.5-9.7,15.8c-17.7,15.6-35.2,31.5-53,47c-11,9.6-16.6,21.3-16.3,35.9
		c0.1,4.4-0.1,8.8,0.1,13.1c0.1,2.3-0.6,3-2.9,3c-26.1-0.1-52.1-0.1-78.2,0c-2.9,0-3-1.3-3-3.5c0.1-13.3,0-26.6,0-42.7
		c0.7-12.2-1.3-27.3,0.9-42.3c2.7-17.6,11.7-31.4,26.9-40.6c24.8-15,49.9-29.5,75-44c8.6-5,18.6-2.5,23.3,5.6
		c4.9,8.3,2.4,18.2-6.6,23.5c-15.2,9-30.5,17.6-45.8,26.5c-5.5,3.2-7.1,7.6-4.6,12.1c2.3,4.1,6.9,5.8,11.3,3.3
		c17-9.7,34.1-19.1,50.7-29.5c13.3-8.4,17.9-26,11.4-40.4c-1.6-3.5-1.6-6.4-0.4-9.9c8.1-24.9,16.2-49.8,24.3-74.6
		c3.2-9.9,12.6-15.6,21.4-12.9C482.5,152.7,486.9,161.6,484.1,172.2z"/>
	<path class="st0" d="M394.5,73.2c-4.9-32.8-23.5-56-54.6-67.1c-30.9-11.1-59.6-5-84.5,16.6c-2.8,2.4-3.9,2.2-6.6,0
		C221.3-0.6,190.6-5.9,157.9,8.8c-32.2,14.5-47.7,41.1-49.3,71.7c-0.1,26.2,8.1,47.1,23.8,63c37.3,37.6,74.9,75,112.4,112.5
		c5.1,5.1,9.3,5.1,14.5,0c37.4-37.3,74.9-74.5,112-112.1C390.5,124.3,398.5,100.2,394.5,73.2z M357.9,133.5
		c-32.6,32.7-65.3,65.3-98,98c-8,8-8,8-16-0.1c-32.8-32.8-65.7-65.5-98.3-98.4c-31.5-31.8-25.5-82.4,12.3-105.5
		c10.7-6.5,22.3-9.7,34.9-9.6c18.7,0.1,34.6,7,47.9,20.2c10.8,10.8,11.5,10.7,22.6-0.1c19.2-18.6,42-24.9,67.5-17.2
		c25.5,7.7,41.4,25.6,46.4,51.8C381.7,96.1,374.8,116.5,357.9,133.5z"/>
	<path class="st0" d="M310.8,101.5c0-6.5-3.1-9.7-9.6-9.7c-6.5-0.1-13-0.2-19.4,0.1c-3.5,0.2-4.9-0.6-4.7-4.5
		c0.4-6.5,0.2-12.9,0.1-19.4c-0.1-6.6-3.1-9.7-9.5-9.8c-10.5-0.1-21-0.1-31.5,0c-6.2,0.1-9.3,3.2-9.3,9.5c-0.1,7-0.1,14,0,21
		c0.1,2.6-0.7,3.2-3.2,3.2c-7.2-0.2-14.3-0.2-21.5,0c-5.6,0.1-8.7,3.3-8.9,8.8c-0.1,5.4,0,10.8,0,16.3c0,5.1,0,10.1,0,15.2
		c0.1,6.9,3.1,10,9.9,10c6.1,0.1,12.3,0.3,18.4-0.1c4.2-0.3,5.9,0.6,5.5,5.2c-0.5,6.1-0.2,12.2-0.1,18.4c0.1,6.9,3,10,9.8,10.1
		c10.3,0.1,20.6,0.1,31,0c6.5-0.1,9.6-3.2,9.6-9.7c0.1-6.8,0.2-13.6,0-20.5c-0.1-2.8,0.8-3.5,3.5-3.5c6.8,0.2,13.6,0.1,20.5,0
		c6.5-0.1,9.6-3.2,9.7-9.7C310.9,122.1,310.9,111.8,310.8,101.5z M281.2,125.3c-3.1,0-6.3,0-9.4,0c-8.6,0-11.3,2.7-11.4,11.1
		c0,6.3-0.2,12.6,0.1,18.9c0.1,3.1-1,3.6-3.8,3.7c-13,0.1-13,0.2-13-12.7c0-4,0.1-8,0-12.1c-0.2-5.6-3.3-8.7-8.9-8.9
		c-3.7-0.1-7.3,0-11,0c-0.3,0-0.7,0-1,0c-12.8,0-12.7,0-12.7-12.5c0-3.3,0.7-4.5,4.2-4.4c6.1,0.3,12.2,0.1,18.3,0.1
		c8.3,0,11.1-2.8,11.1-10.9c0-6.3,0.1-12.6-0.1-18.9c-0.1-2.7,0.3-3.9,3.6-3.9c13.3-0.2,13.3-0.3,13.3,13c0,3.8-0.1,7.7,0,11.5
		c0.2,5.8,3.3,9,9.2,9.1c7,0.1,14,0.1,21,0c2.7-0.1,3.5,0.6,3.5,3.4C294.4,125.3,294.5,125.3,281.2,125.3z"/>
</g>
</svg>
