<?xml version="1.0" encoding="utf-8"?>
<!-- Generator: Adobe Illustrator 24.0.0, SVG Export Plug-In . SVG Version: 6.00 Build 0)  -->
<svg version="1.1" id="Layer_1" xmlns="http://www.w3.org/2000/svg" xmlns:xlink="http://www.w3.org/1999/xlink" x="0px" y="0px"
	 viewBox="0 0 504 504" style="enable-background:new 0 0 504 504;" xml:space="preserve">
<style type="text/css">
	.st0{fill:#4F4F4F;}
</style>
<path class="st0" d="M481.5,231c-12.6-5-24.7-3.9-36.1,3.5c-8.3,5.4-16.6,10.8-24.9,16.3c-4.1-57.9-28.8-103.5-77-136.1
	c6.2-7.9,8.5-17.2,5.5-27.4C346,77,338.7,70.6,328.6,67c7.9-14.2,15.6-28,23.3-41.9c5.7-10.3,3.4-15.6-7.8-18.8
	c-9.1-2.6-18.5-3.5-27.7-5.9c-16.4,0-32.8,0-49.3,0c-0.8,1.2-2.1,0.8-3.1,0.9c-9.1,1.3-18.1,3-26.9,5.7c-8.2,2.5-10.7,8.3-6.6,15.9
	c5.1,9.3,10.3,18.6,15.5,27.9c3,5.4,5.9,10.7,8.9,16.1c-21,7.4-28.2,30.6-14.7,48.2c-0.1,0.1-0.2,0.2-0.4,0.3
	c-49.2,32.6-73.9,78.7-76.1,137.3c-0.1,2.8-1.2,3.5-3.5,4.2c-16.4,4.9-31,13.1-44,24.3c-9.3,8.1-18.6,16.2-27.8,24.4
	c-1.7,1.5-2.7,1.9-4.7,0.1c-7.3-6.8-11.2-6.6-18.3,0.5c-20.1,20.1-40.2,40.2-60.3,60.3c-7,7-7,11.5-0.1,18.3
	c38,38,75.9,75.9,113.9,113.9c6.9,6.9,11.5,6.9,18.4,0.1c17.1-17.1,34.1-34.1,51.2-51.2c3.6-3.6,7.3-7.1,10.8-10.8
	c4.9-5.2,5-9.7,0.5-15.2c-0.5-0.7-1.8-1-1.1-2.4c45.8,0,91.6-0.1,137.4,0.1c15.3,0.1,28.1-4.8,39.2-15.3
	c38.1-35.9,76.3-71.7,114.7-107.4c9.4-8.8,14-18.7,14.1-32C504.2,248.9,492.4,235.4,481.5,231z M253.3,23.3
	c25.8-5.6,51.2-5.6,77.1,0c-7,12.6-13.9,24.8-20.6,37.2c-1.1,2.1-2.6,2.1-4.4,1.9c-9-1.2-18-1.2-27,0c-1.9,0.2-3.3,0.2-4.4-1.9
	C267.2,48.1,260.3,35.9,253.3,23.3z M260.1,86.3c10.3-3.4,21-5.1,31.9-5.1c10.7,0,21.2,1.7,31.4,5.1c7.7,2.6,9.7,11.8,3.9,16.9
	c-2.5,2.2-5.3,2.7-8.6,1.7c-17.7-5.2-35.5-5.2-53.3-0.1c-5.3,1.5-10.2-1-11.7-5.9C251.9,93.6,254.5,88.1,260.1,86.3z M183.4,248.2
	c1.5-32.7,13.4-61.5,33.7-86.9c8-10.1,17.4-18.8,28.2-25.8c31.5-20.5,65.9-20.2,96.4,2.5c37.6,28,55.9,66.6,59.2,117.6
	c1.4,5.4-3.3,11.3-11.8,16.2c-11.5,6.5-22.4,14.3-33.4,21.7c-2.5,1.7-4,2.2-6.4-0.4c-7.5-7.9-16.9-11.6-27.7-11.7
	c-5.4-0.1-10.8-0.1-16.3,0c-2.5,0.1-3.6-0.3-3.7-3.3c-0.2-5.2,0.6-8.6,6-11.5c11.4-6.2,16.1-19.6,12.8-32.3
	c-3.1-12.1-14.1-21-26.7-21.9c-1-0.1-2,0-2.9-0.1c-5.8-0.8-9.7-6.3-8.5-11.7c1.2-5.7,7.2-9.1,12.9-7.4c3.4,1,5.8,3.6,8.6,5.5
	c4.5,3.1,9.9,2.3,13.2-1.8c3.2-3.9,3.1-9.1-0.6-13c-3.3-3.5-7.1-6.3-11.6-8.1c-2.3-0.9-3.3-2-3.1-4.6c0.2-2.9,0.2-5.9,0-8.9
	c-0.4-5.3-4.7-9.2-9.8-9.1c-5.1,0-10.1,4-9.6,9.2c0.9,8.4-2,13.1-9.2,17.8c-9.9,6.4-13,20-9.3,31.3c3.7,11.4,14,19.5,25.8,20.4
	c1,0.1,2,0,3,0.1c4.3,0.5,7.3,2.8,8.7,6.9c1.3,3.8,0.2,7.2-2.6,9.9c-3,2.9-6.5,3.6-10.4,2.2c-3.5-1.2-6.2-3.6-8.7-6.2
	c-4.8-4.9-10.5-5.3-14.7-1.2c-4.3,4.1-4.1,9.7,0.5,14.8c4,4.4,8.6,8,14.2,10.4c2.1,0.9,4.2,9.9,2.3,11.7c-2.1,2-5,1-7.2-0.2
	c-2.4-1.3-4.6-3.1-6.9-4.7c-24.2-17.4-51.1-25.4-80.9-23.3C182.9,252.3,183.3,250.5,183.4,248.2z M176.8,431.5
	c-15.4,15.4-30.9,30.8-46.2,46.3c-1.8,1.8-2.8,1.9-4.7,0c-33.1-33.2-66.3-66.4-99.5-99.5c-2-2-2-3,0-5
	c15.5-15.3,30.9-30.8,46.3-46.3c1.8-1.8,2.8-1.9,4.7-0.1c33.2,33.3,66.6,66.6,99.8,99.9c0.7,0.7,1.2,1.4,1.9,2.3
	C178.2,430.1,177.5,430.8,176.8,431.5z M477.6,280.9c-21.6,20.2-43.2,40.4-64.7,60.6c-17.3,16.2-34.6,32.3-51.7,48.5
	c-6.8,6.4-14.6,9.5-24,9.4c-25.4-0.2-50.9-0.1-76.3-0.1c-26.4,0-52.9,0-79.3,0c-2.6,0-4.5-0.7-6.5-2.6c-24-24.1-48-48.1-72.1-72.1
	c-2.4-2.4-2.6-3.7,0.1-5.9c9-7.6,17.8-15.6,26.8-23.2c35.9-30.6,87.6-32.7,125.5-4.6c9.5,7,19.2,10.6,30.9,10
	c11.3-0.6,22.7-0.2,34-0.1c12,0.1,20.7,8.3,20.8,19.6c0,11.3-8.7,19.7-20.7,19.7c-22.2,0.1-44.3,0-66.5,0c-6.2,0-10.3,3.1-11.2,8.2
	c-1,5.7,3.3,11.4,9.4,11.4c24.3,0.1,48.6,0.8,72.9-0.3c21.5-0.9,37-20.2,35.7-42.2c-0.2-2.6,0.3-4.1,2.6-5.6
	c30.9-20.1,61.7-40.4,92.6-60.6c11.8-7.7,26.1-2,28.8,11.3C486.1,270,483,275.9,477.6,280.9z"/>
</svg>
