<?xml version="1.0" encoding="utf-8"?>
<!-- Generator: Adobe Illustrator 24.0.0, SVG Export Plug-In . SVG Version: 6.00 Build 0)  -->
<svg version="1.1" id="Layer_1" xmlns="http://www.w3.org/2000/svg" xmlns:xlink="http://www.w3.org/1999/xlink" x="0px" y="0px"
	 viewBox="0 0 504 504" style="enable-background:new 0 0 504 504;" xml:space="preserve">
<style type="text/css">
	.st0{fill:#1EAAE2;}
	.st1{fill:#055FAA;}
	.st2{fill:#FFFFFF;}
	.st3{fill:#095FAA;}
	.st4{fill:#20A8E1;}
</style>
<circle class="st2" cx="252" cy="252" r="252"/>
<g>
	<g>
		<path class="st3" d="M442.67,187.59c0.02-1.52,0.04-3.03,0.06-4.55c0.21,0.05,0.41,0.11,0.61,0.17c0,1.5,0,2.99,0,4.49
			C443.06,188.04,442.84,188.01,442.67,187.59z"/>
		<path class="st3" d="M442.67,187.59c0.22,0.05,0.45,0.09,0.68,0.11c0,1.24,0,2.5,0,3.74C442.11,190.33,442.7,188.9,442.67,187.59z
			"/>
		<path class="st3" d="M442.96,187.32c-0.11-1.42,0.24-2.87-0.23-4.27c0-0.25,0.02-0.5-0.01-0.75
			c-2.37-23.48-12.58-43.3-28.81-60.02c-21.7-22.37-48.41-35.45-79.03-40.23c-39.92-6.24-76.52,2.13-108.5,27.31
			c-22.37,17.61-36.35,40.56-40.76,68.97c-1.03,6.62-1.08,6.4-7.9,7.17c-33.89,3.78-63.58,16.76-87.57,41.33
			c-18.62,19.08-29.2,41.94-29.49,68.91c-0.28,26.84,9.35,50.04,26.89,70.09c1.74,1.98,2.65,4.04,2.98,6.59
			c1.86,14.47-2.12,27.07-11.97,37.8c-2.44,2.66-3.98,5.45-2.38,9.09c1.63,3.72,4.71,4.74,8.53,4.62
			c20.3-0.68,38.08-7.7,53.29-21.15c1.4-1.24,2.52-1.93,4.52-1.28c12.49,4.05,25.34,6.18,38.43,7.03
			c38.06,2.46,72.28-7.41,101.21-32.74c20.79-18.2,33.56-41.03,36.41-68.88c0.24-2.29,1.18-2.82,3.25-2.95
			c13.2-0.83,26.22-2.81,38.84-6.89c2.31-0.75,3.72-0.36,5.54,1.25c15.33,13.51,33.28,20.47,53.73,20.95
			c2.95,0.07,5.38-0.8,7.1-3.28c2.29-3.3,1.79-6.61-1.66-10.38c-9.92-10.87-13.9-23.59-11.93-38.18c0.31-2.27,1.08-4.17,2.67-5.95
			c11.48-12.8,19.6-27.48,23.97-44.14c1.27-4.85,2.19-9.79,3.27-14.69c0-3.74,0-7.48,0-11.21
			C442.56,190.13,443.14,188.68,442.96,187.32z M273.53,363.54c-25.92,23.32-56.86,32.25-91.29,30.07
			c-14.08-0.89-27.86-3.4-41.14-8.36c-3.67-1.37-6.68-0.08-9.36,2.76c-8.48,8.96-18.75,15.03-30.6,18.44
			c-0.45,0.13-0.92,0.16-1.82,0.31c3.56-7.54,5.77-15.06,6.45-23.02c0.6-7.05-0.28-13.9-1.93-20.71c-0.59-2.43-2.36-4.04-3.95-5.78
			c-14.8-16.34-23.55-35.33-24.25-57.51c-0.82-25.97,9.54-47.57,27.97-65.17c27.79-26.55,61.47-37.22,99.46-34.32
			c27.93,2.14,52.66,12.43,72.91,32.08C314.74,269.94,313.69,327.42,273.53,363.54z M251.88,197.93c-5.4-2.57-9.98-4.74-16.65-6.6
			c-15.67-4.36-23.5-5.38-29.87-5.91c-5.74-0.48-5.73-0.37-4.77-6.1c3.73-22.26,14.45-40.66,31.43-55.27
			c25.98-22.35,56.48-31.15,90.35-28.52c29.9,2.32,56.27,13.25,77.92,34.29c18.39,17.87,28.91,39.45,28.01,65.57
			c-0.74,21.48-8.96,40.16-23.3,55.98c-4.17,4.59-5.78,9.63-6.53,15.38c-1.6,12.29,0.69,23.91,6.21,35.49
			c-12.06-3.05-22.34-8.48-30.51-17.09c-4.69-4.94-9.01-5.65-15.2-3.31c-12.06,4.57-24.81,6.19-37.62,7.24
			c-2.09,0.18-2.56-0.6-2.73-2.4c-0.73-7.34-2.21-14.35-4.37-21.05c-4.54-14.05-13.71-28.49-21.98-37.86
			c-5.19-5.88-10.12-10.24-13.74-13.16C268.5,206.61,259.09,201.35,251.88,197.93z"/>
	</g>
	<g>
		<path class="st4" d="M238.72,343.4c-11.82-31.04-23.67-62.08-35.59-93.08c-2.33-6.05-7.13-9.22-13.43-9.09
			c-5.92,0.12-10.52,3.19-12.74,8.95c-11.9,31-23.85,61.98-35.54,93.07c-2.6,6.91,0.45,13.58,6.26,15.93
			c6.4,2.58,14.19,0,15.81-7.31c3.04-13.81,11.42-16.8,23.67-14.84c1.79,0.29,3.72,0.28,5.51,0c12.16-1.93,21.53,0.38,23.51,14.74
			c0.17,1.21,1.08,2.39,1.87,3.42c3.43,4.53,8.07,5.77,13.31,4.17c5.43-1.65,7.91-5.72,8.1-11.74
			C239.28,346.49,239.27,344.84,238.72,343.4z M179.03,312.33c3.52-9.29,6.86-18.11,10.95-28.91l11.04,28.68
			C193.55,313.07,186.66,312.76,179.03,312.33z"/>
	</g>
	<g>
		<path class="st4" d="M387.5,169.84c0,7.67-2.84,14.42-8.52,20.28c-2.89,2.89-6.22,5.06-9.98,6.51c-3.76,1.45-8.07,2.11-12.91,2.01
			c-0.84-0.11-1.52-0.18-2.04-0.24c-0.52-0.05-1.33-0.25-2.4-0.6c-2.13-0.91-3.19-2.47-3.19-4.7c0-3.34,1.66-5.02,4.97-5.02
			l1.56,0.37l2.04,0.47c6.17,0,11.16-1.95,15-5.85c1.74-1.6,3.08-3.59,4-5.98c0.92-2.39,1.39-4.8,1.39-7.24
			c0-5.43-1.81-9.92-5.43-13.46c-3.62-3.53-8-5.3-13.16-5.3c-2.57,0-4.97,0.43-7.18,1.3c-2.21,0.87-4.27,2.32-6.19,4.33
			c-1.5,1.4-2.69,3.31-3.6,5.75c-0.9,2.44-1.55,4.97-1.93,7.58c0,6.83-1.13,12.42-3.39,16.78c-2.26,4.36-5.72,7.91-10.36,10.66
			c-0.84,0.56-1.66,0.84-2.46,0.84c-1.47,0-2.65-0.53-3.56-1.59c-0.91-1.06-1.36-2.22-1.36-3.47c0-2.02,0.8-3.4,2.4-4.13
			c2.58-1.6,4.61-3.81,6.09-6.61c1.48-2.81,2.4-5.98,2.75-9.54c0-6.55-1.78-11.84-5.33-15.86c-3.56-4.02-8.01-6.04-13.38-6.04
			c-5.09,0-9.49,1.93-13.22,5.8c-3.73,3.87-5.59,8.43-5.59,13.7c0,3.34,0.87,6.75,2.61,10.22c1.74,3.46,4.17,6.24,7.26,8.33
			c1.67,0.87,2.51,2.14,2.51,3.82c0,1.29-0.5,2.51-1.49,3.66c-0.99,1.14-2.36,1.72-4.11,1.72l-2.09-0.73
			c-4.74-3.2-8.38-7.25-10.93-12.13s-3.82-9.84-3.82-14.9c0-7.91,2.79-14.77,8.36-20.6c5.58-5.82,12.41-8.73,20.5-8.73
			c5.37,0,10.27,1.4,14.72,4.18c4.44,2.79,7.36,5.5,8.76,8.16c0.31-0.69,1.48-2.02,3.49-3.98c2.89-2.85,6.08-4.99,9.56-6.4
			c3.49-1.41,7.13-2.11,10.92-2.11c7.66,0,14.35,2.85,20.08,8.57C384.63,155.38,387.5,162.11,387.5,169.84z"/>
	</g>
</g>
</svg>
