<?xml version="1.0" encoding="utf-8"?>
<!-- Generator: Adobe Illustrator 24.0.0, SVG Export Plug-In . SVG Version: 6.00 Build 0)  -->
<svg version="1.1" id="Layer_1" xmlns="http://www.w3.org/2000/svg" xmlns:xlink="http://www.w3.org/1999/xlink" x="0px" y="0px"
	 viewBox="0 0 360 360" style="enable-background:new 0 0 360 360;" xml:space="preserve">
<style type="text/css">
	.st0{fill:none;}
	.st1{fill-rule:evenodd;clip-rule:evenodd;fill:#1BA9E1;}
	.st2{fill-rule:evenodd;clip-rule:evenodd;fill:#005FA9;}
</style>
<g id="Group_508" transform="translate(-9767 -483)">
	<rect id="Rectangle_278" x="9768.3" y="484.3" class="st0" width="357.4" height="357.4"/>
	<g id="Group_507" transform="translate(72 -163)">
		<g id="calendar-check" transform="translate(9695 646)">
			<path id="Path_183" class="st1" d="M243.8,160.9c4.4,4.4,4.4,11.4,0,15.8c0,0,0,0,0,0l-67,67c-4.4,4.4-11.4,4.4-15.8,0
				c0,0,0,0,0,0l-33.6-33.5c-4.4-4.4-4.4-11.4,0-15.8c4.4-4.4,11.4-4.4,15.8,0l0,0l25.6,25.6l59.1-59.1
				C232.3,156.5,239.4,156.5,243.8,160.9C243.8,160.9,243.8,160.9,243.8,160.9L243.8,160.9z"/>
			<path id="Path_184" class="st2" d="M23.6,90.6V314c0,12.3,10,22.3,22.3,22.3H314c12.3,0,22.3-10,22.3-22.3V90.6H23.6z M46,23.6
				c-24.7,0-44.7,20-44.7,44.7V314c0,24.7,20,44.7,44.7,44.7H314c24.7,0,44.7-20,44.7-44.7V68.3c0-24.7-20-44.7-44.7-44.7H46z"/>
			<path id="Path_185" class="st2" d="M79.5,1.3c6.2,0,11.2,5,11.2,11.2c0,0,0,0,0,0v11.2c0,6.2-5,11.2-11.2,11.2s-11.2-5-11.2-11.2
				l0,0V12.5C68.3,6.3,73.3,1.3,79.5,1.3C79.5,1.3,79.5,1.3,79.5,1.3z M280.5,1.3c6.2,0,11.2,5,11.2,11.2c0,0,0,0,0,0v11.2
				c0,6.2-5,11.2-11.2,11.2c-6.2,0-11.2-5-11.2-11.2l0,0V12.5C269.4,6.3,274.4,1.3,280.5,1.3C280.5,1.3,280.5,1.3,280.5,1.3z"/>
		</g>
	</g>
</g>
</svg>
