<svg id="Layer_1" data-name="Layer 1" xmlns="http://www.w3.org/2000/svg" viewBox="0 0 612 792"><defs><style>.cls-1{fill:#fefefe;}.cls-2{fill:#090909;}.cls-3{fill:#111;}.cls-4{fill:#161616;}.cls-5{fill:#222;}.cls-6{fill:#0e0e0e;}.cls-7{fill:#121212;}.cls-8{fill:#0a0a0a;}.cls-9{fill:#0d0d0d;}.cls-10{fill:#605f60;}</style></defs><path d="M365.23,204.06h65.23a64.21,64.21,0,0,1,24.69,6.27c21.78,10.57,35.33,27.75,41.58,50.94.84,3.11.4,6.4,1.21,9.52v6c-.9,6.89-.14,13.8-.39,20.7-.15,9.56-10.48,16-20,12.45-6.46-2.4-10.45-8.13-10.7-15.27-.26-7.6.57-15.23-.71-22.81a44,44,0,0,0-43.05-36.68q-116.37-.06-232.73,0c-24.91,0-45.08,19.6-45.18,43.64a44,44,0,0,0,43.76,44.06q116.74.08,233.47,0c20.45,0,38.38,7.05,53,21.12,12.89,12.43,21.54,27.46,22.22,46.06a1.46,1.46,0,0,0,.34.65v6c-.67,1-.38,2.19-.38,3.28q0,55.58,0,111.15c0,1.09-.29,2.25.38,3.28V522a69.36,69.36,0,0,1-17.5,40.34c-13,14.71-28.77,24.38-49,25.25a1.61,1.61,0,0,0-1,.39H193.53a79.88,79.88,0,0,1-32.28-9.86q-35.9-19.86-45.82-59.7c-.88-3.5-.61-7.15-1.37-10.67v-8.24c.81-2.68.34-5.42.36-8.12.07-9.57,0-19.14,0-28.71v-116q0-33.27,0-66.52c0-1.34.36-2.75-.37-4v-5.25A63.47,63.47,0,0,1,122,243.85c11.2-20.18,28.07-33,50.4-38.65,3.25-.83,6.65-.38,9.92-1.14h3c1.28.73,2.68.37,4,.37q30.62,0,61.22,0,55.34,0,110.67,0C362.54,204.43,363.94,204.79,365.23,204.06Z"/><path class="cls-1" d="M497.94,390.75c-.86-3.68-1.6-7.39-2.59-11a75,75,0,0,0-72.63-55.64q-116-.09-232,0c-18.93,0-33.26-8.17-41.9-25.06-13.62-26.61,3.5-59.5,33.06-64.16a61.56,61.56,0,0,1,9.69-.76q114.9,0,229.78,0c26.95,0,46.56,19.57,46.61,46.48,0,5-.11,10,.05,15a14.89,14.89,0,0,0,13.81,14.24,14.5,14.5,0,0,0,15.51-11.68c0-.53.22-.63.64-.31Z"/><path class="cls-1" d="M114.06,507.71c1.55,2.63,1.25,5.68,1.89,8.52,8.43,37.7,36.63,64.24,75.37,70.85.77.13,1.83-.32,2.21.86-25.55,0-51.11,0-76.66.06-2.35,0-2.88-.53-2.87-2.87C114.1,559.32,114.06,533.52,114.06,507.71Z"/><path class="cls-1" d="M182.29,204.06c-2.82,1.37-6,1.18-8.92,1.88-31.63,7.49-53.53,31.22-58.65,63.65a4.2,4.2,0,0,1-.66,1.2c0-21.43,0-42.87-.06-64.3,0-2.08.42-2.49,2.49-2.48C138.42,204.1,160.36,204.06,182.29,204.06Z"/><path class="cls-1" d="M497.94,270.79c-1-4.15-1.85-8.34-3-12.44a74.56,74.56,0,0,0-63.31-53.62c-.52,0-1-.09-1.16-.67,21.62,0,43.23.05,64.85-.06,2.24,0,2.7.45,2.69,2.69C497.89,228.06,497.94,249.42,497.94,270.79Z"/><path class="cls-1" d="M430.46,587.94c4-.89,8.18-1.49,12.12-2.71,30.56-9.44,48.66-30,54.56-61.4.13-.68-.18-1.55.8-1.87,0,21.12-.05,42.23.06,63.35,0,2.24-.45,2.7-2.69,2.69C473.69,587.89,452.08,587.94,430.46,587.94Z"/><path class="cls-2" d="M497.94,514.46c-1.24-1.1-.73-2.57-.73-3.88q0-55,0-110c0-1.3-.52-2.77.73-3.87Z"/><path class="cls-3" d="M365.23,204.06c-1,1.16-2.31.74-3.51.74q-55.61,0-111.22,0c-.24-.17-.31-.33-.23-.49s.17-.24.25-.24Z"/><path class="cls-4" d="M114.06,276c1.24,1.1.72,2.57.72,3.88q0,33.3,0,66.59c-.24.35-.48.34-.73,0Z"/><path class="cls-5" d="M250.52,204.06c0,.25,0,.49,0,.73q-31.06,0-62.11,0c-1.07,0-2.29.41-3.1-.74Z"/><path class="cls-6" d="M114.8,400.49v62.24c-.24.33-.49.35-.74,0V400.5C114.31,400.17,114.55,400.15,114.8,400.49Z"/><path class="cls-7" d="M114.8,400.49h-.74v-54h.73Q114.81,373.51,114.8,400.49Z"/><path class="cls-8" d="M114.06,462.73h.74c0,10.95,0,21.91,0,32.86,0,1.31.5,2.77-.73,3.88Z"/><path class="cls-9" d="M497.94,297.78l-.64.31q-.06-9.48-.11-18.94c0-.86-.07-1.75.75-2.36Z"/><path class="cls-1" d="M144.06,339.26c2,1.3,3.47,2.34,5,3.3,12.86,8,26.85,11.54,42,11.52q114.87-.13,229.76,0c27.68,0,47.11,19.42,47.12,47.1q0,54.92,0,109.83c0,27.47-19.47,47-46.87,47q-107.94,0-215.9,0c-29.82,0-53.87-19.5-60-48.57a52.79,52.79,0,0,1-1.14-10.79q0-78.33,0-156.67Z"/><path class="cls-10" d="M453.85,479.1H403.36a26.28,26.28,0,0,1-26.26-26.25v-8.49a26.29,26.29,0,0,1,26.26-26.26h50.49a26.28,26.28,0,0,1,26.25,26.26v8.49A26.27,26.27,0,0,1,453.85,479.1Zm-50.49-45a10.27,10.27,0,0,0-10.26,10.26v8.49a10.27,10.27,0,0,0,10.26,10.25h50.49a10.26,10.26,0,0,0,10.25-10.25v-8.49a10.27,10.27,0,0,0-10.25-10.26Z"/></svg>