<?xml version="1.0" encoding="utf-8"?>
<!-- Generator: Adobe Illustrator 24.3.0, SVG Export Plug-In . SVG Version: 6.00 Build 0)  -->
<svg version="1.1" id="Layer_1" xmlns="http://www.w3.org/2000/svg" xmlns:xlink="http://www.w3.org/1999/xlink" x="0px" y="0px"
	 viewBox="0 0 216 216" style="enable-background:new 0 0 216 216;" xml:space="preserve">
<style type="text/css">
	.st0{fill:#CEABA2;}
	.st1{fill:#9C695B;}
	.st2{fill:#F5CEB9;}
	.st3{fill:#D8A8A2;}
	.st4{fill:#F6E6E0;}
	.st5{fill:#F7AB8A;}
	.st6{fill:#D5B6AB;}
	.st7{fill:#DBBBB5;}
	.st8{fill:#BC8579;}
	.st9{fill:#C09E96;}
	.st10{fill:#C39E98;}
	.st11{fill:#C8A199;}
	.st12{fill:#7A3E2B;}
	.st13{fill:#80493C;}
	.st14{fill:#80584B;}
	.st15{fill:#714D41;}
	.st16{fill:#9B6F58;}
	.st17{fill:#8F675D;}
	.st18{fill:#855F55;}
	.st19{fill:#A16E5C;}
	.st20{fill:#855C4E;}
	.st21{fill:#C29384;}
	.st22{fill:#DBB1AC;}
	.st23{fill:#C39A91;}
	.st24{fill:#995C49;}
	.st25{fill:#8C5440;}
	.st26{fill:#814A38;}
	.st27{fill:#8D5849;}
	.st28{fill:#C89E99;}
	.st29{fill:#714132;}
	.st30{fill:#6A3829;}
	.st31{fill:#7B4D3F;}
	.st32{fill:#DCB8B5;}
	.st33{fill:#FBBF9F;}
	.st34{fill:#F6B497;}
	.st35{fill:#B96953;}
	.st36{fill:#A86148;}
	.st37{fill:#A4715F;}
	.st38{fill:#EFA183;}
	.st39{fill:#D5876F;}
	.st40{fill:#F3B298;}
	.st41{fill:#965E4E;}
	.st42{fill:#816057;}
	.st43{fill:#814634;}
	.st44{fill:#8F5748;}
	.st45{fill:#FEAD87;}
	.st46{fill:#925D4D;}
	.st47{fill:#BA877A;}
	.st48{fill:#D8AB9D;}
	.st49{fill:#D1A69C;}
	.st50{fill:#BC8477;}
	.st51{fill:#C69D95;}
	.st52{fill:#AD7466;}
	.st53{fill:#B98276;}
	.st54{fill:#7D402E;}
	.st55{fill:#7F432F;}
	.st56{fill:#723825;}
	.st57{fill:#763928;}
	.st58{fill:#733D2C;}
	.st59{fill:#703E2B;}
	.st60{fill:#673627;}
	.st61{fill:#AB6F59;}
	.st62{fill:#A56D54;}
	.st63{fill:#BF694C;}
	.st64{fill:#9A6253;}
	.st65{fill:#8A4F3C;}
	.st66{fill:#A86757;}
	.st67{fill:#B77E73;}
	.st68{fill:#905241;}
	.st69{fill:#925644;}
	.st70{fill:#9F604F;}
	.st71{fill:#A16350;}
	.st72{fill:#814332;}
	.st73{fill:#894A39;}
	.st74{fill:#773E2E;}
	.st75{fill:#783E2D;}
	.st76{fill:#66301F;}
	.st77{fill:#743A28;}
	.st78{fill:#6E3625;}
	.st79{fill:#804E3E;}
	.st80{fill:#622E1D;}
	.st81{fill:#F7B492;}
	.st82{fill:#FCA887;}
	.st83{fill:#F58F6D;}
	.st84{fill:#E47454;}
	.st85{fill:#975640;}
	.st86{fill:#A35B44;}
	.st87{fill:#A9624B;}
	.st88{fill:#E99370;}
	.st89{fill:#A66650;}
	.st90{fill:#91573E;}
	.st91{fill:#956452;}
	.st92{fill:#8A5443;}
	.st93{fill:#F78B69;}
	.st94{fill:#D4603F;}
	.st95{fill:#C5471F;}
	.st96{fill:#B35D48;}
	.st97{fill:#844B35;}
	.st98{fill:#8C4F3E;}
	.st99{fill:#864937;}
	.st100{fill:#753A26;}
	.st101{fill:#925842;}
	.st102{fill:#783C29;}
	.st103{fill:#6A2F1D;}
	.st104{fill:#9D5F4D;}
	.st105{fill:#A2604E;}
	.st106{fill:#965947;}
	.st107{fill:#A6685A;}
	.st108{fill:#A36456;}
	.st109{fill:#AC6D5F;}
	.st110{fill:#AE7265;}
	.st111{fill:#733A2A;}
	.st112{fill:#793F2B;}
	.st113{fill:#FEBC9C;}
	.st114{fill:#783A28;}
	.st115{fill:#E58C70;}
	.st116{fill:#EF9578;}
	.st117{fill:#803F2B;}
	.st118{fill:#DC8B79;}
	.st119{fill:#6B3423;}
	.st120{fill:#6F3424;}
	.st121{fill:#662E20;}
	.st122{fill:#5C2F1F;}
	.st123{fill:#8E533D;}
	.st124{fill:#9A624F;}
	.st125{fill:#9D6044;}
	.st126{fill:#9E5E49;}
	.st127{fill:#B16A50;}
	.st128{fill:#A9684F;}
	.st129{fill:#8D5541;}
	.st130{fill:#8E5442;}
	.st131{fill:#7B4230;}
	.st132{fill:#824734;}
	.st133{fill:#A06453;}
	.st134{fill:#A97365;}
	.st135{fill:#703827;}
	.st136{fill:#713623;}
	.st137{fill:#713526;}
	.st138{fill:#60291B;}
	.st139{fill:#6A3221;}
	.st140{fill:#6E3826;}
	.st141{fill:#652D1C;}
	.st142{fill:#683021;}
	.st143{fill:#FB9671;}
	.st144{fill:#FC9F7D;}
	.st145{fill:#E4704A;}
	.st146{fill:#FCD4B4;}
	.st147{fill:#86422B;}
	.st148{fill:#8E4B33;}
	.st149{fill:#F6C4A5;}
	.st150{fill:#64301E;}
	.st151{fill:#854F3B;}
	.st152{fill:#662C1E;}
	.st153{fill:#6A3322;}
	.st154{fill:#592517;}
	.st155{fill:#8B4B3A;}
	.st156{fill:#DE8F6C;}
	.st157{fill:#672E1D;}
	.st158{fill:#C07966;}
	.st159{fill:#8C4937;}
	.st160{fill:#804330;}
	.st161{fill:#FDCDAF;}
	.st162{fill:#E4AE95;}
	.st163{fill:#A71E17;}
	.st164{fill:#90110B;}
	.st165{fill:#713723;}
	.st166{fill:#8C4C2E;}
	.st167{fill:#E1977F;}
	.st168{fill:#FBCEAC;}
	.st169{fill:#531E0D;}
	.st170{fill:#FDCCA9;}
	.st171{fill:#642E1B;}
	.st172{fill:#97553F;}
	.st173{fill:#622914;}
	.st174{fill:#582910;}
	.st175{fill:#6D341A;}
	.st176{fill:#FDC3A1;}
	.st177{fill:#FCBE9A;}
	.st178{fill:#5C2614;}
	.st179{fill:#632E1E;}
	.st180{fill:#66321F;}
	.st181{fill:#672C1A;}
	.st182{fill:#7C4530;}
	.st183{fill:#FDDBBB;}
	.st184{fill:#FCD9B9;}
	.st185{fill:#5A2717;}
	.st186{fill:#61230E;}
	.st187{fill:#460F05;}
	.st188{fill:#5D2819;}
	.st189{fill:#502013;}
	.st190{fill:#F9AE8A;}
	.st191{fill:#FBB490;}
	.st192{fill:#E58F6B;}
	.st193{fill:#5A1F10;}
	.st194{fill:#6E3224;}
	.st195{fill:#A6583D;}
	.st196{fill:#EBCBBC;}
	.st197{fill:#DAA08C;}
	.st198{fill:#B7614F;}
	.st199{fill:#B37354;}
	.st200{fill:#D28872;}
	.st201{fill:#FDD4B0;}
	.st202{fill:#FBD2B2;}
	.st203{fill:#E89F7E;}
	.st204{fill:#FAC6A6;}
	.st205{fill:#E9A98C;}
	.st206{fill:#FDC59F;}
	.st207{fill:#FDCBA4;}
	.st208{fill:#FEC29D;}
	.st209{fill:#FEBA98;}
	.st210{fill:#582214;}
	.st211{fill:#F8CAA9;}
	.st212{fill:#F7D1B4;}
	.st213{fill:#6C2A18;}
	.st214{fill:#F0C7A9;}
	.st215{fill:#FDDEBE;}
	.st216{fill:#FDD8B7;}
	.st217{fill:#FDE3C1;}
	.st218{fill:#FBDEBF;}
	.st219{fill:#EAAA8D;}
	.st220{fill:#682D17;}
	.st221{fill:#CD7E64;}
	.st222{fill:#B98768;}
	.st223{fill:#E4BDA8;}
	.st224{fill:#FCDBB6;}
	.st225{fill:#FDD7B2;}
	.st226{fill:#FBD6B3;}
	.st227{fill:#F9CBAB;}
	.st228{fill:#FBD4BA;}
	.st229{fill:#F8B996;}
	.st230{fill:#FCC39B;}
	.st231{fill:#834831;}
	.st232{fill:#783B26;}
	.st233{fill:#ECA686;}
	.st234{fill:#5C1F06;}
	.st235{fill:#FDCCA7;}
	.st236{fill:#FBBE9F;}
	.st237{fill:#F7B997;}
	.st238{fill:#5E2914;}
	.st239{fill:#602613;}
	.st240{fill:#FDE2BE;}
	.st241{fill:#FDE5C6;}
	.st242{fill:#FDE3C2;}
	.st243{fill:#FDD0AF;}
	.st244{fill:#FDD8B1;}
	.st245{fill:#F5B89A;}
	.st246{fill:#E3C2AB;}
	.st247{fill:#FACAAB;}
	.st248{fill:#533829;}
	.st249{fill:#FCEBC8;}
	.st250{fill:#FDDFBA;}
	.st251{fill:#FCDDBA;}
	.st252{fill:#FCCBAA;}
	.st253{fill:#5F3E2D;}
	.st254{fill:#FECA9F;}
	.st255{fill:#F6C2AB;}
	.st256{fill:#FDE6CA;}
	.st257{fill:#FCE0C1;}
	.st258{fill:#96604C;}
	.st259{fill:#8B553D;}
	.st260{fill:#76301C;}
	.st261{fill:#7D3D24;}
</style>
<g>
	<path class="st0" d="M89.2,63.7c1.2-0.8,1.4-2.5,2.8-3.1c1-1.3,2.2-2.1,3.8-2.4c1.9-0.3,3.7-1.2,5.7-1.2c1.8,0,3.7,0,5.5,0
		c0.9,0,2-0.3,2.5,1c-0.9,1.3-2.3,1-3.5,1c-2.8,0-5.6-0.1-8.2,0.9c-3.6,0.5-5.5,3.6-8,5.7c-0.5-0.1-0.8-0.3-1-0.8
		C88.7,64.4,88.6,63.9,89.2,63.7z"/>
	<path class="st1" d="M145.2,82.1c-0.5,0.5-0.4,1.1-0.5,1.7c-0.2,0.6-0.4,1.1-1.2,0.8c-0.3-0.4-0.3-0.8-0.3-1.2
		c0.1-0.8,0.3-1.6,0.3-2.4c0-0.6-0.1-1.3-0.5-1.8c-1.4-2.2-3.5-3.7-5.8-4.9c-1-0.5-2.3-0.9-2-2.5c0.9-0.5,1.7-0.1,2.5,0.3
		c3.6,1.6,6.6,4,7.9,7.9C145.5,80.8,146,81.6,145.2,82.1z"/>
	<path class="st2" d="M147.2,124.2c-0.4,0.2-0.8,0.4-1.2,0.6c-1.1,0.3-2.2,1.1-3.4,0.8c-0.3-0.2-0.4-0.4-0.5-0.7
		c0.1-0.6,0.3-1.2,0.8-1.6c2.1-1,3.7-3.1,6.4-2.3C149.7,122.8,148.7,123.7,147.2,124.2z"/>
	<path class="st3" d="M137.6,71.4c1.8,1.2,3.6,2.4,5.4,3.6c0.6,1.3,2.2,2,2.4,3.6c0.3,0.5,0.4,0.9-0.2,1.3c-1.4-3.7-4.6-5.4-7.7-7.2
		c-0.3-0.4-0.9-0.7-0.6-1.4C137.1,71.1,137.4,71.2,137.6,71.4z"/>
	<path class="st4" d="M122.6,61.2c-1.3,0.9-2.3-0.2-3.4-0.5c-2.2-1.2-4.8-1-6.9-2.5"/>
	<path class="st5" d="M66.7,121.9c-0.4-0.6-0.8-1.3-1.1-1.9c-0.3-0.3-0.5-0.7-0.4-1.2c0.1-0.3,0.2-0.5,0.4-0.7
		c2.1,0,1.9,2.7,3.7,2.9c0.6,0.5,1.2,1,1.3,1.9c-0.2,0.6-0.6,0.9-1.2,1c-0.3,0-0.5,0-0.8-0.1C67.9,123.3,67.3,122.6,66.7,121.9z"/>
	<path class="st6" d="M119.6,60.1c1,0.4,2,0.8,3,1.1c0.6,0.2,1.1,0.4,1.7,0.7c0.6,0.6,1.9,0.5,2,1.7c-0.3,0.5-0.8,0.7-1.3,0.9
		c-0.4,0-0.8-0.2-1.1-0.5c-0.7-0.8-1.7-1.3-2.7-1.6c-0.8-0.4-1.9-0.4-2.4-1.5C118.8,60.4,119.2,60.2,119.6,60.1z"/>
	<path class="st7" d="M128,64.8c0.4,0,0.8,0.1,1.1,0.1c0.6,0.4,1.2,0.8,1.8,1.2c0.5,0.3,1,0.6,0.6,1.3c-0.4,0.3-0.8,0.4-1.2,0.4
		c-1,0-1.7-0.5-2.2-1.3C127.9,65.9,127.6,65.4,128,64.8z"/>
	<path class="st8" d="M74,78.5c0-0.4,0.1-0.7,0.1-1.1c1.5-1.1,1.7-3,2.7-4.3c0.6-0.8,0.9-1.8,1.9-2.2c0.7-0.3,1.4-0.6,2.1-0.1
		c0.5,0.9,0.1,1.7-0.2,2.6c-1.6,2.8-3.7,5.4-5.2,8.3c-0.5,1-1.2,2.2-2.7,1.5C72.8,81.6,73.3,80.1,74,78.5z"/>
	<path class="st9" d="M71.6,97.2c-0.2,0-0.3-0.1-0.5-0.1c0-3.2,0-6.3-0.1-9.5c0.7-1.1-0.2-2.5,0.6-3.7c0.1,0,0.3-0.1,0.4-0.1
		c0.3,0.2,0.5,0.4,0.6,0.7c0.3,0.8,0.3,1.6,0.2,2.5c-0.5,2.1-0.5,4.3-0.5,6.5C72.4,94.9,72.7,96.2,71.6,97.2z"/>
	<path class="st10" d="M77.1,73.3c-0.9,1.5-0.8,3.7-3,4.2c0.7-1.5,1-3.2,2.5-4.2C76.7,73,76.9,73,77.1,73.3z"/>
	<path class="st9" d="M74,78.5c0.2,1.8-1,3.2-1.1,4.9c0.2,0.5-0.1,0.6-0.5,0.7c-0.1-0.1-0.2-0.1-0.3-0.2C72.4,82,72.3,80,74,78.5z"
		/>
	<path class="st11" d="M77.1,73.3l-0.3,0c0,0-0.3,0-0.3,0c0.1-1.6,1.6-2.4,2.3-3.6c0.4-0.1,0.7-0.1,1.1-0.2c0.6,1.2-0.7,1.4-1.2,1.9
		C77.9,71.7,77.7,72.7,77.1,73.3z"/>
	<path class="st12" d="M125.6,155.4c-0.2,0.2-0.4,0.4-0.7,0.6c-1.5,1-3,1.8-4.3-0.3c0-0.3,0.2-0.5,0.4-0.7c1.8-1.1,3.3-2.8,5.4-3.6
		c-1.9,0.7-3.9,0.6-5.7,1.4c-0.5,0-0.9-0.1-1.3-0.4c-0.3-0.4-0.4-0.9-0.4-1.3c0.8-2.6,2.6-3.9,5.3-3.9c2,0.2,4.1,0.4,5.1,2.6
		c0.2,0.4,0.3,0.8,0.2,1.3C128.8,153,127.3,154.3,125.6,155.4z"/>
	<path class="st13" d="M122.6,157.8c-1.2-0.2-2.4-0.4-3.6-0.6c-0.4-1,0.4-1.5,1-1.9c0.3-0.1,0.5,0,0.8,0.1c1.1,1.8,2.7,0.8,4.1,0.6
		C124.5,157,123.5,157.4,122.6,157.8z"/>
	<path class="st14" d="M125.6,155.4c0.6-1.9,2.8-2.4,3.6-4.2c0.3-0.2,0.5-0.2,0.8,0.1c-0.5,0.8-0.9,1.5-1.4,2.3c0,0,0,0,0,0
		c-0.4,0.9-1,1.5-1.9,1.8C126.3,155.3,125.9,155.3,125.6,155.4z"/>
	<path class="st15" d="M90.8,154.7c-0.5-0.5-0.9-1.1-1.4-1.6c0.6-0.7,1.2-0.4,1.9-0.1c0.3,0.2,0.7,0.5,1,0.8
		c0.6,0.5,1.4,0.9,1.1,1.9c-0.1,0.1-0.2,0.2-0.3,0.3C92.4,155.6,91.6,155.1,90.8,154.7z"/>
	<path class="st15" d="M94.9,157.3c-0.3-0.1-0.7-0.1-1-0.2c-0.2-0.3-0.5-0.7-0.7-1c0,0,0.2-0.2,0.2-0.2c1.3-0.4,2.1-0.1,2.4,1.3
		C95.4,157.4,95.2,157.5,94.9,157.3z"/>
	<path class="st16" d="M76.9,134.4c-0.6-1.1-1.3-2.2-1.1-3.5c-0.4-1.4-0.5-2.9-1.3-4.2c-0.1-0.7-1.1-1.3-0.4-2.1
		c0.6-0.4,1.2-0.4,1.8-0.2c1.2,0.6,1.1,1.8,1.2,2.8c0.2,2.2,0.9,4.2,1.9,6.2c0.3,0.7,0.8,1.4,1.1,2.1c0.1,0.6-0.2,1.1-0.5,1.5
		c-0.4,0.4-0.9,0.7-1.5,0.4c-0.1-0.1-0.2-0.2-0.1-0.4C77.9,136,77.8,135,76.9,134.4z"/>
	<path class="st17" d="M82.3,144.7c-1.2-1.7-2.6-3.2-3-5.4c-0.3-0.5,0-0.8,0.4-1c1.9,0,2.2,1.7,2.9,3c0.1,0.4,0.2,0.8,0.2,1.2
		C82.7,143.3,83.1,144.1,82.3,144.7z"/>
	<path class="st18" d="M82.3,144.7c0.3-0.6-0.6-1.3,0.1-2c1.6,0,2,1.4,2.8,2.4c0.2,0.4,0.3,0.8,0.4,1.3c0.1,0.8,0.6,1.7-0.2,2.5
		c-0.5-0.5-1.1-1-1.6-1.4C83.7,146.3,82.2,145.9,82.3,144.7z"/>
	<path class="st19" d="M74.5,127.2c0.1-0.2,0.1-0.4,0.2-0.6c0.9,1.3,1.2,2.7,1,4.3C75,129.8,74.8,128.5,74.5,127.2z"/>
	<path class="st20" d="M80,138.6c-0.2,0.3-0.4,0.5-0.7,0.8c-0.6-0.5-0.9-1.2-1.1-2c0.4-0.2,0.8-0.4,1.2-0.6
		C80.2,137.2,80.6,137.7,80,138.6z"/>
	<path class="st19" d="M76.9,134.4c1.4,0.4,1.4,1.4,1.3,2.6C77.7,136.1,77.3,135.3,76.9,134.4z"/>
	<path class="st21" d="M119,60.6c0.8,0.4,1.6,0.8,2.4,1.2c0.2,0.3,0.2,0.5-0.1,0.8c-1.1,0.5-2.1-0.1-3.1-0.1
		c-0.9-0.2-1.8-0.5-2.7-0.9c-5.1-2-10.3-2.6-15.6-1.5c-0.9,0.2-1.9,0.6-2.9,0.2c-0.3-0.2-0.4-0.5-0.2-0.8c4.1-1.9,8.4-1.1,12.6-1.2
		C112.7,58.5,116,59,119,60.6z"/>
	<path class="st22" d="M119,60.6c-3.2-0.8-6.4-1.6-9.6-2.4c-2.7-1.3-5.6-0.3-8.4-0.6c2.5-1.3,5.2-0.2,7.8-0.6
		c1.2,0.4,2.4,0.7,3.6,1.1c2.5,0.3,4.9,0.9,7.2,2C119.4,60.2,119.2,60.4,119,60.6z"/>
	<path class="st11" d="M81.2,68.4c0-0.2,0.1-0.4,0.1-0.6c2.1-0.8,4.2-1.7,6.4-1.8c0.8,0,1.3-0.4,1.5-1.1c0.1,0.2,0.3,0.4,0.4,0.6
		c0.4,0.4,0.4,0.8,0.2,1.3c-0.2,0.4-0.6,0.7-1,0.9c-2,0.5-3.8,1.4-5.9,1.4C82.2,69.1,81.6,69,81.2,68.4z"/>
	<path class="st23" d="M89.6,66.6c0-0.4,0-0.7,0-1.1c1.8-2.7,3.8-5.2,7.2-6c0,0.2,0,0.4,0,0.6c0.1,1.5-1.5,1.6-2.2,2.4
		c-1.1,1.1-2.3,2.1-3.1,3.5C91,66.6,90.5,67.3,89.6,66.6z"/>
	<path class="st24" d="M135.2,72c1.1,2,3.4,2.1,5,3.4c1.4,1.1,2.6,2.2,3.4,3.9c-1.1,0.8-1.9-0.2-2.9-0.3c-1.3-0.2-2.6-0.1-3.8-0.9
		c-1.6-0.9-2.8-2.5-4.1-3.5c-2.8-2-5.3-4.7-8.9-5.4c-3.3-1.3-6.6-2.5-10.1-3.3c-0.9-0.2-2.1-0.4-2-1.7c0.8-0.7,1.8-0.7,2.7-0.5
		c0.9,0.2,1.8,0.4,2.6,0.7c4.5,1.3,9,2.5,13,5c0.8,0.5,1.6,0.8,2.5,0.8c0.3,0,0.6,0.1,0.9,0.1C134.4,70.4,135.4,70.7,135.2,72z"/>
	<path class="st25" d="M137,77.4c1.3,0.8,2.8,0.6,4.2,0.6c0.8,1.2,1.8,2.2,3,3c-0.1,0.8,0.3,1.8-0.6,2.4c-0.9,1.4-2.1,1.2-3,0.3
		c-3.3-3.3-8-3.8-11.6-6.5c-1.5-1.1-3.4-1.8-3.5-4c0.3-0.3,0.7-0.5,1.2-0.4C130,74.4,133.2,76.5,137,77.4z"/>
	<path class="st26" d="M125.6,73.2c2.3,3.5,6.3,4.7,9.7,6.5c1.9,1,4.1,1.2,5.4,3.3c0.6,0.9,1.8,1.1,2.9,0.4c0,0.4,0,0.9,0.1,1.3
		c0,0.2-0.1,0.3-0.2,0.5c-0.2,0.6-0.6,0.9-1.3,0.9c-1,0-2,0-2.7-0.8c-2.4-2.6-5.6-3.9-8.5-5.7c-0.7-0.5-1.3-1-2-1.4
		c-2.9-1.6-5.6-3.5-8-5.8c-0.8-0.8-2.6-1-2.1-2.8c1.8-0.9,2.9,1,4.4,1.2C124.3,71.3,125.3,71.9,125.6,73.2z"/>
	<path class="st27" d="M144.2,81c-2.8,0.8-2.1-1.9-3-3c0.8,0.3,1.4,1.3,2.4,1.2C144.3,79.6,144.2,80.3,144.2,81z"/>
	<path class="st28" d="M135.2,72c-0.4-0.7-1-1.1-1.8-1.2c-0.4-0.4-0.4-0.8-0.1-1.2c1.8-0.5,2.5,1.2,3.7,1.9c0.2,0.4,0.4,0.8,0.6,1.3
		C136.7,72.5,136,72.2,135.2,72z"/>
	<path class="st29" d="M88.8,152.4c-0.6-0.2-0.9-0.5-1.1-1.1c-0.2-1.3-1.8-1.8-1.9-3.1c1.5-0.5,0.4-2.1,1.2-2.9
		c0.2-0.2,0.5-0.3,0.8-0.3c0.8,0.3,1.3,0.8,1.6,1.6c0.1,0.3,0.2,0.6,0.3,0.9c0.1,1,0.5,1.9,0.5,2.8
		C90.2,151.3,90.5,152.5,88.8,152.4z"/>
	<path class="st30" d="M88.8,152.4c2-1.8-0.4-3.7,0.2-5.5c0.2-0.2,0.5-0.3,0.9-0.2c1.3,0.7,1.3,2,1.7,3.2c0.2,1.2,0.9,2.5-0.2,3.6
		c-0.6-0.2-1.2-0.7-2-0.5C89.2,152.8,89,152.6,88.8,152.4z"/>
	<path class="st31" d="M86,148.2c0.4,1.1,2,1.7,1.7,3.2c-0.8-0.8-1.6-1.6-2.4-2.5c-0.2-0.8-0.4-1.7-0.5-2.5c0.4-0.4,0.9-0.3,1.3,0
		C86.6,147,86.5,147.6,86,148.2z"/>
	<path class="st32" d="M136.9,71.5c-1.5,0-2-1.9-3.6-1.8c-1.7,0-2.9-0.5-3-2.4c0.4,0,0.8,0,1.2,0c1.2,0.6,2.4,1.2,3.5,1.9
		c0.8,0.8,1.6,1.6,2.4,2.3C137.4,71.4,137.2,71.4,136.9,71.5z"/>
	<path class="st33" d="M149.5,121.2c-2.6-0.2-4.1,2.4-6.6,2.4c-0.3-0.3-0.4-0.7-0.4-1.2c0.2-1.2,0.4-2.5,0.8-3.7
		c0.2-0.6,0.3-1.5,1-1.6c0.9-0.1,1,0.8,1.1,1.4c0.4,1.7,1.3,1,2.1,0.4c0.8-0.7,1.2-1.7,1.7-2.6c0.4-0.4,0.8-0.8,1.4-0.5
		c0,0.8,0,1.6,0,2.4C150,119,150.4,120.3,149.5,121.2L149.5,121.2z"/>
	<path class="st34" d="M150.8,115.8c-0.4,0.2-0.8,0.4-1.2,0.6c-0.1-0.1-0.2-0.2-0.3-0.3c-0.9-1.7,0-3.7-1.1-5.3
		c-0.6-1.1-1.4-2-2.6-2.5c-1-0.7-2.2-1.2-1.4-2.8c0.5-0.3,0.9-0.2,1.3,0.1c1,0.4,1.9,0.9,2.9,1.3
		C149.9,109.6,151.5,112.4,150.8,115.8z"/>
	<path class="st2" d="M149.5,121.2c0-1.1-0.1-2.4,1.2-3c0,0.4,0,0.8,0,1.2C150.7,120.2,150.4,120.9,149.5,121.2z"/>
	<path class="st35" d="M143,122.4c0,0.4,0,0.8,0,1.2c-0.2,0.4-0.4,0.8-0.6,1.1c-1.5-2.1-0.5-4.5-0.8-6.8c0-0.9,0-1.7,0.2-2.6
		c0.5-1.2,0.2-2.7,1.1-3.8c0.4-0.1,0.7-0.1,0.9,0.2c0.7,1.1,0.5,2.4,0.6,3.6C143.9,117.6,143.3,120,143,122.4z"/>
	<path class="st36" d="M142.4,117.6c0,2.4,0,4.8,0,7.1c0,0.2,0,0.4,0.1,0.7c-0.2,0.4-0.4,0.8-0.6,1.1c-0.3-0.3-0.6-0.7-0.7-1.2
		c-0.1-1-0.1-2.1-0.5-3.1c-0.2-0.8-0.2-1.6-0.2-2.4C140.6,118.7,140.7,117.5,142.4,117.6z"/>
	<path class="st37" d="M71.6,97.2c0.2-3.6-0.3-7.3,0.7-10.8c1.5-1.2,1-4.1,3.7-4.2c0.6,1,0,2,0,3c-0.1,0.6-0.3,1.1-0.7,1.6
		c-1.1,1-0.9,2.6-1.6,3.7c-1.3,1-0.4,2.3-0.5,3.5c-0.2,1.4,0.2,2.9-0.5,4.3c-0.2,0.2-0.5,0.3-0.8,0.2C71.7,98,71.6,97.6,71.6,97.2z"
		/>
	<path class="st38" d="M65.6,118.2c-1.4-2.8,0.1-5.5,0.1-8.3c1.2-0.1,1.2-1.6,2.3-1.9c0.4,0.3,0.5,0.7,0.5,1.2
		c-0.1,1-0.7,1.9-1.1,2.8c-1.4,2.8-0.7,5.1,1.4,7.3c0.5,0.5,1.2,1,1.2,2c-0.2,0.2-0.5,0.3-0.7,0.1C67,121.4,66.9,119.1,65.6,118.2z"
		/>
	<path class="st39" d="M68,109.2c0-0.4,0-0.8,0-1.2c0.7-1.9,3.3-1.7,4.1-3.5c0.1-0.1,0.2-0.2,0.4-0.3c0.3,0,0.5,0.2,0.7,0.4
		c0.5,1.3,0,2.3-1.1,3c-1.1,0.5-2.1,1.2-3.2,1.7C68.5,109.4,68.2,109.4,68,109.2z"/>
	<path class="st39" d="M71.7,98.4c0.1,0,0.3,0,0.4,0c1.4,1.9,1.2,3.9,0.2,5.8c0,0-0.2,0.2-0.2,0.2C71.3,102.5,71.8,100.5,71.7,98.4z
		"/>
	<path class="st40" d="M145.4,105.6c-0.4,0-0.8,0-1.2,0c-0.3,0.1-0.5,0.1-0.7-0.2c-0.2-0.6,0-1.1,0.1-1.6c0.2-0.3,0.3-0.8,0.9-0.6
		c0.1,0,0.2,0,0.4,0C144.7,104.1,144.9,104.9,145.4,105.6z"/>
	<path class="st41" d="M144,104.3c-0.1,0.4-0.2,0.8-0.3,1.3c-0.2,0.1-0.3,0.2-0.5,0.3c-0.6,0.1-1,0-1.3-0.6c0.1-6-2.1-11.9-0.9-18
		c0.2-0.7,0.6-1.3,1.4-1.5c0.4-0.2,0.7-0.4,1.1-0.6c0,0.6,0.1,1.2,0.1,1.8c0.1,2.8,0.2,5.7,0.4,8.5
		C143.8,98.4,143.7,101.4,144,104.3z"/>
	<path class="st42" d="M144,104.3c-0.7-2.9-0.7-5.9,0-8.8c0.2,2.6,0.3,5.1,0.5,7.7C144.3,103.6,144.2,103.9,144,104.3z"/>
	<path class="st43" d="M129.9,151.2c-0.3,0-0.5-0.1-0.8-0.1c0-0.4,0-0.8,0-1.2c-1.8-2.5-2.4-5.9-6-7c-1.3-0.4-1.3-1.9-1.4-3.1
		c-0.2-2.2,0.3-4.4-0.7-6.4c-0.1-0.3-0.1-0.5-0.1-0.8c0.3-2.1-1-2.8-2.8-3c-0.4-0.1-0.9-0.2-1.3-0.3c-1.3-0.9-3.5-0.4-4.1-2.5
		c0.9-1.4,2.2-1,3.5-0.8c2.9,1.3,6.6,1.3,7.9,5c0.8,1.9,0.5,3.9,0,5.8c-0.4,1.6-0.6,2.8,1.5,3.7c1.9,0.8,2.5,3.2,3.9,4.7
		c0.9,1.2,1.4,0,2.1-0.4c0.4-0.5,0.8-1.1,1.4-1.6c0.5-0.3,1-0.9,1.5-0.3c0.5,0.5,0.3,1.1-0.1,1.6l0,0c-0.9,0.8-1.2,1.9-1.9,2.9
		C131.4,148.4,131.4,150.4,129.9,151.2z"/>
	<path class="st44" d="M132.8,147.5c-0.1-1.4,0.6-2.4,1.9-2.9c-0.3,0.7-0.5,1.5-0.8,2.2C133.5,147.1,133.1,147.3,132.8,147.5z"/>
	<path class="st45" d="M69.2,121.2c0.2,0,0.4,0,0.6,0c1.4-0.4,3.1-2.8,4,0.6c0.1,0.4,0,0.8-0.3,1.2c-1,1-2,1-3,0.1
		C70,122.4,69.1,122.1,69.2,121.2z"/>
	<path class="st44" d="M134.6,144.6c-0.3-0.3,0.5-2.3-1.1-0.8c-0.6,0.5-0.9,1.3-1.4,1.9c-2.8-0.8-2-3-2.2-4.9
		c0.6-0.9,1.2-0.8,1.9-0.2c1.6,1.3,1.8,0.2,1.7-1.1c0.8-2.1,1.9-4,2.8-6c0.7-1.6,1.3-3.2,1.4-5c0.4-0.6,1.1-0.8,1.7-1.2
		c0.5-0.2,1-0.5,1.6-0.2c0,0.6,0,1.2,0,1.8c-0.9,1.7-0.9,3.7-1.7,5.5l0,0c-1.2,1.8-1.4,4-2.5,5.8c-0.2,0.8-0.5,1.6-0.7,2.4
		C135.7,143.3,135.2,144,134.6,144.6z"/>
	<path class="st46" d="M141.2,127.2c-0.4,0.2-0.8,0.4-1.2,0.6c-0.8-1-0.4-1.8,0.4-2.5c0.5-0.2,0.9-0.2,1.4,0.1c0,0.4,0,0.8,0,1.2
		C141.6,126.7,141.4,127,141.2,127.2z"/>
	<path class="st47" d="M118.4,61.8c1,0.2,2,0.4,3,0.6c1.2-0.1,2,0.7,3,1.2c0.2,0.2,0.4,0.4,0.6,0.5c1.3-0.1,2.3,0.3,2.6,1.7
		c-0.2,0.2-0.4,0.4-0.7,0.5c-2.6-0.1-4.3-2.3-6.8-2.8c-0.3-0.1-0.5-0.2-0.7-0.3C118.9,62.9,118.1,62.7,118.4,61.8z"/>
	<path class="st48" d="M127.4,66c-0.5-1.1-1.6-1.3-2.4-1.8c0.3-0.5,0.7-0.6,1.2-0.6c0.6,0.4,1.2,0.8,1.8,1.2
		c0.2,0.4,0.4,0.8,0.6,1.3C128.2,66.4,127.8,66.3,127.4,66z"/>
	<path class="st49" d="M124.4,63.6c-1-0.4-2-0.8-3-1.2c0-0.2,0-0.4,0-0.6C122.6,62,123.8,62.4,124.4,63.6z"/>
	<path class="st50" d="M127.4,66c0.4,0,0.8,0,1.2,0c0.4,0.7,1,1.2,1.8,1.2c0.7,1.2,2,1.6,3,2.4c0,0.4,0,0.7,0.1,1.1
		c-0.2,0-0.4,0.1-0.6,0.1c-1.5-0.8-3-1.7-4.5-2.6c-0.7-0.6-1.9-0.8-1.6-2.1C127,66,127.2,66,127.4,66z"/>
	<path class="st51" d="M81.2,68.4c0.6,0,1.2,0,1.8,0c0,1.6-0.9,2.3-2.4,2.4c-0.6,0.2-1.2,0.4-1.8,0.6c0.4-0.6,0.8-1.3,1.2-1.9
		C80.2,68.9,80.6,68.6,81.2,68.4z"/>
	<path class="st46" d="M138.6,137.9c-0.6,0.8-1.1,1.5-1.7,2.3c0.4-2.1,0.9-4.2,2.5-5.8"/>
	<path class="st52" d="M75.8,82.2c-1.9,0.8-0.9,4-3.5,4.2c0-0.8,0-1.5,0.1-2.3c0.2-0.2,0.3-0.5,0.5-0.7c3.3-2.8,4.3-7.2,7.2-10.2
		c0.3-0.2,0.5-0.2,0.8,0c0.2,0.2,0.3,0.5,0.3,0.8c-0.2,2.2-2.6,3.3-2.9,5.4C77.7,80.6,77.1,81.7,75.8,82.2z"/>
	<path class="st53" d="M80.6,73.2c-0.2,0-0.4,0-0.6,0c0.2-0.8,0.4-1.6,0.6-2.4c0.8-0.8,1.6-1.6,2.4-2.4c2.1,0,3.9-1.4,6-1.2
		c0.2,0.2,0.2,0.5,0.2,0.8c-0.2,0.4-0.5,0.7-0.9,0.9c-2,0.5-3.9,1.2-5.3,2.8C82.2,72.2,81.6,73,80.6,73.2z"/>
	<path class="st54" d="M124.4,147.6c-2.3,0.3-4,1.3-4.8,3.6c-0.4,0.3-0.8,0.4-1.2,0.2c-1.3-2.5-3.5-3.8-6-4.8
		c-0.8-2.3-2.1-3.9-4.9-3.1c-0.7,0-1.4-0.1-2-0.5c-0.3-1.4-2-2.3-1.5-4c0.5-0.4,1-0.4,1.6-0.3c0.4,0.1,0.8,0.3,1.2,0.5
		c1.3,0.6,2.6,0.4,3.9,0c0.4-0.1,0.8-0.2,1.2-0.2c1.7,0.4,3.3-0.6,5-0.1c1.3,0.3,2.4,0.3,1.9,2.4c-0.7,2.9,1.1,4.3,4,3.8
		C124.7,144.7,125,145.1,124.4,147.6z"/>
	<path class="st55" d="M124.4,147.6c-0.2-1.1,0.6-3.1-1.9-1.5c-1.3,0.9-2.9,0.9-3.5-0.7c-0.7-1.7-2.5-3.4-0.7-5.4
		c-2.1-0.7-4.3,0-6.5-0.2c0.3-1.9,2.1-2,3.3-2.9c0.7-0.2,1.3-0.5,2.1-0.3c2.7,1.3,2.6-0.9,3-2.4c0.2-0.5,0.4-1.1,1.2-0.9
		c0.3,0.5,1.3,0.2,1.2,1.3c-0.2,1.9,0,3.9,0,5.9c0,1,0.1,2.1,1.4,2.3c4.1,0.8,4.1,4.4,5.2,7.3C127.9,148.5,126.1,148.2,124.4,147.6z
		"/>
	<path class="st56" d="M120.8,155.4c-0.2,0-0.4,0-0.6,0c-1.4,0.4-2.8,1-4.4,0.8c-1.4-2.3-4.2-3.1-5.9-5c2-1.5,4,0.2,6-0.2
		c0.8,1.4,2,2.1,3.6,1.4c0.4,0,0.8,0,1.2,0c1-0.6,1.5,0,1.7,0.9C122.7,154.6,121.7,154.9,120.8,155.4L120.8,155.4z"/>
	<path class="st57" d="M120.8,155.4c0.7-1,2.5-2,0-3c1.8-2,4.5-0.7,6.7-1.8C125.4,152.4,123.6,154.6,120.8,155.4z"/>
	<path class="st57" d="M119.6,152.4c-0.3,1.6-1.6,1.2-2.5,1.1c-1.4-0.2-1-1.4-1.1-2.3c0.3-0.4,0.7-0.5,1.2-0.5
		c0.4,0.1,0.9,0.2,1.2,0.5c0.4,0,0.8,0,1.2,0C119.6,151.6,119.6,152,119.6,152.4z"/>
	<path class="st58" d="M116,157.7c-0.8-1-2-0.4-3-0.6c-0.1-1.3,1-1.2,1.8-1.6c0.5-0.1,0.9,0,1.2,0.4c1.3-0.8,2.7-1.4,4.2-0.6
		c-0.4,0.6-0.8,1.2-1.2,1.8C118,157.3,117,157.5,116,157.7z"/>
	<path class="st59" d="M96.8,157.2c-0.4,0-0.8,0-1.2-0.1c-0.6-0.7-1.4-1-2.3-1.3c-0.4-0.6-0.9-1.1-1.3-1.7c-0.3-1.3,0.2-1.7,1.4-1.5
		c1.5,1.1,3,2.3,4.8,2.8c0.6,0.5,1.7,0.5,1.5,1.7C98.8,157.2,97.8,157.2,96.8,157.2z"/>
	<path class="st60" d="M93.2,153c-1.1-0.3-0.7,0.9-1.2,1.2c-0.2-0.2-0.4-0.4-0.6-0.6c0.2-1.3-0.4-2.4-0.6-3.6
		c0.3-0.3,0.7-0.4,1.2-0.3c0.8,0.6,1.8,0.9,2.1,1.9C94.1,152.3,93.8,152.8,93.2,153z"/>
	<path class="st61" d="M76.4,127.8c-0.1-1,0.4-2.2-0.6-3c-0.7-0.6-1-1.4-1.1-2.3c0-0.6,0.2-1.2,0.8-1.4c0.5,0,0.8,0.2,1.1,0.6
		c1.2,1.9,1.8,4.2,3.6,5.7c0.6,0.7,1.4,1.3,1.8,2.1c0.1,0.3,0.1,0.5,0.1,0.8c0,0.3-0.1,0.5-0.2,0.8c-0.8,0.9-0.2,2-0.4,3.1
		c-0.1,0.9,0,2.2-1.6,1.5c-0.8-0.3-1.2-0.9-1.2-1.8C78,131.8,78.1,129.4,76.4,127.8z"/>
	<path class="st19" d="M80,135.6c1.6-0.4,1-1.6,0.8-2.6c-0.2-1-0.5-2,1-2.2c1.5,1.8,0.3,4.2,1.2,6.1c0.1,1.6,0.6,3.3-0.6,4.7
		c-1.1-0.8-1-2.5-2.4-3c-0.2-0.6-0.4-1.2-0.6-1.8C79.6,136.4,79.8,136,80,135.6z"/>
	<path class="st19" d="M76.4,127.8c2.3,1.4,2.7,3.5,2.4,6C77.2,132.1,77,129.9,76.4,127.8z"/>
	<path class="st62" d="M75.2,122.4c0.4,0.7,0.7,1.5,0.6,2.4c-0.6,0-1.2,0-1.8,0c0-0.6,0-1.1,0-1.7c-0.3-1-0.6-1.9-0.2-2.9
		C76,119.7,74.3,121.9,75.2,122.4z"/>
	<path class="st63" d="M74,120c0,1,0,2.1,0,3.1c-0.2-0.1-0.4-0.1-0.5-0.2c0-0.4,0-0.8,0-1.2c-1.5-3.2-1.7-6.5-1.4-9.9
		c0-0.7,0.1-1.4,0.6-2c2.6,0.4,1,2.8,1.9,4.1c0.1,0.5,0.2,1,0.2,1.5C74.7,117,75.2,118.6,74,120z"/>
	<path class="st64" d="M82.4,141.6c0-1.6,0-3.2,0-4.8c2.1,0.4,0.8,2.6,1.8,3.6c0.2,0.2,0.3,0.5,0.5,0.8c0.4,1.3,1.2,2.6,0.1,4
		c-1.2-0.4-1.5-1.7-2.4-2.4C82.4,142.4,82.4,142,82.4,141.6z"/>
	<path class="st65" d="M84.8,145.2c-0.2-1.4-0.4-2.8-0.6-4.2c-0.6-2.2-0.2-4.5-0.3-6.7c-0.2-2,1.4-2.8,4.2-2.6
		c0.3,0.2,0.5,0.4,0.5,0.8c-2,2.3-2.6,5-2.3,7.9c0.4,1.2,0.5,2.5,0.5,3.8c-0.1,0.8-0.1,1.7-0.8,2.3c-0.4,0-0.8,0-1.2,0
		C84.8,146,84.8,145.6,84.8,145.2z"/>
	<path class="st66" d="M118.4,61.8c0.4,0.4,0.8,0.8,1.2,1.2c-2.2,0.9-4.5,0.1-6.7,0.6c-0.3,0-0.6-0.1-0.9-0.2
		c-3.6-2.4-7.6-1.3-11.5-1.7c-0.9-0.1-2,0.4-2.6-0.8c2.8-2.6,6.3-2,9.5-1.7c2.9,0.2,5.9,0.8,8.6,2C116.8,61.4,117.6,61.6,118.4,61.8
		z"/>
	<path class="st67" d="M116,61.2c-4-0.4-7.8-2.1-11.9-1.8c-2.2,0.1-4.3,0.3-6.1,1.8c-0.9,1-2.2,1.3-3.2,2.2
		c-1.2,0.9-1.8,2.1-2.2,3.5c-0.1,0.3-0.2,0.5-0.3,0.7c-0.5,0.8-1,1.3-2,1.2c-0.6-0.1-1-0.4-1.2-1.1c0-0.2,0-0.4,0-0.6
		c0.2-0.2,0.4-0.4,0.6-0.6c2.3-2.3,4.2-5.1,7.2-6.6c5.7-1.9,11.5-1.4,17.2,0C114.7,60.3,115.5,60.5,116,61.2z"/>
	<path class="st68" d="M125.6,73.2c-0.8-0.6-1.6-1.2-2.4-1.8c-7.3-5.2-15.5-7-24.4-5.8c-1.4,0.2-2.7,0.6-3.7,1.7
		c-0.6,0.6-1.1,1.5-2,1.8c-0.3,0-0.6-0.1-0.8-0.4c0-2.3,1-4.1,3-5.1c4.4-0.8,8.8-1.4,13.2-0.8c1.2,0.2,2.4,0.4,3.2,1.4
		c1.6,1.5,3.9,1.3,5.8,1.8c2.4,0.6,4.4,2,6.8,2.4c0.7,1.6,2.8,2.6,2.4,4.8C126.4,73.2,126,73.2,125.6,73.2z"/>
	<path class="st69" d="M126.8,73.2c-0.3-1.8-3-2.5-2.4-4.8c2.2,1.3,5.2,1.6,6.4,4.3c3.7-0.7,3.2,4.4,6.2,4.7
		C132.8,77.9,129.9,75.3,126.8,73.2z"/>
	<path class="st70" d="M128.6,67.8c1.5,0.8,3.1,1.5,4.2,3c-0.6,0-1.3,0.2-1.7-0.1c-4.2-2.9-9.2-3.9-13.9-5.9
		c0.4-1.1,1.3-1.6,2.4-1.5C123,64,125.4,66.7,128.6,67.8z"/>
	<path class="st70" d="M111.8,64.2c-5.6-1.7-11.2-0.3-16.8,0c-0.3-2.2,1.6-2.1,2.7-2.2c4.9-0.3,9.9-0.8,14.7,1l0,0
		c0.6,0.9,2.3-0.5,2.4,1.2C113.8,64.2,112.8,64.2,111.8,64.2z"/>
	<path class="st71" d="M114.8,64.2c-0.5-1-1.9-0.2-2.4-1.2c2.4-0.2,4.8-0.9,7.2,0c0,0,0,0,0,0c0.2,0.1,0.3,0.3,0.2,0.4
		c-0.1,0.1-0.1,0.2-0.2,0.2c-0.8,0.4-1.6,0.8-2.4,1.2C116.4,64.7,115.4,65.1,114.8,64.2z"/>
	<path class="st72" d="M93.2,69c0.4-0.6,0.8-1.2,1.2-1.8c5.6-3.4,11.3-2.6,17.1-0.7c1.3,0.4,2.7,0.6,4.1,0.7
		c1.6,0.2,2.9,0.7,3.4,2.4c0,1.6,1.8,1.4,2.4,2.4c-0.5,0.6-1.1,0.7-1.8,0.7c-0.9,0-1.6-0.3-2.3-0.9c-1.2-1.7-3.2-2.2-5-2.4
		c-5.2-0.8-10.5-1.2-15.8-0.5c-0.2,0.2-0.5,0.3-0.7,0.5c-0.9,0.4-1.6,1.4-2.7,0.8C92.8,69.8,92.8,69.4,93.2,69z"/>
	<path class="st73" d="M119,69.6c-1.2-1-2.4-1.6-4.2-1.6c-3.6,0-6.7-2.3-10.5-2.2c-2.8,0-5.4-0.7-7.9,1.2c-0.5,0.4-1.3,0.2-2,0.2
		c3-3.4,7-3.1,10.9-2.8c3.2,0.3,6.4,0.9,9.5,1.7c3.3,0.9,6.1,2.7,8.3,5.3C121.5,71.4,120.6,69.7,119,69.6z"/>
	<path class="st74" d="M142.4,85.8c-0.2,0.4-0.4,0.8-0.6,1.2c-0.2,0.2-0.4,0.3-0.7,0.3c-0.7,0-1.3,0.1-1.9-0.3
		c-1-1.6-2.4-2.8-4.2-3.6c-0.5-0.3-0.9-0.6-1.4-0.9c-1.1-0.8-2.4-1.4-2.8-3c0-0.1,0.1-0.3,0.1-0.4c3.1,1.2,6.3,2.5,8.4,5.2
		C140.3,85.6,141.6,84.9,142.4,85.8z"/>
	<path class="st75" d="M119.6,72c0.6,0,1.2,0,1.8,0c2.6,2,5.2,4,7.8,6c-0.1,0.1-0.2,0.2-0.3,0.3c-0.6,0.3-1.1,0.2-1.7-0.1
		c-2.5-1.1-4.5-3-6.6-4.6C120,73.3,119.3,72.9,119.6,72z"/>
	<path class="st75" d="M129.2,78c0.9,0,1.5,0.4,1.8,1.2c0,0,0,0,0,0c-0.6,0.5-1.1,0.5-1.8,0.1C128.9,78.9,128.8,78.5,129.2,78
		L129.2,78z"/>
	<path class="st76" d="M89.6,147l-0.3,0c0,0-0.3,0-0.3,0c0-0.2,0-0.4,0-0.6c-1.3-2.5-0.8-4.7,1.5-6.6c2.3-0.2,3.9-2.9,6.6-2.1
		c0.9,0.4,0,2.3,1.6,2.1c1.3,1.6,1.9,3.6,3.2,5.2c0.7,2,2.3,3.2,3.6,4.7c1.1,1.2,3.1,1.6,3.5,3.5c0,0.3-0.2,0.6-0.5,0.7
		c-1,0.5-2.1,0.4-3.2,0.1c-1.8-0.9-3.3-2-4.2-3.9c-1.2-2.6-2.5-5.1-4.7-7.1c-1.8-1.7-2.9-1.2-4.5,0.2
		C90.9,144.4,90.7,145.9,89.6,147z"/>
	<path class="st77" d="M87.8,145.2c-0.2,0-0.4,0-0.6,0c-0.1-0.1-0.2-0.2-0.3-0.3c-0.2-4.4-0.9-8.9,2.5-12.6c0.2-0.2,0.4-0.5,0.7-0.6
		c1.1-0.5,2-1.5,3.3-0.7c0.2,0.4,0.2,0.9,0,1.3C91.4,136.5,89,140.6,87.8,145.2z"/>
	<path class="st78" d="M87.8,145.2c0-5.1,2.8-9.1,5.4-13.2c0.6,3.2-0.6,5.9-2.4,8.4c-1.9,1.6-2.3,3.7-1.8,6
		C88.4,146.1,88,145.7,87.8,145.2z"/>
	<path class="st79" d="M86,146.4c0-0.8,0-1.6,0-2.4c1.2-0.4,0.7,0.9,1.2,1.2c0,0,0,0,0,0c0.1,0.7,0,1.4,0.2,2.1
		c0.8,2.2-1,0.6-1.4,0.9C86,147.6,86,147,86,146.4z"/>
	<path class="st80" d="M89.6,147c-0.2-3.1,2.4-4.3,4.1-6.1c0.5-0.5,1.1-0.3,1.6,0.2c2.8,2.5,5.5,5,6.3,9c-1.3,0.8-1.8-0.2-2.3-1
		c-0.4-0.7-0.6-1.5-1.2-2c-1.2-0.8-2.5-1.2-3.9-0.8c-2.1,0.6-0.9,2.5-1.4,3.8c-0.2,0.2-0.5,0.2-0.7,0c-0.4,0-0.8,0-1.2,0
		C90.5,148.9,90.4,147.8,89.6,147z"/>
	<path class="st81" d="M143,122.4c0.2-2.4,0.4-4.8,0.6-7.2c0.6-0.7,0-1.7,0.5-2.5c1.1-0.2,1.7,0.5,2.2,1.2c0.2,0.4,0.3,0.8,0.4,1.3
		c0,1.6,0.1,3.2,1.7,4.2c-3.2,1.8-3.2,1.8-3.8-2C143.9,119.2,143.5,120.8,143,122.4z"/>
	<path class="st82" d="M148.4,119.4c-3.3,0.1-2.1-2.5-2.4-4.2c1-0.3,1.2,0.5,1.5,1.1c0.2,0.3-0.1,1.9,1,0.4c0.2-0.3,0.6-0.5,1-0.3
		c0,0,0.1,0,0.1,0C149.8,117.6,148.9,118.4,148.4,119.4z"/>
	<path class="st83" d="M149.5,116.4c-0.2,0.2-0.4,0.4-0.6,0.6c-0.4,0.5-0.7,1.5-1.4,1.2c-0.7-0.2-0.2-1.2-0.4-1.9
		c-0.4-0.7-0.5-1.4-0.3-2.1c0.9-0.2,1.8-0.3,1.3-1.7c-0.2-0.6-0.3-1.3,0-2c0.1-0.1,0.2-0.2,0.3-0.3
		C150.5,112.1,149.2,114.4,149.5,116.4z"/>
	<path class="st84" d="M143.7,105.6c0.1,0,0.3,0,0.4,0c-0.1,1.4,1.3,1.6,1.8,2.4c-0.1,0.1-0.2,0.2-0.3,0.3c-0.9,0.4-1.7,0-2.3-0.7
		c-0.2-0.4-0.3-0.8-0.3-1.2c0.1-0.3,0.2-0.5,0.4-0.7L143.7,105.6z"/>
	<path class="st84" d="M146,108c1.4,0.2,2.1,1.1,2.5,2.4c0,0-0.1,0-0.1,0C146.7,110.4,145.9,109.6,146,108L146,108z"/>
	<path class="st85" d="M142.4,117.6c-1.1,0.5-1.2,1.4-1.2,2.4c-2.3-0.8-1-2.9-1.5-4.3c0.4-3.7-0.6-7.4,0.6-11
		c1.4,0.1,1.4,0.1,1.7,2.8c-0.1,1.7,0.3,3.4-0.4,5c-0.2,0.4,0-0.2,0,0.2c0,0.2,0.3,0.1,0.5-0.1c0.3,0,0.5,0.2,0.6,0.5
		c0,0.7,0.2,1.5-0.3,2.1C142.4,116,142.4,116.8,142.4,117.6z"/>
	<path class="st86" d="M142.4,115.2c0-0.8,0-1.6,0-2.4c-1-1.5-0.4-3.1-0.6-4.7c0.1-0.9-0.2-1.8,0.6-2.5c0.4,0,0.7,0,1.1,0
		c0,0.2,0,0.4,0,0.6c-0.6,1.8,1.1,3.8-0.6,5.4C142.8,112.8,143.4,114.1,142.4,115.2z"/>
	<path class="st87" d="M143,111.6c0.3-1.8-0.6-3.7,0.6-5.4c0,0.4,0.1,0.8,0.1,1.2c0.3,0.6,0.6,1.1,0.8,1.7c0,0.3,0,0.5,0,0.8
		c-0.2,0.6-0.3,1.3-0.9,1.7C143.3,111.6,143.1,111.6,143,111.6z"/>
	<path class="st88" d="M143.5,111.6c0.1-0.6-0.1-1.4,0.6-1.8c0.4,0.3,0.6,0.8,0.6,1.3c0,0.7-0.1,1.3-0.6,1.7
		c-0.1,0.8,0.2,1.7-0.6,2.4C143.6,114,143.5,112.8,143.5,111.6z"/>
	<path class="st89" d="M140.5,115.7c0.4,1.4-0.5,3,0.7,4.3c0,0.8,0,1.6,0,2.4c0.2,0.1,0.2,0.3,0.2,0.5c0,0.2-0.1,0.3-0.1,0.3
		c-1.2,0.4-1.9-0.5-2.8-0.9c-0.2-0.4-0.2-0.8-0.1-1.3C139.2,119.2,138.4,116.8,140.5,115.7z"/>
	<path class="st90" d="M141.2,123c0-0.2,0-0.4,0-0.6c1,0.8,0.5,2,0.6,3c-0.4,0-0.8,0-1.2,0C139.7,124.3,140.2,123.6,141.2,123z"/>
	<path class="st75" d="M93.2,70.2c0.8-0.3,1.4-1.3,2.4-1.2c0.3,1.7-1.6,2.4-1.9,3.8c-0.6,0.9-1.3,1.6-2,2.4
		c-0.6,0.5-0.8,1.3-1.2,1.9c-1.5,1.5-3.2-0.3-4.7,0.3c-2-0.1-3.3,1-4.4,2.5c-2.1,2.8-4,5.6-5.2,8.9c-0.3,0.8-0.3,2.2-1.8,1.6
		c-0.5-0.7-0.3-1.5-0.3-2.3c0.2-0.6,0.1-1.3,0.6-1.8c0.5-0.3,0.6-0.7,0.6-1.2c0.8-2.1,1.6-4.1,3.1-5.8c0.9-0.7,1.6-1.5,2.1-2.4
		c1.1-1.6,2.8-2.5,4.6-2.4c2.3,0.2,3.3-0.9,4-2.7C90.8,72.1,92,71.1,93.2,70.2z"/>
	<path class="st91" d="M72.3,104.3c-0.1-1.9-0.1-3.9-0.2-5.8c0-2.6,0-5.1,0.1-7.7c0.1-1.7,0.8-0.2,1.2-0.2c0.1,0.1,0.2,0.2,0.3,0.3
		c1,2.1-0.1,4.4,0.4,6.6c0.5,2.6,1.3,5.2,0.3,7.8c-1.3,1.1-1.1-0.6-1.6-0.9C72.6,104.4,72.5,104.4,72.3,104.3z"/>
	<path class="st92" d="M78.8,79.8c-1.7,1.5-2.1,3.8-3.6,5.4c0.2-1,0.4-2,0.6-3c0.6-1,1.2-2,1.8-3c0.3-0.4,0.6-1,1.3-0.5
		C79.2,79.1,79.1,79.5,78.8,79.8z"/>
	<path class="st91" d="M74.6,86.4c0,0.6,0,1.2,0,1.8c-0.9,0.6,0.5,2.3-1.2,2.4c0,0,0,0,0,0C73.4,89.1,73.2,87.5,74.6,86.4z"/>
	<path class="st93" d="M72.8,111.6c-0.2,3.4,0.3,6.8,0.6,10.1c-0.9-2.1-2.4-0.5-3.6-0.6c-4.1-3.5-4.7-5.4-3-9.6
		c1.3,1.1,0.2,3.2,1.7,4.4c1.1-0.7,1.2-2.1,1.9-3.1C71,112.2,71.2,110.8,72.8,111.6z"/>
	<path class="st94" d="M72.8,111.6c-2.1,0.6-2,2.7-2.8,4.1c-0.4,0.6-0.4,1.7-1.4,1.6c-0.9-0.1-1.2-1-1.4-1.7
		c-0.6-1.3-0.2-2.7-0.3-4.1c0.4-0.8,0.8-1.6,1.2-2.4c0.2,0,0.4,0,0.6,0c1.1,1.4-0.9,2.7,0,4.1c2.1-0.8,1.3-4.3,4.2-4.2
		c0.1,0.2,0.2,0.3,0.2,0.5c0,0.2-0.1,0.3-0.1,0.3C72.8,110.4,72.8,111,72.8,111.6z"/>
	<path class="st95" d="M72.8,109.2c-1.7,1-2.1,2.9-3.1,4.4c-0.4,0.6-0.8,1.4-1.5,1.2c-0.9-0.2-0.9-1.2-0.7-2
		c0.3-1.2,0.7-2.4,1.1-3.6c0.6-1.2,1.8-1.6,3-1.8C73.2,107.2,73.6,107.8,72.8,109.2z"/>
	<path class="st96" d="M72.8,109.2c0.3-1-0.3-1.5-1.1-1.8c1-0.8,1.4-1.7,1.2-3c0.4,0.4,0.8,0.8,1.2,1.2c1.4,2.8,1.3,5.6,0,8.4
		c-1.4-1.1,0.2-3.1-1.2-4.2C72.8,109.6,72.8,109.4,72.8,109.2z"/>
	<path class="st97" d="M142.4,105.6c0,0.8,0,1.6,0,2.4c-0.2,0.1-0.3,0.1-0.5,0.2c-0.3-0.2-0.4-0.5-0.4-0.9c-0.6-5.3-1.7-10.5-2-15.9
		c-0.1-1.7-0.1-3.4,1.7-4.4c0.2,0,0.4,0,0.6,0c-1.4,4.4,0.7,8.6,0.6,12.9C142.3,101.8,142.4,103.7,142.4,105.6z"/>
	<path class="st98" d="M130.4,140.4c0.6,1.8-0.1,4,1.8,5.4c-0.8,0.4-1.6,1-2.4,0c-1-0.5-1.2-1.6-1.3-2.6c-0.1-1.4-1.2-2-2.1-2.8
		c-0.8-1-1-2.2-1-3.4c0.1-1.9-0.7-3.6-1.4-5.4c0-0.3,0-0.6,0.2-0.8c0.6-0.3,1.1,0,1.6,0.3c1.1,1.1,3.1,1.2,3.8,2.8
		c0.2,2,0.9,4,0.8,6.1C130.4,140.1,130.4,140.2,130.4,140.4z"/>
	<path class="st99" d="M124.4,131.4c2.1,2.7,1.5,6,2.4,9c0.8,0.8,1.6,1.6,2.4,2.4c-0.1,1.1,0,2.1,0.6,3c-2.3-0.1-1.7-3-3.4-3.7
		c-0.7-0.3-0.7-1.8-2.3-1c-1.1,0.6-0.8-0.9-0.9-1.5c-0.2-2.7,1.6-5.3,0.6-8.1C124,131.1,124.2,131.1,124.4,131.4z"/>
	<path class="st100" d="M117.2,129c0.4,0,0.8,0,1.2,0c0.3,0.2,0.6,0.4,0.9,0.7c0.2,0.5,0.2,1,0.1,1.5c-0.1,0.2-0.3,0.4-0.6,0.5
		c-0.5,0-1-0.3-1.5-0.5c-0.6-0.3-1.3-0.4-2-0.6c-4.1-1.1-8.3-1.3-12.4-1.9c-2.2-0.5-4.4,0.7-6.6,0.5c-0.4-0.4-0.5-0.8-0.3-1.3
		c0.4-0.6,1-0.9,1.6-1.1c1.3-0.4,2.6-0.3,3.9-0.3c1.3,0,2.6,0.1,3.8-0.4c1.1-0.2,2.3-0.3,3.4,0C111.4,127.4,114.3,128.2,117.2,129z"
		/>
	<path class="st101" d="M108.8,126.6c-1.2,0-2.4,0-3.6,0c-1.2,0.6-2.4,0.1-3.6,0.3c-0.8-0.1-1.8,0.3-2.5-0.4
		c1.8-2.3,4.6-1.6,6.8-1.7c3-0.2,6.1,0.5,9.2,0.6c0.6,0,1.2,0.3,1.5,0.8c0,0.2,0,0.4-0.1,0.5c-1.2,0.1-2.5-0.5-3.6,0.5
		C111.5,127.7,110.2,127,108.8,126.6z"/>
	<path class="st102" d="M108.8,126.6c1.4,0,2.9-0.2,4.2,0.6c1.3,0.9,3.2,0.4,4.2,1.8C114.2,128.7,111.2,128.7,108.8,126.6z"/>
	<path class="st101" d="M124.4,131.4c-0.2,0-0.4,0-0.6,0c-1.2-3.4-4.9-3.1-7.2-4.7c0,0,0.1-0.1,0.1-0.1c0.6-0.6,1.3-0.7,2.1-0.6
		c1.6,0.3,3,1.2,4.3,2c0.2,0.2,0.4,0.4,0.6,0.6c0.4,0.7,1.1,1.3,0.7,2.3C124.4,131,124.4,131.2,124.4,131.4z"/>
	<path class="st103" d="M119,131.3c0-0.6,0-1.2,0-1.7c1.6,0.4,2.8,1,2.4,3c0,0.2,0,0.4,0,0.6c-0.5,0.3-0.6,0.7-0.6,1.2
		C118.2,134.5,118.9,132.7,119,131.3z"/>
	<path class="st102" d="M121.4,132.6c-0.2-1.5-1.3-2.3-2.4-3c-0.2-0.2-0.4-0.4-0.6-0.6C120.4,129.4,122.4,129.7,121.4,132.6z"/>
	<path class="st104" d="M138.2,128.4c0.9,3.8-1.8,6.5-3.1,9.6c-0.3,0.6-0.7,1.2-1.1,1.8c-0.9,1.3-1.7,1.1-2.3-0.3
		c-0.3-0.7-0.3-1.6-0.3-2.4c0.1-2.5-0.9-4.2-3.5-4.7c-0.6-0.1-1.2-0.3-1.2-1.1c1.5-1.2,3.3-0.9,4.9-1.1c1.3,0.1,2.7,1.9,4,0.1
		c0.4-0.8,0.6-1.6,1.3-2.1C137.4,128,137.8,128,138.2,128.4z"/>
	<path class="st105" d="M136.4,130.8c-1.4,2.2-2.8,1.6-4.2,0c-0.3-1.1,0.9-1.4,1.3-2.1c0.4-0.5,0.9-0.9,1.3-1.4
		c0.5-0.7,1.2-1.3,1.9-1.9c0.9-0.6,1.2-1.6,1.7-2.5c0.1-0.2,0.3-0.4,0.5-0.5c1.2-1.3,1.5,0.8,2.4,0.6c-0.4,0.8-0.7,1.5-0.6,2.4
		c-0.4,0.7-0.7,1.5-0.6,2.4c-0.4,0.7-1.1,0.6-1.8,0.6c-0.4,0-0.8,0-1.2,0C136.4,129.1,135.4,129.7,136.4,130.8z"/>
	<path class="st106" d="M126.8,131.4c0.1,0.1,0.3,0.3,0.4,0.4c4.6,1.4,4.7,1.4,4.9,6.6c0.1,1.3,0.2,2.2,1.8,1.4
		c1.5,1.2,0.3,1.6-0.6,2.2c-0.9,0.6-1.6,1-1.8-0.5c-0.1-0.7-0.5-1-1.2-1.1l0,0c-0.6-2.2-0.3-4.5-1.2-6.6c-1-1.1-2.9-0.8-3.6-2.4
		C126,131.1,126.4,131.1,126.8,131.4z"/>
	<path class="st107" d="M119.6,63.6c0-0.2,0-0.4,0-0.6c2.8,0.1,4.7,2.3,7.1,3c0.6,0.6,1.2,1.2,1.8,1.8
		C125,67.6,122.8,64.5,119.6,63.6z"/>
	<path class="st108" d="M78.8,78.6c-0.4,0.2-0.8,0.4-1.2,0.6c0-2.4,2.7-3.2,3-5.4c0.7-1.1,1.6-1.9,2.5-2.7c1.6-1.2,3.5-1.9,5.3-2.7
		c0.2-0.2,0.4-0.4,0.6-0.6c0.4,0.2,0.8,0.4,1.2,0.6c0.2,0.3,0.3,0.5,0.2,0.8c-2.5,4.1-2.5,4.2-7.1,5.5c-0.8,0.2-1.4,0.8-1.9,1.3
		c-0.8,0.7-1.5,1.6-2.2,2.4C79,78.5,78.9,78.5,78.8,78.6z"/>
	<path class="st109" d="M83,71.4c-0.6,1-1.4,1.8-2.4,2.4c0-0.2,0-0.4,0-0.6c0.4-0.8,1-1.4,1.8-1.8C82.6,71.2,82.8,71.2,83,71.4z"/>
	<path class="st110" d="M83,71.4c-0.2,0-0.4,0-0.6,0c1.4-2.1,3.5-3,6-3C87,70.1,84.9,70.7,83,71.4z"/>
	<path class="st111" d="M117.2,151.2c-0.4,0-0.8,0-1.2,0c-2,1.3-4-0.5-6,0c-0.3,0.2-0.5,0.3-0.9,0.2c-3.8-2.3-5-4.7-4.3-8.3
		c0.1-0.1,0.2-0.2,0.3-0.3c0.8,0,1.6,0,2.4,0c0.3,4,3.3,5,6.4,5.9C115,149.6,117.6,148.5,117.2,151.2z"/>
	<path class="st112" d="M113.6,149.4c-0.6-0.3-1.2-0.9-1.8-0.9c-4.4,0.2-4.5-2.6-4.2-5.7c4-0.2,4.6,0.2,4.8,3.6
		C113,147.3,114.5,147.8,113.6,149.4z"/>
	<path class="st113" d="M115.4,137.4c-1.2,0.8-2.4,1.6-3.6,2.4c-0.4,0-0.8,0-1.2,0c-0.3,0.2-0.6,0.2-0.9,0.1c-1.4-0.2-2.8,0-4.1-0.7
		c-0.6,0-1.1,0-1.7,0c-0.3,0.1-0.6,0.1-0.8-0.2c-0.3-0.6-0.3-1.2,0.1-1.8c0.4-0.3,0.8-0.4,1.3-0.4c2.3,0.8,4.6,0.8,6.9,0
		c0.9-0.2,1.8-0.6,2.6-1.1c0.3-0.1,0.5-0.1,0.8-0.1c0.3,0.1,0.5,0.2,0.7,0.4C115.7,136.6,115.7,137,115.4,137.4z"/>
	<path class="st12" d="M113.6,149.4c-0.4-1-0.8-2-1.2-3c2.9,0.5,5.7,1.1,6,4.8c-0.4,0-0.8,0-1.2,0
		C116.8,148.9,114.4,150.8,113.6,149.4z"/>
	<path class="st114" d="M103.4,139.1c0.2,0,0.4,0.1,0.6,0.2c0.3,1.2,2.2,1.9,1.2,3.5c0,0,0,0,0,0c-0.7,0.6-1.5,0.7-2.3,0.4
		c-1.5-0.9-2.2-2.1-1.6-3.8c0.2-0.3,0.4-0.5,0.8-0.6C102.5,138.7,103,138.8,103.4,139.1z"/>
	<path class="st115" d="M110.1,139.7c0.2,0,0.4,0,0.6,0.1c-1.4,0.9-2.9,0.8-4.4,0C107.5,139.2,108.8,139.5,110.1,139.7z"/>
	<path class="st116" d="M110.1,139.7c-1.3,0.1-2.5,0.1-3.8,0.2c-0.2-0.2-0.4-0.4-0.6-0.6C107.1,139.3,108.7,138.8,110.1,139.7z"/>
	<path class="st117" d="M119,131.3c1.2,0.6-0.2,2.9,1.8,3c0,1-0.1,1.8-0.8,2.7c-1.4,1.9-2.2,1.5-2.9-0.4c-0.3-0.3-0.3-0.7-0.2-1.1
		c0.5-1,1.3-1.9,1.4-3.1c0.1-0.4,0.3-0.7,0.6-1L119,131.3z"/>
	<path class="st118" d="M117.3,135.8c-0.1,0.3-0.1,0.6-0.2,0.9c-0.6,0.3-1,0.9-1.7,0.7c0-0.4,0-0.7-0.1-1.1c0.2-0.8,0.6-1.3,1.5-1.5
		C117.2,135,117.6,135.2,117.3,135.8z"/>
	<path class="st119" d="M109.4,151.2c0.2,0,0.4,0,0.6,0c2.7,0.8,5.2,1.7,6,4.8c-0.4,0-0.8,0-1.2,0c-0.8,0.4-1.8,0.4-2.7,0.4
		c-1.3-0.9-2.1-2.4-3.3-3.4c-1.1-1.2-2.9-1.4-3.6-3C107,149,107.9,151,109.4,151.2z"/>
	<path class="st120" d="M111.8,156c1,0,2,0,3,0c-0.6,0.4-1.2,0.8-1.8,1.2c-3.2,2.3-6.5,2.5-10,0.8c-1-0.5-2.1-0.5-3.2-0.8
		c-0.6-0.4-1.2-0.8-1.8-1.2c0.6-0.7,1.4-0.7,2.3-0.8c0.8,0,1.6,0.1,2.3,0.3c2.2,1.4,4.3,2.8,7,1.3
		C110.3,156.4,110.8,155.6,111.8,156z"/>
	<path class="st121" d="M100.4,156c-0.8,0-1.6,0-2.4,0c-1.9-0.5-3.7-1.2-4.8-3c0.2-0.4,0.4-0.8,0.6-1.2c0.2-0.2,0.5-0.3,0.8-0.3
		C97.1,152.1,99.1,153.6,100.4,156z"/>
	<path class="st122" d="M94.4,151.8c-0.2,0-0.4,0-0.6,0c-0.4-0.8-1.9-0.5-1.8-1.8c0.2,0,0.4,0,0.6,0c1.1-0.8,2.3-1,3.1,0.3
		C96.2,151.3,95.1,151.5,94.4,151.8z"/>
	<path class="st123" d="M76.4,121.8c-0.2-0.2-0.4-0.4-0.6-0.6c-1.8-1.6-1.2-3.7-1.5-5.7c0-0.3,0-0.6,0.1-0.9
		c0.3-1.1,0.2-2.2,0.2-3.3c0-1.4,0-2.9,0-4.3c0-0.6,0-1.3,0.1-1.9c0.5-1.9,0.4-3.8,1.3-5.6c0.3-0.4,0.6-0.7,1.2-0.5
		c0.7,0.9,0.6,1.9,0.4,2.9c-0.6,3.6-0.8,7.2-0.9,10.9c0,1.7-0.2,3.4,0.2,5.1c0.2,0.9,0.5,1.8,0.6,2.7
		C77.4,121.2,77.3,121.9,76.4,121.8z"/>
	<path class="st124" d="M83.6,141c-1.4-1.1,0.2-3.1-1.2-4.2c-1.2-1.9-0.3-4-0.6-6c0-0.2,0-0.4,0-0.6c1.6-0.3,2.2,0.5,2.2,2
		c-0.8,1.4,0.2,2.6,0.1,4C84.1,137.7,84.6,139.4,83.6,141z"/>
	<path class="st125" d="M76.4,121.8c0.5-0.3,0.6-0.8,0.7-1.4c1.8,0.5,1.9,2.4,2.7,3.6c0.3,0.8,0.6,1.6,0.7,2.5
		c0,0.5-0.1,0.9-0.5,1.2C77.9,126.4,77.2,124.1,76.4,121.8z"/>
	<path class="st126" d="M83.6,132c0-1.2-1-1.4-1.8-1.8c0-0.2,0-0.4,0-0.6c0-1,0.7-0.9,1.3-0.8c1.4,1,3,1.3,4.7,1.2
		c1.1-0.1,2.2-0.1,3,0.7c0.2,0.7-0.3,0.9-0.8,1C87.9,131.3,85.8,132.4,83.6,132z"/>
	<path class="st127" d="M74.6,115.2c0.1,2,0.5,4,1.2,5.9c-0.5,0.3-0.6,0.7-0.6,1.2c-1-0.5-0.2-1.9-1.2-2.4c0-1.6,0-3.2,0-4.8
		C74.2,114.9,74.4,114.9,74.6,115.2z"/>
	<path class="st128" d="M83,129c-0.5,0-0.9,0.1-1.2,0.6c-0.8-0.4-1.4-1-1.8-1.8c0-0.5,0-0.9,0.1-1.4c1.2-0.5,1.9,0.3,2.6,1
		c0.3,0.3,0.5,0.7,0.5,1.2C83.1,128.8,83,128.9,83,129z"/>
	<path class="st129" d="M74.6,115.2c-0.2,0-0.4-0.1-0.6-0.1c0-0.4,0-0.8,0-1.2c0-2.8,0-5.6,0-8.4c0.2-2.8-0.2-5.6-0.6-8.4
		c0.3-0.2,0.6-0.1,0.9,0.1c1,1.4,1.2,3,0.9,4.7c0,0.5,0,1,0,1.5c-0.1,1.2-0.4,2.3-0.3,3.5c0,1.5,0,3.1,0,4.6c-0.1,1,0.2,2.1-0.3,3
		C74.6,114.8,74.6,115,74.6,115.2z"/>
	<path class="st130" d="M83.6,132c2.2-0.5,4.4-0.8,6.6-0.6c0.2,0.1,0.3,0.3,0.2,0.4c-0.1,0.1-0.1,0.2-0.2,0.2l0,0
		c-0.6,0.5-1.2,0.5-1.8,0c-3.7,0.2-3.8,0.4-3.6,4.1c0.1,1.6,0.4,3.4-0.6,4.9c-0.2,0-0.4,0-0.6,0c-0.1-2.3,0.3-4.6-0.5-6.8
		C82.8,133.4,82.8,132.6,83.6,132z"/>
	<path class="st131" d="M88.4,132c0.6,0,1.2,0,1.8,0c-3.2,3.9-2.7,8.6-3,13.2c-0.4-0.4-0.8-0.8-1.2-1.2c0-1.2,0.1-2.5-0.6-3.6
		c1.1-1.3,1.1-2.9,1.1-4.4c0.1-1.5,0.5-2.6,1.8-3.4C88.4,132.4,88.4,132.2,88.4,132z"/>
	<path class="st132" d="M88.4,132.6c-1.1,1.2-1.3,2.7-1.2,4.3c0,1.4,0.2,3-1.8,3.5c-0.3-1.9,0.4-3.7,0.6-5.5
		C86.2,133.5,87,132.7,88.4,132.6z"/>
	<path class="st133" d="M112.4,63c-4.9-0.3-9.8-0.9-14.7-0.3c-1,0.1-2.4,0.1-2.7,1.5c-1,1.5-2.1,2.9-2.4,4.8
		c0.2,0.7-0.2,0.7-0.7,0.7c-0.2-0.2-0.3-0.5-0.4-0.8c0.1-0.6,0-1.2,0.4-1.7l0,0c0.5-1.6,1.4-2.9,2.4-4.2c1-0.9,2-1.9,3.6-1.8
		c3.2-1.1,6.5,0.5,9.8-0.4C109.4,60.4,110.8,62.3,112.4,63z"/>
	<path class="st134" d="M94.4,63c-0.4,1.6-1.4,2.9-2.4,4.2C92,65.4,92.8,63.9,94.4,63z"/>
	<path class="st134" d="M92,67.2c0,0.6,0,1.2,0,1.8c-0.4,0.7-0.9,1.2-1.7,0.8c-0.2-0.1-0.2-0.3-0.2-0.5c0-0.2,0.1-0.3,0.1-0.3
		c0-0.2,0-0.4,0-0.6C91.1,68.5,91.4,67.6,92,67.2z"/>
	<path class="st73" d="M92,69.6c0.2-0.2,0.4-0.4,0.6-0.6c0.2,0,0.4,0,0.6,0c0,0.4,0,0.8,0,1.2c-0.8,1.3-1.1,3.8-3.6,1.8
		c-0.5-0.5-0.3-1,0.2-1.3C90.8,70.8,91.4,70.3,92,69.6z"/>
	<path class="st135" d="M93.2,72.6c0-1.7,1.9-2.2,2.4-3.6c0,0,0,0,0,0c2.6-1.2,5.5-0.6,8.2-0.5c4.8,0.1,9.6,0.6,14,2.9
		c0.4,0.7,1.1,0.6,1.8,0.6c2.6,2,5.2,4,7.8,6c-0.1,0.1-0.2,0.2-0.3,0.3c-1.4,0.5-2.5-0.4-3.4-1.2c-1.2-0.9-2.5-1.5-4-1.4
		c-0.4,0-0.9-0.1-1.3-0.3c-1.2-0.9-2.4-1.5-3.9-1.8c-6.7-1.8-13.5-3.1-20.4-0.7C93.7,72.9,93.5,72.8,93.2,72.6z"/>
	<path class="st75" d="M117.8,71.4c-3.5,0.5-6.4-1.9-10-2c-4-0.1-8.1-0.2-12.2-0.4c0.1-0.6,0.4-1.2,1.1-1.2
		c6.3-0.1,12.7-0.4,18.9,1.7C116.6,69.9,117.3,70.5,117.8,71.4z"/>
	<path class="st136" d="M141.2,87c-1.9,2.9-0.6,6-0.4,8.9c0.3,4,1.1,8,1,12.1c-0.2,0.2-0.4,0.2-0.5,0c-0.2-1.2,0.4-2.5-0.6-3.6
		c-0.6-0.4-0.7-1.1-0.8-1.7c-0.1-0.9,0-1.8-0.1-2.8c-0.4-1.5-0.6-2.9-0.7-4.5c0.3-2.2-0.7-4.3-0.3-6.5c0.2-1.2-0.6-0.5-1-0.7
		c-1.1-0.3-2-0.7-0.9-2c1-0.4,1.8,0.3,2.5,0.7C140,86.8,140.6,86,141.2,87z"/>
	<path class="st137" d="M139.4,87c-0.9,0.1-1.7-0.2-2.4-0.6c-1.7,0.1-1.9-1.2-2.3-2.3c0-0.5,0.1-0.9,0.5-1.3
		C137,83.8,139.1,84.5,139.4,87z"/>
	<path class="st137" d="M129.2,79.2c0.6,0,1.2,0,1.8,0c0.6,1.4,2,2,3,3c0.2,0.2,0.2,0.3,0.2,0.5c-0.1,0.2-0.1,0.2-0.2,0.2
		c-2.2,0.1-3.8-1-5.2-2.5c0-0.3,0-0.6,0.1-0.9C129,79.4,129.1,79.3,129.2,79.2z"/>
	<path class="st136" d="M134,82.8c0-0.2,0-0.4,0-0.6c0.4,0.2,0.8,0.4,1.2,0.6c0,0.4,0,0.8,0,1.2C133.9,84.4,133.5,84.1,134,82.8z"/>
	<path class="st137" d="M129.2,78c0,0.4,0,0.8,0,1.2c0,0,0,0,0,0c-1.3,0.6-1.8,0.2-1.8-1.2c0,0,0,0,0,0C128,78,128.6,78,129.2,78z"
		/>
	<path class="st138" d="M94.4,151.8c0.2-0.5,1.2-0.7,0.8-1.3c-0.6-1-1.7-0.3-2.6-0.5c-0.9-1.8-1.3-3.6,1.1-4.6
		c1.9-0.8,5.5,0.6,6,2.4c0.3,1.1,0.5,2.1,1.9,2.2c1.2,1.2,2.4,2.4,3.6,3.6c0.3,0.3,0.7,0.3,1.1,0.3c1.2,0.2,3.1-0.1,2.5,1.8
		c-0.4,1.4-2.1,2.1-3.7,1.5c-0.8-0.3-1.7-0.6-2.3-1.2c-0.8,0-1.6,0-2.4,0C98.4,154.6,96.4,153.2,94.4,151.8z"/>
	<path class="st139" d="M90.8,140.4c0.8-2.8,1.6-5.6,2.4-8.4c0-0.4,0-0.8,0-1.2c0.2-0.2,0.4-0.3,0.7-0.3c0.3,0,0.5,0.2,0.7,0.3
		c0.7,0.9,0.1,2.3,1.5,2.8c1.5,1,1.4,2.5,1.4,4c-0.1,0.1-0.1,0.2-0.2,0.4C94.8,137.6,93.3,140.3,90.8,140.4z"/>
	<path class="st140" d="M109.4,151.2c-1.6,0.2-2.7-1.1-4.2-1.2c-1.5-1.4-3.6-2.3-3.6-4.8c-0.4-1.1-1.4-1.8-1.2-3.1
		c1-0.6,1.6,0.4,2.4,0.7c0.8,0,1.6,0,2.4,0C104.4,146.7,107,148.8,109.4,151.2z"/>
	<path class="st141" d="M102.8,156c1.9-0.1,4,1.9,5.7-0.6c-0.5-1.6-2.5-0.7-3.3-1.8c1.2,0,2.4,0,3.6,0c2.2,0.6,1.7,2.1,1.2,3.6
		C108.2,159.1,104.6,158.5,102.8,156z"/>
	<path class="st142" d="M110,157.2c-0.5-1.2,0-2.7-1.2-3.6c0-0.2,0-0.4,0-0.6c1.8,0.2,2.8,1.2,3,3
		C111.2,156.4,110.6,156.8,110,157.2z"/>
	<path class="st139" d="M100.4,142.2c0.5,0.9,1.4,1.7,1.2,3c-1.8-1.3-2.6-3.3-3-5.4c0.1,0,0.3-0.1,0.4-0.1
		C100.1,140.1,100.8,140.9,100.4,142.2z"/>
	<path class="st139" d="M98.6,139.8c-0.8,0.4-1.6,0.9-2.6,0.3c-0.3-1.2,1.8-0.9,1.4-2.1c0,0,0,0,0,0C98.7,138,98.8,138.7,98.6,139.8
		L98.6,139.8z"/>
	<path class="st132" d="M93.8,130.8c-0.2,0-0.4,0-0.6,0c-1,0.4-2,0.8-3,1.2c0-0.2,0-0.4,0-0.6c0.2-0.2,0.4-0.4,0.6-0.6
		c0.1-0.2,0.3-0.5,0.5-0.6c0.6-0.4,1.2-0.6,2-0.4C93.7,130,94,130.3,93.8,130.8z"/>
	<path class="st143" d="M144.2,111c0-0.4,0-0.8,0-1.2c0-0.2,0-0.4,0-0.6c2.5,0.8,3.3,2,3,4.8c0,0.8,0,1.6,0,2.4
		c-0.4-0.4-0.8-0.8-1.2-1.2c0-0.4,0-0.8,0-1.2C145.4,113,144.8,112,144.2,111z"/>
	<path class="st144" d="M144.2,111c1.2,0.6,1.9,1.6,1.8,3c-0.6-0.4-1.2-0.8-1.8-1.2C144.2,112.2,144.2,111.6,144.2,111z"/>
	<path class="st145" d="M147.2,114c-0.5-1.9-1.2-3.7-3-4.8c-0.7-0.4-0.6-1.1-0.6-1.8c0.8,0.2,1.5,0.4,2.3,0.6
		c0.6,0.9,1.4,1.8,2.4,2.3c0.2,1.1,0.8,2.2,0.7,3.4c-0.1,0.6,0,1.3-0.6,1.5C147.5,115.5,147.9,114.1,147.2,114z"/>
	<path class="st146" d="M140.5,102.7c0,0.6,0.1,1.1,0.1,1.7c0,3.8-0.1,7.5-0.1,11.3c-0.9,1.7-0.5,3.9-1.6,5.5
		c-0.7,0.7-0.5,1.7-0.9,2.5c-0.3,0.5-0.5,1-0.8,1.4c-0.9,0.6-1.6,1.6-2.6,2c-3,1.3-5.5,1-8.6-0.7c-2.9-1.6-6.8-1.9-10.2-3
		c-0.8-0.2-2.8,0.2-1.9-1.9c1.2-0.6,2.5-0.3,3.8-0.1c2.2,0.3,4.5,0.5,6.6-0.5c2.2-0.7,4.5-0.4,6.8-0.4c2.7-0.1,4.4-1.1,4.8-3.8
		c4.3-3.2,3.4-7.8,3-12.2c-0.1-1.6-0.7-3.1,0.2-4.7c0.2-0.2,0.5-0.3,0.9-0.2C140.6,100.5,139.9,101.7,140.5,102.7z"/>
	<path class="st147" d="M141.2,108c0.2,0,0.4,0,0.5,0c0,0,0,0,0,0c0.4,1.6,0.5,3.2,0,4.8c0,0.1,0,0.2-0.1,0.3
		c-0.1,0.1-0.2,0.2-0.4,0.3C141.3,111.5,141.3,109.7,141.2,108z"/>
	<path class="st148" d="M141.8,112.8c0-1.6,0-3.2,0-4.8c0.2,0,0.4,0,0.6,0c0,1.6,0,3.2,0,4.8C142.2,112.8,142,112.8,141.8,112.8z"/>
	<path class="st149" d="M137.6,123.6c0.1-1,0.4-1.8,1.3-2.4c0,0.4,0,0.8-0.1,1.2c-0.1,0.1-0.1,0.3-0.1,0.4
		C138.5,123.3,138.3,123.9,137.6,123.6z"/>
	<path class="st150" d="M74.6,102c-0.2-1.6-0.4-3.2-0.6-4.8c-0.3-2.2-0.9-4.5,0.6-6.6c1.6-3.9,3.4-7.8,6.2-11.1
		c1.4-1.7,2.8-3.1,5.2-2.7c0.2,0.7-0.3,1-0.8,0.9c-1-0.1-0.2,0.4-0.3,0.6c-3.4,2.5-6,5.7-7.2,9.8c-0.1,0.3-0.2,0.5-0.3,0.8
		c-0.6,1.1-0.9,2.3-1.2,3.5c-0.1,0.3-0.2,0.6-0.3,0.8c-0.7,1.5-0.5,3-0.3,4.6C75.7,99.2,76.7,101,74.6,102z"/>
	<path class="st151" d="M90.2,70.8c-0.5,0.3-0.6,0.7-0.6,1.2c-0.8,0.6-0.6,1.4-0.6,2.2c0,1-0.4,1.6-1.5,1.2c-2.8-0.9-4.9,0.4-6.9,2
		c-0.1-0.1-0.2-0.2-0.3-0.2c-0.1-0.4,0-0.7,0.3-1c1-1.9,2.5-2.7,4.7-2.4c1.8,0.2,3.4,0.1,3.2-2.5c-0.1-1.1,0.8-1.8,1.7-2.2
		c0,0.2,0,0.4,0,0.6C90.6,70,90.5,70.4,90.2,70.8z"/>
	<path class="st152" d="M84.8,78c-0.2,0-0.4,0-0.5-0.1c-0.3-0.3,0-0.4,0.3-0.4c0.6,0,1.1-0.1,1.5-0.6c1.4-1.1,2.8,1.2,4.2,0
		c0.3-0.2,0.5-0.2,0.8,0c0.6,1.2,1.2,2.4,0,3.6c-0.3,0.1-0.5,0.2-0.8,0.1C88.7,79,86.7,78.6,84.8,78z"/>
	<path class="st92" d="M74.6,90.6c-0.8,2.1-0.5,4.4-0.6,6.6c-0.2,0-0.4,0-0.6,0c0-2.2,0-4.4,0-6.6c0.9-0.5,0.2-1.9,1.2-2.4
		C74.6,89,74.6,89.8,74.6,90.6z"/>
	<path class="st153" d="M93.2,72.6c0.2,0,0.4,0,0.6,0c0.1,0.1,0.2,0.2,0.3,0.3c0.2,0.4,0.2,0.8,0,1.2c-0.6,0.9-1.3,1.4-2.4,1.1
		c-0.1-0.1-0.2-0.2-0.3-0.3C92,74.2,92.6,73.4,93.2,72.6z"/>
	<path class="st154" d="M90.8,76.8c-0.2,0-0.4,0-0.6,0c0-0.9,0-1.8,1.2-1.8c0,0,0,0,0,0c0.5,0.6,1.4,0,1.9,0.5
		c0.1,0.7-0.3,1-0.9,1.2C91.9,76.9,91.3,76.9,90.8,76.8z"/>
	<path class="st151" d="M78.8,79.8c0-0.4,0-0.8,0-1.2c0,0,0,0,0,0c0.5-0.5,0.7-1.6,1.8-1.2c0,0,0,0,0,0
		C80.5,78.6,79.8,79.3,78.8,79.8z"/>
	<path class="st89" d="M126.8,131.4c-0.4,0-0.8,0-1.2,0c-0.4-0.2-0.8-0.4-1.2-0.6c-0.4-0.6-0.8-1.3-1.2-1.9c0.5-0.4,1.2-0.4,1.7-0.1
		c3,1.3,6,0,9,0c0,1.1-1.3,1.3-1.7,2C130.4,130.9,128.6,131.7,126.8,131.4z"/>
	<path class="st44" d="M129.2,133.8c1.4,2,1.1,4.3,1.2,6.6C129.3,138.3,129.1,136.1,129.2,133.8z"/>
	<path class="st155" d="M129.2,142.8c-1.4-0.2-2.2-1-2.4-2.4C128.2,140.5,129,141.3,129.2,142.8z"/>
	<path class="st156" d="M119,126.6c-0.8,0-1.6,0-2.4,0c-5.8-0.8-11.6-1.7-17.5,0c-0.4,0.6-1.3,0-1.7,0.6c-0.4,0.2-0.8,0.4-1.2,0.6
		c-0.5,0.5-1,1-1.8,0.9c-0.3,0-0.5-0.2-0.8-0.4c-0.1-0.3-0.1-0.6-0.1-0.9c0.2-0.4,0.5-0.7,0.9-0.9c2.3-1.1,4.6-2,7.3-2
		c2-0.1,3.1-1.5,4.4-2.8c1.7-0.9,3.3-0.3,4,1.1c0.9,1.7,2,1.8,3.5,1.7c0.7,0,1.5,0,2.2,0.1c1.1,0.2,2.1,0.4,3,1.1
		C119.2,126,119.2,126.3,119,126.6z"/>
	<path class="st157" d="M102.8,127.8c4.4,0.8,9,0.4,13.2,2.4c-2,1.4-4.2,1.4-6.5,1.5c-1.6,0-3.1,0-4.7-0.1c-0.5-0.1-1-0.2-1.4-0.6
		c-0.2-0.3-0.2-0.6,0.1-0.9c1.4-0.3,2.7-0.1,3.8-0.1c-2.2-0.8-5,1.3-7.4-0.8C100,127,102.1,128.8,102.8,127.8z"/>
	<path class="st158" d="M116.6,135c-0.2,0.6-0.7,1-1.3,1.3c-0.2,0-0.4-0.1-0.6-0.1c-0.3-0.2-0.7-0.3-0.8-0.8c-0.2-1.2,1-1.7,1.4-2.6
		c0.5-0.7-0.2-1.4,0.1-2.1c0.8-0.4,1.6-0.4,2.4,0c0.4,0.2,0.8,0.5,1.1,0.7c0,0.4,0.1,0.7,0.1,1.1C118.3,133.4,117.8,134.6,116.6,135
		z"/>
	<path class="st159" d="M117.8,130.7c-0.8,0.2-1.8-0.3-2.5,0.6c-1.9,1.1-3.8,1.7-5.9,0.4c-0.2-0.3-0.2-0.6,0-0.9
		c2.2-0.2,4.4-0.4,6.6-0.6C116.6,130.2,117.3,130.1,117.8,130.7z"/>
	<path class="st139" d="M102.8,127.8c-0.7,1.1-2.3,0.1-3,1.2c-0.7,0.8-1.7,0.8-2.6,1.1c-0.8,0.1-1.6,0.2-2.3-0.5
		c0-1,0.5-1.1,1.3-0.7C98.3,127.9,100.5,127.6,102.8,127.8z"/>
	<path class="st102" d="M96.2,129c-0.5,0-0.9,0.1-1.2,0.6c0,0.5-0.2,0.9-0.6,1.2c-0.2,0-0.4,0-0.6,0c-0.2-0.2-0.4-0.4-0.6-0.6
		c-0.4-1.2,0.6-1.3,1.3-1.7c0.6-0.3,1.1-0.8,1.8-0.6C96.2,128.2,96.2,128.6,96.2,129z"/>
	<path class="st160" d="M97.4,127.2c0.4-0.7,1.1-0.6,1.7-0.6c0.8,0,1.6,0.1,2.5,0.1c0.2,0.1,0.2,0.3,0.2,0.4
		c-0.1,0.1-0.1,0.2-0.2,0.2C100.2,127.2,98.8,127.2,97.4,127.2z"/>
	<path class="st102" d="M101.6,127.2c0-0.2,0-0.4,0-0.5c1.2,0,2.4,0,3.6,0C104.1,127.7,102.8,127,101.6,127.2z"/>
	<path class="st161" d="M119,126c-1-0.2-2-0.4-3-0.6c-1.4-0.5-2.7-1.2-3.8-2.1c-0.7-0.6-1.8-1.2-0.8-2.3c0.9-0.2,2-0.7,2.2,0.9
		c3.7,1.1,7.3,2.8,11.3,3c0.6,0,1.3-0.1,1.7,0.4c2.1,3.1,4.8,2.4,7.5,1.1c0.1,0,0.3,0.2,0.5,0.2c0.4,0.3,0.3,0.7,0.3,1.1
		c-0.3,0.3-0.7,0.7-1,1c-3.5,2.1-7.1,2-10.7,0.1c0-0.1-0.1-0.3-0.1-0.4C122,127.3,120.3,127,119,126z"/>
	<path class="st162" d="M119,126c1.7,0.4,3.3,0.8,4.2,2.5c-1.4-0.6-2.8-1.3-4.2-1.9C119,126.4,119,126.2,119,126z"/>
	<path class="st89" d="M136.4,130.8c-0.5-0.3-1.4-0.8-1.3-0.9c0.4-0.8,0.9-1.6,2-1.5C136.8,129.2,136.6,130,136.4,130.8z"/>
	<path class="st89" d="M137.6,123.6c0.4-0.3,0.8-0.5,1.1-0.8c-0.1,1.4-0.4,2.6-1.9,3.1c-0.2-0.4-0.1-0.8,0.2-1.1
		C137.1,124.4,137.4,124,137.6,123.6z"/>
	<path class="st149" d="M136.9,124.8c-0.1,0.4-0.1,0.7-0.2,1.1c-0.6,0.6-1.2,1.2-1.9,1.8c-0.1-0.4-0.2-0.7-0.3-1.1
		C135.4,126,136.2,125.4,136.9,124.8z"/>
	<path class="st92" d="M80.6,77.4c-0.6,0.4-1.2,0.8-1.8,1.2c0.1-1.2,0.8-1.9,1.8-2.4C80.6,76.6,80.6,77,80.6,77.4z"/>
	<path class="st163" d="M114.2,136.2c-0.5,1-1.4,1.2-2.4,1.2c-2.4,0.5-4.8,0.7-7.2,0c-0.4-0.1-0.8-0.1-1.2-0.2
		c-0.7-0.3-1-0.7-0.5-1.4c2.7-1.4,5.5-1,8.3-0.7C112.2,135.4,113.4,135.3,114.2,136.2z"/>
	<path class="st116" d="M102.9,136.2c0.2,0.3,0.4,0.7,0.6,1c0,0.6,0,1.2,0,1.9c-0.4,0-0.7,0-1.1,0c-1.2-0.9-2.3-1.8-3.5-2.7
		c-0.7-0.8-1.2-1.6-1.1-2.7c0.2-0.7,0.7-0.9,1.3-0.9c1,0.2,1.7,0.9,2.3,1.7C101.8,135.1,102.5,135.5,102.9,136.2z"/>
	<path class="st115" d="M104.6,137.4c2.4,0,4.8,0,7.2,0C109.4,138.7,107,138.9,104.6,137.4z"/>
	<path class="st164" d="M114.2,136.2c-1-0.2-2.1,0.4-3-0.5c0.5-0.8,1.3-0.8,2.1-0.7c0.3,0.1,0.6,0.2,0.8,0.4
		c0.2,0.2,0.4,0.4,0.6,0.7C114.6,136.2,114.4,136.2,114.2,136.2z"/>
	<path class="st165" d="M97.9,133.8c0.4,0.8,0.9,1.6,1.3,2.4c0.4,1.3,2.6,1.2,2.4,3c-0.3,1.4,0.4,2.5,1.2,3.6
		c-0.8-0.2-1.6-0.4-2.4-0.6c-0.5-0.9-0.7-2-1.8-2.4c-0.4-0.6-0.8-1.2-1.2-1.8c-1.1-1.2,0.1-3.4-1.8-4.2c-0.8-1.2,0.2-1.8,0.8-2.6
		c0.4-0.4,0.9-0.7,1.5-0.6c0.2,0.2,0.4,0.4,0.4,0.6C98.6,132.2,97.5,132.9,97.9,133.8z"/>
	<path class="st166" d="M101.6,139.2c-0.4-1.3-2.5-1.3-2.4-3c1.3,0.7,2.7,1.3,3.1,2.9C102.1,139.1,101.8,139.1,101.6,139.2z"/>
	<path class="st167" d="M116.6,135c0.6-1.1,1.4-1.9,2.4-2.4c-0.1,1.3-0.8,2.4-1.8,3.2C117,135.5,116.8,135.2,116.6,135z"/>
	<path class="st168" d="M75.9,112.6c0.4-3.6-0.1-7.2,1-10.7c0.1,0.1,0.2,0.1,0.4,0.2c1.9,1.7,2.6,3.8,1.9,6.3
		c-0.7,2.4,1.9,4.3,1.1,5.9c0-1.6,0.5-3.9-0.7-6.1c-0.4-0.8-0.4-1.7,0.1-2.3c1.4-1.4,1.9-3.5,3.6-4.6c1.6-0.1,1.8-2.1,3.7-2.4
		c1.6-0.2,2.5-0.1,3.4,1.1c0.3,0.8,0,1.4-0.4,2.1c-0.7,0.7-1,1.9-2.4,1.7c-2.6-0.3-4,0.8-4.2,3.6c-0.2,2.9,0,5.8-0.1,8.6
		c0,0.9,0,1.8-0.1,2.7c-0.3,1.5-1.3,2.5-2.8,2.7c-1.5,0.2-2.5-0.7-3-2c-0.5-1.3-0.9-2.6-1-4C75.9,114.5,76.3,113.5,75.9,112.6z"/>
	<path class="st169" d="M77,88.8c0-0.2,0-0.4,0-0.6c0.6-0.5,1.2-1.1,1.4-1.9c0.7-3.8,4-5,6.6-7c1.3-1,2.4-0.6,3.3,0.6
		c0.7,1.8,1.5,3.5-1.6,3.6c-0.3,0,0,0.7-0.1,1c-0.1,0.3-0.2,0.5-0.3,0.7c-0.9,0.8-1.8,1.4-2.1,2.6c-0.6,1.3-1.9,2.2-2.5,3.5
		c-1.1,1.4-1.8,3-2.3,4.6c-0.6,1.1-1.3,2.1-2.1,2.9c-0.2,0.2-0.4,0.4-0.7,0.6c-2-2.2-1.2-4.7-0.6-7.2l0,0
		C76.7,91.4,76.3,89.9,77,88.8z"/>
	<path class="st170" d="M76.4,115.2c0.9,0.9,0.8,2.2,1.1,3.3c0.5,1.4,1.3,2.5,2.7,2.3c1.5-0.2,2.3-1.3,2.2-3c-0.1-3.5-0.1-7,0-10.4
		c0.1-2.7,1.9-4.8,4-4.7c0.8,0,1.3,0.3,1.4,1.2c-0.1,0.2-0.1,0.3-0.2,0.5c-2.7,1.6-3.5,4.1-3.2,7.1c0.2,2.8,0,5.6,0,8.4
		c0,0.5,0,1,0,1.5c0,0.6,0,1.2-0.1,1.8c-0.3,1.4-0.8,2.8-2.3,3.2c-1.4,0.3-1.9-1.2-2.7-2c-0.7-1.3-1.5-2.5-2.2-3.8
		c-0.5-0.7-0.6-1.4-0.6-2.2C75.9,117.2,76,116.2,76.4,115.2z"/>
	<path class="st171" d="M75.8,92.4c0.3,2.4-0.7,4.9,0.6,7.2c-0.4,1.8-0.4,3.7-1.2,5.4c-0.6-0.5,0-1.3-0.6-1.8c0-0.4,0-0.8,0-1.2
		c1-1.4,0.5-2.9,0.2-4.4C74.4,95.7,74.2,93.9,75.8,92.4z"/>
	<path class="st168" d="M77.1,99c-0.1-1.4,0.9-2.1,1.6-3.1c0.3-0.2,0.6-0.2,0.9,0c0.3,2.5-0.3,4.6-2.5,6.1c0,0-0.2-0.1-0.2-0.1
		C76.9,100.9,77,100,77.1,99z"/>
	<path class="st172" d="M76.4,115.2c0,1,0,2,0,3c-1.3-1.7-0.4-3.7-0.6-5.6C76,113.5,76.2,114.3,76.4,115.2z"/>
	<path class="st173" d="M74.7,111.6c0-1.6,0-3.2,0-4.8c0.2-0.3,0.4-0.3,0.5,0c0,1.6,0,3.2,0,4.8C75,111.9,74.8,111.9,74.7,111.6z"/>
	<path class="st174" d="M75.2,106.8l-0.3,0c0,0-0.3,0-0.3,0c0-1.2,0-2.4,0-3.6c0.7,0.4,0.5,1.2,0.6,1.8
		C75.2,105.6,75.2,106.2,75.2,106.8z"/>
	<path class="st175" d="M74.7,111.6c0.2,0,0.3,0,0.5,0c-0.1,1,0.4,2.1-0.5,2.9C74.6,113.5,74.7,112.5,74.7,111.6z"/>
	<path class="st176" d="M79.3,124.2c1.2,0,1.6,2.2,2.9,1.2c1.4-1,1.6-2.6,1.4-4.3c0.5-0.4,1-0.3,1.4,0.1c0.8,1.1,0.5,2.4,0.6,3.6
		c-0.2,2-0.6,3.7-3.2,3c-0.8-0.5-1.5-0.9-2.3-1.4C79.8,125.7,79.5,124.9,79.3,124.2z"/>
	<path class="st128" d="M91.4,130.8c-0.2,0-0.4,0-0.5,0c-2.6-0.6-5.8,1.4-7.9-1.8c0,0,0.1-0.1,0.1-0.1c0.9-0.6,1.8,0,2.7,0.2
		c1.8,0.7,3.8-0.2,5.5,0.9C91.6,130.2,91.6,130.5,91.4,130.8z"/>
	<path class="st177" d="M85.3,129.6c-0.7-0.2-1.5-0.5-2.2-0.7c-0.2-0.4-0.5-0.7-0.7-1.1c1.8-0.2,2.7-1.1,2.4-3
		c0.4-0.3,0.8-0.4,1.2-0.2c0.9,1.2,0.3,2.5,0.6,3.8c0,0.5-0.2,0.9-0.5,1.3C85.9,129.8,85.6,129.8,85.3,129.6z"/>
	<path class="st108" d="M90.2,70.8c0-0.4,0-0.8,0-1.2c0.6-0.2,1.2-0.4,1.8-0.6c0,0.2,0,0.4,0,0.6c0,0.8,0.1,1.7-0.8,2
		C90.7,71.8,90.4,71.3,90.2,70.8z"/>
	<path class="st178" d="M118.4,75c0.4,0,0.8,0,1.2,0c3.1,0.4,4.9,2.9,7.4,4.4c1.9,1.7,1,2.8-0.8,3.8c-0.3,0-0.5,0-0.8-0.1
		c-0.8-0.5-1.7-0.7-2.6-0.8c-0.6-0.2-1.5-0.2-1.3-1.2c-0.1-0.4,1-0.1,0.4-0.6c-2.3-2-5.3-2.4-8.2-3.1c-1.4-0.4-3.7,0.2-3.6-2.4
		c2.2-1.3,4.6-0.7,6.9-0.5C117.5,74.5,117.9,74.7,118.4,75z"/>
	<path class="st153" d="M93.8,72.6c3.3-3,7.3-1.7,11-1.6c1.9,0.1,3.7,0.7,5.7,0c1.5-0.5,2.9,1.2,4.3,2.1c-0.9,1-2.2,1-3.4,0.8
		c-4.6-0.9-9.3-0.4-14-0.5C96.2,73.4,94.9,73.6,93.8,72.6L93.8,72.6z"/>
	<path class="st179" d="M93.8,72.6c7,0,14-0.2,21,0.6c1.6-0.2,2.9,0.2,3.6,1.8c-0.4,0-0.8,0-1.2,0c-1.8-0.7-3.8-0.5-5.6-0.2
		c-5.7,0.8-11.3-1.2-17.1-0.5c-0.3,0-0.5-0.2-0.8-0.4C93.8,73.4,93.8,73,93.8,72.6z"/>
	<path class="st180" d="M126.8,79.8c-2.6-1.2-4.4-3.8-7.2-4.8c1.8-0.3,3.1,0.4,4.5,1.5c0.9,0.8,1.9,1.7,3.3,1.5
		c0.3,0.8,0.9,1.2,1.8,1.2c0,0.2,0,0.4,0,0.6C128.4,80.5,127.6,80.3,126.8,79.8z"/>
	<path class="st181" d="M126.8,79.8c0.8,0,1.6,0,2.4,0c1.2,1.6,3.1,2.1,4.8,3c0,0.8,0.4,1.2,1.2,1.2c0.5,0.9,0.7,2,1.8,2.4
		c0,0.4-0.2,0.9,0,1c0.7,0.6,2.5,0.1,2.3,1.2c-0.3,2.3,1.3,4.5,0.1,6.8c-0.3,0.2-0.5,0.2-0.8,0c-0.8-0.7-1-1.7-1.1-2.7
		c-0.1-1-0.1-2-1.2-2.6c-0.4-0.2-0.9-0.5-1.3-0.7c-0.2-0.1-0.4-0.2-0.7-0.4c-0.8-0.6-1.7-1.1-2.6-1.6c-0.6-0.4-1-0.8-1.4-1.4
		c-0.6-1.9-1.8-2.7-3.8-2.1c-0.6-0.1-1.1-0.3-1.1-1.1C126.7,82.2,128.2,81.6,126.8,79.8z"/>
	<path class="st182" d="M138.8,95.4c0.2,0,0.4,0,0.5,0c0.4,1.4,0.8,2.8,1.2,4.2c-0.2,0.3-0.4,0.3-0.7,0c-0.2-0.1-0.3-0.1-0.5-0.2
		c-1.2-0.3-1.3-1.3-1.4-2.3C138.1,96.4,138.2,95.8,138.8,95.4z"/>
	<path class="st97" d="M139.9,99.6c0.2,0,0.4,0,0.7,0c0,1,0,2.1,0,3.1C139.9,101.8,139.9,100.7,139.9,99.6z"/>
	<path class="st157" d="M96.8,131.4c-0.4,0.8-1.3,1.3-1.2,2.4c-2.3-0.3-0.8-2-1.2-3c0-0.5,0.1-0.9,0.6-1.2c0.8,0,1.6,0,2.4,0
		C97.7,130.4,96.7,130.7,96.8,131.4z"/>
	<path class="st126" d="M91.4,130.8c0-0.2,0-0.4,0-0.6c0.2-1.4,1.1-1.9,2.4-1.8c0.2,0,0.4,0.1,0.6,0.1c-0.4,0.6-0.8,1.2-1.3,1.7
		C92.6,130.4,92,130.6,91.4,130.8z"/>
	<path class="st183" d="M113.6,121.8c-0.6-0.9-1.6-0.5-2.4-0.6c-0.3,0.2-0.5,0.1-0.7-0.1c0.4-1.3,1.5-1.1,2.4-1.2
		c1-0.1,2,0.3,2.4-1.1c0.3-1.2,0-2-0.6-3c-1.7-2.8-4.2-3.9-7.3-4.1c1.3-2.2,3.3-2.6,5.7-1.1c1.8,1.2,3.6,2.6,5.7,3.2
		c2.3,0.7,4.9-0.6,4.6-2.7c-0.5-3.2,1.3-4.7,3.4-6.2c2.2,1.2,2.3,3.4,2.7,5.5c0.1,0.7-0.1,1.4,0,2.1c0.3,3.2,0.5,3.5,3.8,3.8
		c0.5,0,1,0.1,1.4,0.3c0.3,0.2,0.5,0.4,0.5,0.7c-3.4,2-6.8,4-10.9,3.9c-1.9,2.4-4.5,1-6.7,1C116.3,122.1,115,121.8,113.6,121.8z"/>
	<path class="st183" d="M138.8,97.2c0,0.8,0.1,1.6,0.6,2.3c-0.3,3.6,0.7,7,0.6,10.6c0,3.1-1,5.1-3.7,6.3c-0.3,0.3-0.5,1-1.2,0.6l0,0
		c-0.6-0.6-0.8-1.4-0.6-2.2c0.3-1.2,0.2-2.1-0.7-3.2c-1.3-1.7-0.9-3.9,0.9-5.2c2.7-1.9,2.5-4.6,2.3-7.3c-0.1-0.8-0.1-1.6,0.8-2
		C138.3,96.9,138.6,97,138.8,97.2z"/>
	<path class="st184" d="M135.2,117c0.4-0.2,0.8-0.4,1.2-0.6c-0.1,3.7-1.1,4.7-4.8,4.8c-2.4,0-4.8,0-7.2,0c0.8-0.9,1.8-0.5,2.8-0.6
		c0.8-0.1,1.9,0,2.2-0.5C130.7,117.8,133.1,117.7,135.2,117z"/>
	<path class="st185" d="M87.8,80.4c-0.3-0.6-0.6-1.1-1.3-1.1c-1.2,0-6.8,4.7-7.1,5.9C79,86.6,78.8,88,77,88.2
		c1.4-4.3,3.6-8,7.8-10.2c2.4-0.6,4.3-0.1,5.4,2.4C89.4,81.2,88.6,80.9,87.8,80.4z"/>
	<path class="st185" d="M77,88.8c-0.1,1.3,0.5,2.8-1.2,3.6C75.7,91,75.8,89.7,77,88.8z"/>
	<path class="st186" d="M87.8,80.4c0.8,0,1.6,0,2.4,0c0.2,0,0.4,0,0.6,0c0,0.1,0.1,0.2,0.1,0.4c-0.1,0.9-1,1.5-1.1,2.4
		c-0.2,0.7-0.7,1.1-1.3,1.4c-0.8,0.2-1.5,1.1-2.5,0.7c0-0.9,0-1.8,0-2.7c0-0.4,0.3-0.8,0.8-0.5c0.4,0.2-0.2,1.9,1.1,0.8
		C88.8,82.1,88.2,81.2,87.8,80.4z"/>
	<path class="st187" d="M90.8,76.8c0.3-0.5,0.7-0.6,1.2-0.6c0.9,0.8,1.8,1.6,1.8,2.9c0,0.3-0.1,0.6-0.2,0.9
		c-0.3,0.6-0.9,0.9-1.5,0.9c-0.5,0-0.9-0.2-1.2-0.6c0,0,0,0,0,0C91.4,79.2,90.5,78,90.8,76.8z"/>
	<path class="st188" d="M93.8,73.8c4.6-0.9,9.2-0.3,13.8,0.5c2.1,0.4,4.3,0,6.5,0.1c1,0,2.2-0.4,3.1,0.6c-2.4,0.3-4.9-0.7-7.2,0.6
		c-2.3,1.7-4.6,0.3-7,0.3c-2.5-0.2-5-1.3-7.6-0.3c-0.7,0.3-1.5,0.7-2.3,0c-0.7,0-1.4,0.1-1.8-0.6C92.3,74.9,93.2,74.6,93.8,73.8z"/>
	<path class="st189" d="M93.2,75.6c0.6-0.2,1.2-0.4,1.8-0.6c0.4-0.3,0.8,0,1.2,0.2c1.6,1,4.3,0.4,4.4,3.4c-0.2,0.3-0.4,0.4-0.7,0.6
		c-2.2,0-4.4,1.6-6.6,0.1c-0.4-1-0.8-2-1.2-3C92.5,76.2,92.9,76.1,93.2,75.6z"/>
	<path class="st190" d="M113.6,125.3c-1.6,0-3.2,0.5-3.8-1.9c-0.3-1.2-1.9-1.7-3.4-1.1c-1.6,0.8-2.8,2-4.2,3
		c-2.8-0.4-5.2,1.1-7.7,1.8c-0.4-1.1,0.5-1.9,0.8-2.8c0.9-1.6,2.9-1.3,4.1-2.3c1.6-0.5,3.3-0.5,4.8-1.3c1.3-0.3,2.5-0.3,3.8-0.1
		C110.5,121.3,112.7,122.6,113.6,125.3z"/>
	<path class="st191" d="M95.6,124.8c0.1,1-0.8,1.6-1.2,2.4c-0.2,0.2-0.4,0.4-0.7,0.6c-1.1,1.1-3.7-0.9-4.1,2c0,0.2-2.4,0.4-3.6-0.2
		c0-0.4,0-0.8,0-1.2C87.7,124.3,91.4,122.9,95.6,124.8z"/>
	<path class="st190" d="M86,129.6c1.2,0,2.4,0,3.6,0c-0.9-1.1-1.2-2.1,0.7-2.4c1.2-0.2,2.3,0.4,3.5,0.6c0,0.2,0,0.4,0,0.6
		c-0.8,0.6-1.6,1.2-2.4,1.8c-2-0.1-4.1,0.7-6.1-0.5C85.5,129.6,85.8,129.6,86,129.6z"/>
	<path class="st177" d="M113.6,125.3c-1.5-1.7-3-3.5-5.4-4.1c0.1-0.1,0.2-0.2,0.3-0.3c0.5-0.3,1-0.3,1.5-0.2
		c0.2,0.1,0.5,0.2,0.6,0.4c0.2,0,0.4,0,0.6,0c1.1,2,3.6,2.3,4.8,4.2C115.2,125.4,114.4,125.3,113.6,125.3z"/>
	<path class="st192" d="M102.1,125.3c1.2-1.3,2-3.1,4.2-3C105.4,124,103.9,124.9,102.1,125.3z"/>
	<path class="st193" d="M96.8,131.4c-0.9-0.5-0.9-0.5,0.6-1.8c0.6-0.9,1.6-0.5,2.4-0.6c2.7,0.7,5.5,0.6,8.3,1.2c-1.6,0-3.1,0-4.7,0
		c-1.7,1.1-3.5,1-5.4,0.6C97.6,131,97.2,131.2,96.8,131.4z"/>
	<path class="st194" d="M98,130.7c1.7-0.9,3.6-0.5,5.4-0.6c0,0.2,0,0.4,0,0.6c-1.2,1.2-2.8,0.6-4.1,1c-0.5,0-1-0.1-1.3-0.5
		C98,131.1,98,130.9,98,130.7z"/>
	<path class="st195" d="M99.1,131.4c1.3-1.1,2.8-0.4,4.2-0.6c0.4,0,0.8,0,1.1,0c0.2,0.3,0.2,0.6-0.1,0.9c-1.3,0.7-2.6,0.5-3.9,0.4
		C99.9,132,99.5,131.8,99.1,131.4z"/>
	<path class="st100" d="M104.6,131.4c0-0.2,0-0.4-0.1-0.5c1.6,0,3.2,0,4.9,0c0,0.2,0,0.4,0,0.6c-0.2,0.2-0.5,0.4-0.8,0.5
		c-1.1,0.3-2.2,0.3-3.3,0C105,131.8,104.8,131.6,104.6,131.4z"/>
	<path class="st196" d="M114.1,135.5l-0.2,0l-0.2,0c-2.5-0.4-5-0.1-7.4-0.2c-1.1-0.2-2.3-0.3-3.4-0.2c-0.5-0.1-1-0.2-1.3-0.6
		c-0.1-1.1,0.6-1.5,1.5-1.8c2.7-0.5,5.4,0,8-0.2c1.7-0.1,3.8-2.1,5,0.9C115.8,134.3,114.2,134.2,114.1,135.5z"/>
	<path class="st197" d="M116,133.2c-1.3-2.2-3.2-0.5-4.8-0.6c-0.7,0.5-1.5,0.2-2.3,0.2c-0.4-0.4-0.4-0.8,0-1.2
		c0.2-0.1,0.4-0.1,0.5-0.2c2,0.9,3.9-0.6,5.9-0.1C116.9,131.4,115.9,132.5,116,133.2z"/>
	<path class="st198" d="M101.6,134.4c0.4,0,0.7,0.1,1.1,0.1c1,0.6,2.2-0.1,3.1,0.5c2.6,0.5,5.3-0.5,7.9,0.5
		c-0.8,0.1-1.6,0.2-2.5,0.3c-2.8-0.1-5.6-0.3-8.4,0.5c-0.9,0-1.5-0.4-1.9-1.2C100.8,134.4,101.1,134.2,101.6,134.4z"/>
	<path class="st199" d="M99.1,131.4c0.4,0,0.8,0,1.3,0.1c0.2,0.2,0.3,0.5,0.4,0.8c0,0.5-0.1,0.9-0.4,1.2c-0.4,0.1-0.9,0.2-1.2-0.2
		c-0.6,0-1,0.1-1.3,0.6c-1-0.9-0.2-1.7,0.1-2.5C98.4,131.3,98.8,131.3,99.1,131.4z"/>
	<path class="st200" d="M99.2,133.2c0.4,0,0.8,0,1.2,0c0.6-0.9,1.3-1.4,2.3-0.8c0.3,0.2,0.3,0.5,0,0.8c-0.6,0.2-1,0.6-1.1,1.2
		c-0.2,0.2-0.5,0.4-0.7,0.6C100.3,134.4,99.8,133.8,99.2,133.2z"/>
	<path class="st201" d="M90.2,100.2c-1.9-1.3-3.5-0.9-5,0.7c-0.5,0.5-0.9,1.1-1.7,1.1c-1.1-1.3-0.8-2.8-0.9-4.3c0-1.7,0-3.4-0.6-5
		c-0.4-1.8,0.5-2.6,2.2-3c0.2,0,0.4,0.3,0.7,0.3c-0.3-0.1-0.3-0.4-0.4-0.7c0.6-2,1.8-2.9,3.8-1.9c0.7,1.9,2,2.9,4.2,3.1
		c2.4,0.2,4.4,2.5,7.1,2.2c2.1,0.4,4.7-1.1,6.1,1.7c0.2,2-0.7,2.6-2.6,2.5c-2.3-0.1-4.6-0.5-6.8,0.3c-1.9,1-3.9,1.8-5.8,2.8
		C90.4,100.1,90.3,100.2,90.2,100.2z"/>
	<path class="st202" d="M82.4,92.4c1.4,0.2,1.2,1.3,1.2,2.3c0,2.4,0,4.9,0,7.3c-1.6,1.2-1.9,3.5-3.7,4.6c-0.2,0.1-0.2,0.7-0.1,0.8
		c2.3,2.2,0.2,5.1,1.3,7.6c0.2,0.5,0.5,1.8-0.8,1.8c-0.7,0-1.5-0.4-1.4-1.3c0.1-1.4,1.4-2.8-0.5-4.2c-0.3-0.2-0.4-2.7,0.2-4.2
		c0.3-0.7,1.6-2.7-1.2-2.7c-0.7,0-0.2-1.6-0.3-2.4c0.8-2,1.6-4,2.4-6C80,94.5,79,91.6,82.4,92.4z"/>
	<path class="st203" d="M89.5,102c0.2-0.6,0.4-1.2,0.7-1.8c0,0,0,0,0,0c0.3-0.4,0.7-0.4,1.1-0.2c0.2,0.2,0.3,0.4,0.4,0.6
		c0.1,0.4-0.1,0.9,0.5,1.1c0.8,0,1.5-0.4,2.3-0.5c2.7-0.5,5.4-1.1,8.1-0.2c0.3,0.2,0.5,0.5,0.4,0.8c-0.2,0.3-0.4,0.5-0.7,0.7
		c-3.3,0.9-6.9,0.8-10.2,1.8c-0.3,0-0.6,0-0.9-0.1c-0.4-0.1-0.8-0.4-1.1-0.7C89.7,103.1,89.5,102.6,89.5,102z"/>
	<path class="st170" d="M89.5,102c0.5,0.2,0.6,0.7,0.7,1.2c0.3,0.8,0,1.4-0.5,2c-0.8,0.4-1.5,0.1-2-0.5c-0.2-0.3-0.1-0.6,0.1-0.8
		c0,0,0,0,0,0C88.6,103.4,88.3,101.9,89.5,102z"/>
	<path class="st204" d="M82.4,92.4c-2.5-0.1-1.9,2.5-3,3.6c-0.3,0-0.5,0-0.8-0.1c0.3-1.8,1.2-3.4,2.4-4.8c2.4-2.5,4.5-5.2,7.3-7.1
		c0.4-0.4,0.7-0.8,1.1-1.3c0.2-0.2,0.5-0.3,0.8-0.5c0.6-0.1,1.2,0,1.7,0.3c0.9,2.9-2,3.2-3.1,4.8c-0.1,0.1-0.3,0.1-0.4,0.1
		c-2-0.3-3,0.7-3.6,2.4l0,0C83.8,90.6,82.4,90.8,82.4,92.4z"/>
	<path class="st205" d="M88.4,84c-2,2.8-4.6,5-7.3,7.1c0.3-1.6,1.9-2.3,2.5-3.6c0.7-0.9,1.4-1.7,2.4-2.3c0,0,0,0,0,0
		C86.9,85,87.3,83.9,88.4,84z"/>
	<path class="st185" d="M86,85.2c-0.7,0.9-1.4,1.7-2.4,2.3C83.8,86.2,84.6,85.3,86,85.2z"/>
	<path class="st206" d="M87.8,104.4c0.6,0.2,1.2,0.4,1.8,0.6c1.2,1.2,0.4,3.1,1.4,4.5c0.6,0.9,1.1,1.3,2,0.5
		c0.8,0.1,1.6,0.2,2.5,0.3c0.4,0.1,0.8,0.2,1.1,0.5c0.2,1.3,1.1,1.4,2.2,1.2c1.5,0,2.7-2.6,4.4-0.4c0,2.3-2.3,2.5-3.5,3.7
		c-1.7,1.6-1.8,2.2,0.1,3.6c1.2,0.9,2.6,1,4,1c1.3,0,2.6-0.2,3.9,0.3c0.4,0.2,0.7,0.5,0.6,1c0,0,0,0,0,0c-1.4,0-2.8,0-4.2,0
		c-2.3,0.8-4.6,0.9-6.9,0.2c-0.3-0.2-0.7-0.4-1-0.6c-5.5-3.3-6.2-3.3-11.3,0.3c-0.4,0-0.8,0-1.2,0c0-0.4,0-0.8,0-1.2
		c0.8-1.8,1.2-3.7,2.5-5.5c1.2-1.6,0.9-4.4,0.5-6.6C86.4,106.3,86.7,105.3,87.8,104.4z"/>
	<path class="st207" d="M87.8,104.4c-0.5,1.5-0.2,2.9-0.1,4.4c0.3,4.3-1.5,7.9-4.1,11.2c0-3.3,0.2-6.6-0.1-9.8
		c-0.3-3.4,0.9-5.6,4.3-6.4C87.8,104,87.8,104.2,87.8,104.4z"/>
	<path class="st208" d="M84.8,121.2c1.6-3.4,6.1-4.7,9.1-2.6c1,0.7,1.9,1.3,2.9,2c-1.1,1.6-2.8,1.2-4.3,1.4
		c-1.8,0.2-3.8-0.7-5.4,0.8c-0.3,0.7-0.4,1.5-1,2c-0.4,0-0.8,0-1.2,0C84.8,123.6,84.8,122.4,84.8,121.2z"/>
	<path class="st209" d="M86,124.8c0-0.8,0-1.6,0-2.4c4.4-0.9,8.8-1.1,13.2,0c-0.3,2.2-3.2,0.4-3.6,2.4c-3.8-0.4-7.2,0.2-9.6,3.6
		C85.5,127.2,86,126,86,124.8z"/>
	<path class="st210" d="M100.4,78.7c-0.7-2.5-3.4-1.8-4.8-3.1c1.3-1,2.9-0.6,4.3-0.5c1,0.1,1.9,0.5,2.9-0.1c2.4,0.1,4.8,0.9,7.2,0.6
		c3.6,1.1,7.2,1.9,10.8,2.6c1,0.2,0.8,2.3,2.6,2.3c-0.7,0.8-1.4,0.4-2,0.5c-0.1,0-0.3,0-0.4-0.1c-1.2-0.6-2.4-1.1-3.8-1.2
		c-0.3,0-0.5-0.1-0.8-0.2c-0.9-0.3-1.8-0.3-2.7-0.5c-0.3,0-0.5-0.1-0.8-0.2c-1.7-0.1-3.3-0.6-5-0.7c-1.6,0-3.1-0.2-4.7,0.2
		c-0.7,0.2-1.4,0.3-2,0.5C101,78.9,100.7,78.8,100.4,78.7z"/>
	<path class="st211" d="M125.5,82.9c0.3,0.4,0.6,0.6,1.1,0.6c1.3,0.5,3.2,0.2,3.2,2.4c-0.7,0.5-1.4,0.3-2.2,0.1
		c-2.7-0.7-4.8-2.8-7.6-3.3c-1.7-1-4.3-0.6-5.3-2.9c0.5-0.5,1.1-0.5,1.8-0.3c1.8,0,3.4,0.5,4.8,1.6c0,0,0,0,0,0
		c0.5,0.5,1,0.6,1.7,0.6C123.9,82,124.9,82.1,125.5,82.9L125.5,82.9z"/>
	<path class="st181" d="M125.5,82.9c-1-0.1-1.8-0.5-2.5-1.2C124.1,81.5,125.1,81.6,125.5,82.9z"/>
	<path class="st212" d="M127.9,85.2c0.7,0.2,1.3,0.3,2,0.5c0.4-0.3,0.7-0.3,1.1,0.1c0.4,0.4,0.8,0.8,1.2,1.2
		c0.3,0.3,0.4,0.7,0.2,1.2c-1.2,1.1-2-1-3.2-0.4c-0.8-0.5-1.7-0.7-2.4-1.2C126.4,85.4,127.5,85.7,127.9,85.2z"/>
	<path class="st213" d="M131,85.9c-0.4,0-0.7-0.1-1.1-0.1c-1.1-0.8-2.2-1.5-3.3-2.3C129.4,81.9,130.2,83.8,131,85.9z"/>
	<path class="st214" d="M138.8,97.2c-0.2,0-0.4,0-0.6,0c-1.3-1.6-1.8-3.4-1.7-5.4c0.1-0.3,0.3-0.5,0.5-0.7c1.2-0.1,0.8,1,1.2,1.5
		c-0.3,1.1,0.5,1.9,0.7,2.8C138.8,96,138.8,96.6,138.8,97.2z"/>
	<path class="st212" d="M134.6,88.8c0.2,0,0.4,0,0.6,0.1c0.3,0.3,0.5,0.7,0.5,1.2c-0.2,1.3-0.9,1.4-1.9,0.9
		c-0.9-0.7-1.7-1.4-0.4-2.4C133.8,88.4,134.2,88.5,134.6,88.8z"/>
	<path class="st136" d="M138.1,92.6c-0.3-0.5-0.7-1-1-1.5c-0.7-0.3-1-0.9-0.8-1.7C138.2,89.7,138.2,91.1,138.1,92.6z"/>
	<path class="st214" d="M136.2,89.5c0.3,0.5,0.9,0.9,0.8,1.7c0,0-0.2,0.2-0.2,0.2c-1.4,0.6-1.2-0.8-1.7-1.3c0-0.4,0-0.7,0-1.1
		C135.5,89.1,135.9,89.3,136.2,89.5z"/>
	<path class="st214" d="M134.6,88.8c-0.4,0-0.9,0-1.3,0.1c-0.6,0.2-0.9-0.1-1.1-0.7c0-0.4,0-0.8,0-1.1
		C133.2,87.4,134.1,87.8,134.6,88.8z"/>
	<path class="st215" d="M137.6,99c0.9,0.5,1.6,1.2,0.8,2.1c-1,1-0.8,2.2-0.8,3.3c0,1.2-0.6,1.7-1.6,2.2c-2.7,1.4-2.9,3.3-0.5,5
		c0.8,0.5,0.9,1.1,0.4,1.7c-1,1.1-0.8,2.4-0.8,3.7c-0.5,0-1,0-1.5,0c-4.4,0-5.5-1.1-5-5.5c0.3-2.5-0.6-4.5-1.9-6.5
		c-0.4-0.3-0.5-0.8-0.6-1.2c0-0.8,0.3-1.5,1-1.9c1.9,0,3.6,1.7,5.7-0.1c0.8-0.7,1.4,1,2.2,1.6C136.1,101.9,136.2,100.1,137.6,99z"/>
	<path class="st216" d="M126.8,103.8c0,0.4,0,0.8,0,1.2c-0.1,0.3,0,0.7-0.2,0.8c-2.1,1.6-2.4,3.7-2.3,6.2c0.1,1.6-3.5,3.5-5.1,2.9
		c-2.1-0.9-4.2-1.7-5.9-3.3c-1.9-1.8-3.8-1.7-5.8,0c0.4,2.1-0.1,3.5-2.6,3.4c-0.7-1.3-0.7-2.5-0.1-3.8c0.3-0.4,0.7-0.7,1.1-1
		c4.7-3.5,4.7-3.5,9.4-0.6c0.9,0.3,1.8,0.6,2.8,0.6c0.3,0,0.5,0,0.8,0c1.8-0.1,1.6-1.7,2-2.8c0.2-0.6,0.4-1.3,0.7-1.9
		c0.7-1.3,2-1.6,3.3-2.2c0.3-0.2,0.7-0.4,1.1-0.4C126.4,103.1,126.5,103.5,126.8,103.8z"/>
	<path class="st217" d="M105.2,115.2c1.3-0.9,2-2.1,2.4-3.6c4.7-1.7,6.3,2.1,8.5,4.7c1.1,1.3-0.1,2.9-0.4,4.2
		c-0.2,1.1-1.5-0.1-2.4,0c-0.9,0.2-2-0.3-2.8,0.6c0,0-0.3,0-0.3,0l-0.3,0c-0.6-0.4-1.4-0.4-1.8-1
		C106.4,118.9,103.7,118.3,105.2,115.2z"/>
	<path class="st218" d="M137.6,99c0.1,1.8-1.4,3-1.5,4.7c0,0.3-0.6,0.8-1.1,0.9c-0.8,0.1-0.9-0.6-1-1.2c-0.2-1.1-1-2-1.6-0.8
		c-1.4,2.7-2.4,1.1-3.7,0.1c-0.4-0.3-0.9-0.5-1.3-0.7c-1.5-0.4-0.3-1-0.1-1.5c1.4-1.2,3.2-1.6,5-1.5c2.2,0.1,2.5-0.9,2.2-2.7
		c-0.3-1.9-1.5-3.7-0.4-5.7c0.6,0.3,1.2,0.5,1.2-0.6c0.6,0.4,1.1,0.9,1.7,1.3c0.4,2,0.9,3.9,1.3,5.9C137.5,97.6,137.6,98.3,137.6,99
		z"/>
	<path class="st152" d="M90,82.7c-0.2,0-0.3,0-0.5,0.1c-0.4-1.3,1.2-1.4,1.3-2.4c0.4,0,0.9,0.1,1.3,0.1C92.2,82,91,82.3,90,82.7z"/>
	<path class="st219" d="M90,82.7c0.7-0.7,1.4-1.5,2.1-2.2c0.4-0.2,0.8-0.3,1.2-0.5c2.3-1,4.8-0.8,7.1-1.3c0,0,0,0,0,0
		c0.2,0.1,0.4,0.1,0.5-0.1c4.2-1,8.4-0.7,12.6,0.1l0,0c0.9,0.7,2.2-0.2,3,0.6l-0.1,0c0.2,0.1,0.3,0.2,0.3,0.3c0,0.1-0.1,0.2-0.2,0.2
		c-0.6,0-1.2,0.1-1.8,0.1c-0.6,0.5-1.2,0.5-1.9,0.4c-4-0.4-7.9-0.6-11.8,0.2c-3,0.2-5.8,1.1-8.6,2.2c-0.1,0-0.3,0.1-0.4,0.1
		C91.3,82.8,90.7,82.7,90,82.7z"/>
	<path class="st220" d="M100.4,78.7c-2.3,0.9-4.7,1.2-7.1,1.3c0-0.3-0.1-0.5-0.1-0.8C95.6,79.4,98,78.2,100.4,78.7z"/>
	<path class="st154" d="M102.8,75c-2.3,1.2-4.8,0.3-7.2,0.6c-0.2-0.2-0.4-0.4-0.6-0.6C97.6,73.4,100.2,75.1,102.8,75z"/>
	<path class="st177" d="M99.2,122.4c-4.4,0-8.8,0-13.2,0c0.3-1.7,1.6-1.1,2.6-1.2c2.7-0.1,5.5,0.3,8.2-0.6c2.3,1.1,4.8,0.4,7.2,0.6
		C102.7,122.7,100.9,122.3,99.2,122.4z"/>
	<path class="st161" d="M108.8,120c0.4,0.4,0.8,0.8,1.2,1.2c-0.6,0-1.2,0-1.8,0c-0.2-0.2-0.4-0.4-0.6-0.6c-0.2-0.2-0.2-0.5,0-0.8
		C108,119.7,108.4,119.7,108.8,120z"/>
	<path class="st221" d="M100.4,132c0-0.2,0-0.4,0-0.6c1.4,0,2.8,0,4.2,0c0.2,0,0.4,0.1,0.5,0.2C103.7,133.6,102,131.9,100.4,132z"/>
	<path class="st222" d="M100.4,132c1.6-0.2,3.2,0.5,4.7-0.5c1.2,0,2.5,0,3.7,0.1c0,0.3-0.1,0.7-0.1,1c-2,0.5-4,0.5-6,0
		c-0.9-0.1-1.6,0.2-2.4,0.6C100.4,132.8,100.4,132.4,100.4,132z"/>
	<path class="st223" d="M102.7,132.6c2,0,4,0,6,0c0.8,0,1.6,0,2.4,0c-2.8,1.2-5.6,0.3-8.5,0.5C102.8,132.9,102.8,132.8,102.7,132.6z
		"/>
	<path class="st223" d="M105.8,135c-1.1,0-2.2,0.2-3.1-0.5C103.7,134.5,104.9,134,105.8,135z"/>
	<path class="st224" d="M113,79.8c0.6,0,1.2,0.1,1.8,0.1c1.7,0.9,3.8,1.1,5.4,2.3c0.2,0.6-0.2,0.8-0.6,1c-0.7,0.3-1.4,0.2-2.1,0
		c-1-0.5-1.7-1.6-3.1-1.1c-0.7,0.1-1.4,0.1-2-0.2c-0.3-0.1-0.5-0.2-0.8-0.4c-3.2-0.1-6.3,0.3-9.5,0.9c-1.3,0.5-1.3,1.6-1.2,2.7
		c0.3,2.3,4.3,6.2,6.6,6.6c0.4,0.1,0.8,0.1,1.1,0.3c1.4,0.9,2.1,2.8,4.3,2.6c0.8-0.1,0.7,0.8,0.4,1.3c-0.4,0.8-1.1,1.4-1.9,1.7
		c-3,1-4.4-1.4-6.3-2.9c-1.6-2.6-4-0.6-6-1.2c0.2-1.2-0.3-1.7-1.6-1.7c-2,0.1-2.8-1.1-2.8-3c0-2-0.3-4.1,0.4-6.1
		c1.4-1.9,3.5-2.4,5.7-2.7C104.9,79.6,108.9,79.1,113,79.8z"/>
	<path class="st225" d="M95.6,82.8c0,0.2,0,0.4,0,0.6c0,2.2-0.4,4.5,0.1,6.5c0.8,2.9,4,0.1,5.5,1.8c-0.2,1.1-1.6,1-2.1,1.9
		c-1.8,0.2-3.3-0.6-4.7-1.5c-0.9-0.6-1.7-1-2.7-0.9c-2.9,0.4-3.7-1-3.4-3.6c0,0,0,0,0,0c2.3-1.4,3.7-4.1,6.4-5
		C95.1,82.5,95.4,82.6,95.6,82.8z"/>
	<path class="st226" d="M105.2,94.8c0.8,0,1.7,0,2.1,0.7c1.1,1.8,2.7,1.9,4.5,1.7c0.6-0.2,0.7,0.1,0.8,0.6c-0.1,0.4-0.4,0.7-0.7,1
		c-1.3,1.5-2.6,1.9-4.2,0.4c-0.9-0.8-2-1.2-3.2-1.3c-0.3,0-0.6-0.1-0.8-0.1c-1.1-0.4-2.3-0.4-3.5-0.4c-1.5-0.2-3.1,0.4-4.6-0.2
		c0.2-1.3,1.1-1.2,2-1.2c2.1,0.1,4.1,0,6.2,0.3C105.3,96.5,105.1,95.7,105.2,94.8z"/>
	<path class="st227" d="M95.6,97.2c1.5-0.9,3.2-0.5,4.8-0.6c0.3,0.7-0.1,1.1-0.6,1.4c-3,0.2-5.6,1.6-8.5,2.1c-0.3,0-0.7,0-1,0.1
		C91.3,98,93.6,97.9,95.6,97.2z"/>
	<path class="st228" d="M84.8,90c1,0.1,1.3,0.7,1.1,1.6c-0.1,0.2-0.5,0.5-0.5,0.4C84.4,91.5,84.9,90.7,84.8,90
		C84.8,90,84.8,90,84.8,90z"/>
	<path class="st229" d="M96.7,111c-0.4,0-0.7,0-1.1-0.1c-0.7-0.4-1.7-0.5-1.9-1.5c-0.6-1.3-1.2-2.7-2.5-3.5
		c-0.8-0.5-1.1-1.4-0.3-2.2c0.2,0,0.4,0,0.6,0c3.6-0.5,7.3-0.8,10.8-1.8c0.2,0,0.4,0,0.6,0c0.3-0.2,0.6-0.2,0.8,0.1
		c0.3,3-1.9,2.9-3.9,3.1c-0.9,0.1-1.8,0-2.3,0.9c-0.8,1.5-0.2,3-0.4,4.5C96.9,110.8,96.8,110.9,96.7,111z"/>
	<path class="st230" d="M90.8,103.8c-0.1,2.4,3.1,2.4,3.4,4.6c0,0.3,0.1,0.5,0.2,0.8c-0.4,0.4-0.5,1.1-1.2,1.2
		c-2.4,1.2-3.2-0.3-3.6-2.2c-0.2-1,0-2.1,0-3.2c0.2-0.6,0.4-1.2,0.6-1.8C90.4,103.4,90.6,103.6,90.8,103.8z"/>
	<path class="st231" d="M91.2,100.2c2.5-1.9,5.5-2.5,8.6-2.8c1.6,0,3.5-0.8,3.9,1.8c-0.1,0.6-0.6,0.9-1.1,0.8
		c-3.7-0.6-7.3,0.1-10.8,1c-0.2,0-0.4-0.1-0.5-0.2C91.2,100.6,91.2,100.4,91.2,100.2z"/>
	<path class="st232" d="M91.3,100.8c3.9-1.9,8-2.2,12.2-1.2c0.1,0.6-0.3,0.9-0.8,1.1c-3.8,0.4-7.8-0.5-11.3,1.9
		C90.3,102,90.7,101.4,91.3,100.8z"/>
	<path class="st233" d="M102.2,102c-0.4,0.3-0.7,0.9-1.1,0.9c-3,0.1-5.9,0.5-8.8,1.3c-0.3,0.1-0.7-0.3-1-0.5
		C94.9,102.6,98.6,102.3,102.2,102z"/>
	<path class="st234" d="M91.4,102.6c0.9-2.3,3.1-2.2,5-2.3c2.2-0.2,4.4,0,6.6,0c0.1,0.4-0.1,0.6-0.4,0.8c-2.9,0.2-6-0.5-8.8,1
		C93.1,102.5,92.3,102.9,91.4,102.6z"/>
	<path class="st233" d="M102.7,100.8c0.1-0.2,0.2-0.4,0.2-0.6c0.3-0.1,0.5-0.3,0.5-0.6c-0.1-2.5-2.4-1.5-3.6-2.2
		c0.2-0.2,0.4-0.5,0.6-0.7c1.2,0,2.4-0.1,3.5,0.7c0.9,0.7,1.2,1.6,1.1,2.7c-0.3,0.9-0.6,1.7-1.6,2c-0.2,0-0.4,0-0.6,0
		c0-0.2,0-0.4,0-0.6c-0.2-0.1-0.3-0.2-0.2-0.4C102.6,100.8,102.7,100.8,102.7,100.8z"/>
	<path class="st232" d="M102.7,100.8c0,0.2,0,0.4,0.1,0.6c-3,0-6,0.1-9,0.6C96.5,99.7,99.8,101.2,102.7,100.8z"/>
	<path class="st201" d="M95,82.8c-2.3,1.5-3.8,4-6.6,4.8c0.4-2.2,3.4-2.4,3.6-4.8c0,0,0,0,0,0C93,82.1,94,81.9,95,82.8z"/>
	<path class="st235" d="M107.6,120c0,0.2,0,0.4,0,0.6c-3.2-0.3-6.7,1-9.5-2c-1.4-1.5-1.5-2.3,0.3-3.4c1.6-1,3.4-1.9,4.4-3.6
		c0.3-0.8-0.3-1.9,0.6-2.6c0.5-0.2,0.9-0.2,1.3,0.1c0.4,0.5,0.5,1.1,0.3,1.7c-0.1,1.3-0.3,2.7-1.2,3.8c-1.6,2-1.3,2.8,0.9,4.1
		C105.6,119.2,106.8,119.2,107.6,120z"/>
	<path class="st236" d="M103.4,109.2c-0.1,0.8,0.3,1.8-0.6,2.4c-1.9-1.4-2.5,1.9-4.2,1.2c-0.4-0.7-0.1-1.3,0.1-2
		c0.5-1.2,1.2-2.3,1-3.7c0-0.8-0.4-1.4-0.4-2.2c1.5-0.9,4-0.3,4.2-3c0.4-0.6,0.8-1.2,1.2-1.8c1.7,1.8-0.4,3.7,0.2,5.5
		C104.7,107,104.3,108.2,103.4,109.2z"/>
	<path class="st237" d="M99.1,110.8c-0.2,0.7-0.4,1.3-0.5,2c-0.6-0.6-3.6,1.4-1.9-1.7c0,0,0.2-0.2,0.2-0.2
		C97.6,110.3,98.4,110.3,99.1,110.8z"/>
	<path class="st237" d="M93.2,110.4c0.2-0.6,0.6-1,1.2-1.2c-0.1,0.9,0.8,1.2,1.2,1.8C94.8,110.9,93.8,111.3,93.2,110.4z"/>
	<path class="st238" d="M113.6,78.7c-4.2,0-8.4,0-12.6-0.1c0.4-0.7,1.1-0.6,1.8-0.6c1.7-0.8,3.7,0.2,5.4-0.6
		C110,77.9,111.9,77.6,113.6,78.7z"/>
	<path class="st238" d="M116.6,79.8c0-0.2-0.1-0.3-0.1-0.5c1.9-0.1,3.8-0.2,4.9,1.8C119.8,80.6,118.2,80.2,116.6,79.8z"/>
	<path class="st239" d="M108.2,77.4c-1.7,1.2-3.6,0.4-5.4,0.6C104.5,76.8,106.4,77.7,108.2,77.4z"/>
	<path class="st238" d="M116.6,79.3c-1,0-2.1,0-3-0.6C114.6,78.7,115.7,78.1,116.6,79.3z"/>
	<path class="st240" d="M119.6,82.8c0.2-0.2,0.4-0.4,0.6-0.6c3.1-0.2,4.9,2.6,7.7,3c-0.4,0.4-0.8,0.8-1.1,1.2
		c-1,0.3-1.7-0.7-2.5-0.8c-1.2-0.6-2.4-1.2-3.8-1.5C120,83.8,119.4,83.6,119.6,82.8z"/>
	<path class="st241" d="M119.6,82.8c0.3,0.5,0.7,0.6,1.2,0.6c0.7,0.4,1.2,1,0.8,1.8c-0.3,0.5-0.8,0.9-1,1.5
		c-0.3,0.8-0.4,1.6,0.4,2.2c0.8,0.6,1.7,0.4,2.4-0.2c0.5-0.5,0.8-1.1,1.4-1.5c1.5-0.5,3-0.3,4.4,0.5c1.4-1.7,1.8,1.2,3,0.6
		c0.4,0.2,0.8,0.4,1.1,0.7c-0.6,0.9,0.3,1.2,0.7,1.8c0.4,1.9,0.8,3.8,1.2,5.8c0.6,2.8,0,3.5-2.7,3.3c-1.8-0.2-3.4,0.6-5.1,1.2
		c-0.8,0.3-1.2-0.3-1.5-0.8c-0.1-0.4-0.3-0.8-0.9-0.6c-0.2,0.1-0.5,0.1-0.7,0.1c-0.5-0.1-1-0.4-1.4-0.7c-0.5-0.5-1-0.9-1.1-1.6
		c0.3-2.6-2.4-1.3-3.3-2.5c-0.2-0.2-0.4-0.4-0.5-0.7c0.8-4.1-0.3-6.1-4.1-7.7c-2.2-0.9-2.7-2.6-1.5-4.5c0.8,0,1.6,0,2.4,0
		c0.9,0.2,1.7,0.6,2.4,1.2C118,82.8,118.8,82.8,119.6,82.8z"/>
	<path class="st242" d="M129.2,87.6c-1.4,0.1-2.8-0.5-4.2,0c-0.7-0.5-1.1-1.2-0.9-2.1c0.1-0.1,0.2-0.2,0.3-0.3
		c1.1-0.2,1.7,0.6,2.4,1.2C127.7,86.5,129,86,129.2,87.6z"/>
	<path class="st183" d="M124.2,99.1c0.3,0,0.5-0.1,0.8-0.1c0.7-0.3,0.9,0.2,1.2,0.6c0.4,0.4,0.8,0.8,1.2,1.2c-0.1,0.4-0.7,0.8,0,1.2
		c-0.2,0.6-0.4,1.2-0.6,1.8c-0.2-0.2-0.4-0.4-0.6-0.6c-0.4-0.3-0.7-0.6-0.9-1c-0.2-0.4-0.4-0.8-0.6-1.2c-0.1-0.2-0.2-0.4-0.3-0.6
		C124.2,100,124.1,99.5,124.2,99.1z"/>
	<path class="st243" d="M104.6,111c0-0.6,0-1.2,0-1.8c0.1-0.2,0.3-0.4,0.6-0.6c2.1-1.1,2.5-2.6,1.6-4.9c-0.8-2.1-2.2-4.1-2.2-6.5
		c1.2-0.2,2.2,0.5,3,1.2c1.5,1.4,2.8,1.5,4.2,0c0.8,0.6,0.6,1.7,1.1,2.4c0.2,0.3,0.4,0.7,0.4,1.1c0.2,1.3,1,1.7,2.2,1.7
		c0.7,0,1.6-0.3,1.9,0.7c-1.2,1.8-1.8,3.9-2.1,6c-0.6,0-1.2,0-1.7-0.4c-2.8-2.5-3.5-2.5-6.2,0.1c-0.7,0.7-1.4,1-2.3,1
		C105,111.3,104.8,111.3,104.6,111z"/>
	<path class="st244" d="M104.6,111c0.2,0,0.4,0,0.6,0c0,1.4,0,2.8,0,4.2c-0.4,2.8,2.1,3.4,3.6,4.8c-0.4,0-0.8,0-1.2,0
		c-1.5,0.2-2.9-0.3-4.2-1.2c-2.1-1.4-2.3-2.8-0.4-4.5C104,113.5,104.7,112.4,104.6,111z"/>
	<path class="st245" d="M113,102c-0.2-0.2-0.4-0.4-0.6-0.6c-0.4-0.5-0.3-1.1-0.2-1.6c0.8-0.8,1.2,0.1,1.7,0.3
		c0.2,0.1,0.5,0.3,0.7,0.4c2.2,0.3,4.4-0.2,6.5,0.4c1.4,0.7,3,1,4.6,1.1c0.2,0.4,0.3,0.8,0.5,1.2c-0.2,0.2-0.4,0.4-0.6,0.6
		c-3.4,0.5-6.8,0.1-10.2,0C114.2,103.7,113.3,103.2,113,102z"/>
	<path class="st246" d="M115.4,110.4c-0.9-2.4,0-4.4,1.8-6c1.6-1.1,2.7-0.1,3.8,0.8c0.4,0.7,0.9,1.3,0.4,2.2
		c-0.2,1.7,0.2,3.8-2.6,3.5c0.5-1.4,0.5-2.8-0.5-4.2c-2.2,1.5,0.2,2.9,0.1,4.2C117.4,111.2,116.4,111,115.4,110.4z"/>
	<path class="st247" d="M120.8,105.6c-1.2-0.5-2.2-1.3-3.6-1.2c-0.9-0.6-1.9,0.4-2.8-0.1c-0.9-0.5-2.5-0.6-1.5-2.3
		c1.2,1,2.6,1.2,4.1,1.2c2.8,0,5.7-0.4,8.5,0.6c-1.2,0.6-2.4,1.2-3.6,1.8C121.6,105.6,121.2,105.6,120.8,105.6z"/>
	<path class="st248" d="M118.5,110.9c-1.5-0.8-2.5-1.8-2.1-3.7c0.3-1.2,1.1-1.6,2.2-1.5c1.1,0.1,0.8,0.8,1,1.6
		c0.6,1.6,1,2.7-0.8,3.7c0,0-0.2-0.1-0.2-0.1L118.5,110.9z"/>
	<path class="st183" d="M120.8,105.6c0.4-0.6,0.8-0.6,1.2,0c0,0.6,0.1,1.3-0.5,1.8C121.2,106.8,121,106.2,120.8,105.6z"/>
	<path class="st249" d="M114.7,117.8c-0.3,1.1-1.4,1.6-2.5,2c-0.5,0.2-4.7-3.6-4.5-3.9c0.7-1,1.1-2.4,2.7-2.5
		C111.5,113.4,114.8,116.7,114.7,117.8z"/>
	<path class="st204" d="M95,82.8c-1,0-2,0-3,0c2.2-2.6,5.4-2.4,8.4-3c0.2,0.1,0.3,0.3,0.2,0.4c-0.1,0.1-0.1,0.2-0.2,0.2
		c-1.6,0.8-3.2,1.6-4.8,2.4C95.4,82.8,95.2,82.8,95,82.8z"/>
	<path class="st211" d="M100.4,80.4c0-0.2,0-0.4,0-0.6c4.2-0.9,8.4-1.1,12.6,0C108.8,79.4,104.6,80.5,100.4,80.4z"/>
	<path class="st240" d="M101.6,81.6c3-0.4,6-0.7,8.9-1.1c0.7-0.1,1.4-0.2,1.9,0.5c-0.4,0.4-0.9,0.7-1.5,0.9c-2.5,1-2.6,1.5-0.7,3.3
		c1.1,1,2.4,1.7,3.9,2c3,0.4,3.7,1.2,3.8,4.2c0,1-0.3,2,0.5,2.8l0,0c0.3,0.4,0.4,0.8,0.1,1.2c-1.2,0.7-1.9-0.2-2.6-0.8
		c-0.9-0.8-2.1-1.2-3.2-1.6c-3.8-0.7-5.2-4.3-7.8-6.4c-1-0.8-1.7-2.1-2.8-3C101.6,83.1,100.9,82.5,101.6,81.6z"/>
	<path class="st250" d="M101.6,81.6c3.8,3.6,6.3,8.5,11.4,10.8c-1.4,2.3-2.8,0.7-4.2,0c-3,0.2-5.2,0-6.6-3.6
		c-0.8-2.1-2.9-3.7-1.7-6.4C100.7,81.8,101.1,81.7,101.6,81.6z"/>
	<path class="st242" d="M118.4,94.2c-1.5-0.7-1.1-2.1-1.2-3.4c-0.1-1.9-0.3-3.1-2.9-2.9c-2.9,0.2-4.8-2.1-6.4-4.2
		c-0.6-0.9-0.5-1.9,1-2.1c1.2-0.2,2.3-0.4,3.5-0.6c0,0.2,0,0.4,0,0.6c-0.7,2.3-0.1,3.9,2.6,3.8c1,0,1.5,0.5,1.9,1.2
		C118.2,88.9,120.7,91.1,118.4,94.2z"/>
	<path class="st251" d="M108.8,92.4c1.4-0.6,2.8,1.3,4.2,0c2.4,0,3.5,2.2,5.4,3c0.3-0.2,0.7-0.4,1,0c0.4,0.5,0,0.8-0.4,0.8
		c-1,0.1-2.1,0.3-3.1-0.1c2,0.7,4.3-0.6,6.1,1.1c0.4,0.4,0.8,0.8,1.2,1.2c-1.2,1.1-2.4,0.1-3.6,0.2c-2.1-0.7-4.2-0.4-6.4-0.3
		c-0.3-0.1-0.6-0.2-0.8-0.5c-0.2-0.2-0.4-0.4-0.6-0.6c0.5-0.6,0.9-1.3,1.7-2.4C110.2,96.6,109.7,94.1,108.8,92.4z"/>
	<path class="st240" d="M117.2,82.8c-1,0.1-1.9-0.1-2.4-1.2C116.3,80.6,116.8,81.5,117.2,82.8z"/>
	<path class="st252" d="M104.6,97.2c1,2.4,2.1,4.7,3.1,7.1c1.4,3.3-0.5,3.9-2.5,4.9c-1.2-0.9-0.1-2.6-1.2-3.6
		c-0.6-1.9,0.9-3.5,0.6-5.4c-0.2-1-0.5-1.9-0.7-2.9C104.1,97.2,104.4,97.2,104.6,97.2z"/>
	<path class="st247" d="M112.4,97.8c0.2,0,0.5,0.1,0.7,0.1c0.2,0.3,0.2,0.7,0.1,1c-0.2,0.4-0.5,0.5-0.8,0.6c0,0.6,0,1.3-0.1,1.9
		c-1-0.8-0.5-2-0.6-3C112,98.2,112.2,98,112.4,97.8z"/>
	<path class="st253" d="M99.1,110.8c-0.7,0-1.5,0-2.2,0c-1.4-1.7-0.7-3.5-0.1-5.2c1.6-0.8,2.7-0.3,3.5,1.2
		C100.5,108.3,100.4,109.7,99.1,110.8z"/>
	<path class="st233" d="M100.3,106.8c-1-1.1-2.2-1.3-3.5-1.2c0.6-1,1.4-1.1,2.4-0.7C100,105.4,100.5,105.9,100.3,106.8z"/>
	<path class="st254" d="M104,105.6c2.2,0.6,0.8,2.4,1.2,3.6c-0.2,0-0.4,0-0.6,0c-0.4,0-0.8,0-1.2,0C103.6,108,103.8,106.8,104,105.6
		z"/>
	<path class="st255" d="M101.3,109.9c-0.4-0.9-0.4-1.7,0.1-2.6C101.7,108.2,101.8,109,101.3,109.9z"/>
	<path class="st242" d="M121.4,85.2c-0.2-0.6-0.4-1.2-0.6-1.8c1.4,0.3,2.6,0.8,3.6,1.8c0,0,0,0,0,0C123.4,86,122.4,86.1,121.4,85.2z
		"/>
	<path class="st256" d="M121.4,85.2c1,0,2,0,3,0c0.2,0.8,0.4,1.6,0.6,2.4c-0.7,1.4-1.1,2.8-3.3,2.4c-1.1-0.2-2.3-0.1-2.1-1.7
		C119.7,87.1,118.8,85.1,121.4,85.2z"/>
	<path class="st257" d="M122,97.2c-2.2-0.3-4.4-0.5-6.7-0.8c1.2-0.7,2.4-0.2,3.5-0.4c0.1,0,0.1-0.1,0.2-0.2
		c-0.2-0.1-0.4-0.3-0.6-0.4c0-0.4,0-0.8,0-1.2c0.7,0.1,1.5,0.4,2.2,0.3C123.3,94.3,123.2,95.5,122,97.2z"/>
	<path class="st258" d="M119.6,97.8c1.2,0.2,2.4,0.4,3.6,0.6c0.3,0.2,0.7,0.5,1,0.7c0.3,0.4,0.5,0.7,0.8,1.1
		C122.6,100.6,120.7,100.2,119.6,97.8z"/>
	<path class="st257" d="M126.2,99.6c-0.4-0.2-0.8-0.4-1.2-0.6c0.3-0.5,0.7-1.2,1.3-0.9C127,98.4,126.3,99.1,126.2,99.6z"/>
	<path class="st259" d="M119.6,97.8c1.5,1.4,3.5,1.7,5.4,2.4c0.1,0.1,0.1,0.3,0.1,0.4c-1,2-2.2,0.4-3.3,0.2c-2-0.8-4.1-0.2-6.1-0.5
		c-0.3,0-0.6-0.1-0.8-0.2c-0.7-0.2-1.4-0.5-1.8-1.1c0.1-0.4,0.1-0.7,0.2-1.1C115.3,97,117.4,97.2,119.6,97.8z"/>
	<path class="st260" d="M122,100.2c1,0.3,1.9,1.2,3,0.4c0.7,0.2,0.6,0.8,0.7,1.4c-1.6,1.6-3,0.3-4.4-0.5c-2.5-1.1-5.3,0.1-7.8-0.7
		l0,0c-0.4-1.2-0.1-1.8,1.2-1.3l0,0C117.1,100.4,119.6,99.4,122,100.2z"/>
	<path class="st261" d="M113.5,100.8c2.6,0.3,5.3-0.9,7.8,0.7C118.8,100.9,116,102.1,113.5,100.8z"/>
	<path class="st261" d="M114.8,99.6c-0.8,0-1.2,0.5-1.2,1.3c-0.4-0.4-0.7-0.9-1.1-1.3c0.2-0.2,0.3-0.3,0.5-0.5
		C113.6,99,114.3,98.9,114.8,99.6z"/>
	<path class="st261" d="M122,100.2c-2.4-0.3-4.9,0.6-7.2-0.6C117.2,99.9,119.7,99,122,100.2z"/>
</g>
</svg>
