<?xml version="1.0" encoding="utf-8"?>
<!-- Generator: Adobe Illustrator 24.0.0, SVG Export Plug-In . SVG Version: 6.00 Build 0)  -->
<svg version="1.1" id="Layer_1" xmlns="http://www.w3.org/2000/svg" xmlns:xlink="http://www.w3.org/1999/xlink" x="0px" y="0px"
	 viewBox="0 0 504 504" style="enable-background:new 0 0 504 504;" xml:space="preserve">
<style type="text/css">
	.st0{fill:#055FAA;}
</style>
<path class="st0" d="M504,481.8c0-2.9,0-5.9,0-8.8c-2.2-7.9-6.3-14.3-14.1-17.6c-1.9-0.8-1.6-2.2-1.6-3.6c0-22.6,0-45.1,0-67.7
	c0-1.4-0.3-2.8,1.6-3.6c7.5-3.1,11.4-9.3,14.1-16.6c0-3.3,0-6.6,0-9.8c-0.7-6-2.7-11.3-7.8-15.1c-4.9-3.7-10.4-5.4-16.5-5.4
	c-10.5-0.1-21-0.1-31.4,0c-3.8,0.1-5.7-0.7-5.4-5.1c0.5-8.6-3-16-10.1-20.7c-5.6-3.7-5.7-8.5-5.4-14c0.1-2.5,1.2-3.5,3.6-3.6
	c4.1-0.1,8.2,0,12.3-0.1c7.6-0.1,9-1.8,7.8-9.3c-3.7-23-7.6-45.9-11.4-68.8c-0.5-3.2-0.3-6,1.7-8.8c10.6-15,5.1-35.6-10.1-43
	c-2.9-1.4-3.9-3.5-3.9-6.7c0.1-7.4,0.1-14.7,0-22.1c-0.1-6.3-1.1-7.6-6.8-9.9c-3-1.2-6.1-2.3-9.8-3.9c18.4-7.3,35.9-14.3,53.3-21.4
	c2.3-0.9,5.8-1.4,5.9-4.5c0.1-3.4-3.5-3.9-6-4.9c-15.6-6.3-31.3-12.6-47-18.8c-52.5-21-104.9-41.9-157.4-63
	c-4.1-1.6-7.9-2.4-12.3-0.6C179.2,31.9,111,59.1,42.9,86.4c-1.8,0.7-3.7,1.4-5.3,2.5c-2.5,1.8-2.5,3.7,0,5.5
	c1.7,1.3,3.8,1.9,5.8,2.7c25.5,10.3,51.1,20.5,76.6,30.7c3.4,1.4,4.8,3.2,4.8,6.9c-0.1,27.8-0.1,55.7,0,83.5c0,3.8-1.2,5.3-5.1,5.2
	c-8-0.2-16.1-0.1-24.1,0c-27.1,0.1-50.3,15.7-60.6,40.9c-9.8,24-3.8,51.9,15.3,70.6c3.6,3.6,3.6,3.5-0.9,5.7
	c-28.1,14.1-46.5,35.2-48.8,67.8c-0.8,10.8-1,21.7,1.6,32.2c4.6,18.3,15.3,32.8,29.9,44.4c11.6,9.2,24.7,14.4,39.5,15.5
	c137.9,0,275.8,0,413.8,0C494.8,497.5,501,491.2,504,481.8z M431.3,269c0.5,2.9-0.3,3.7-3.2,3.5c-3.6-0.2-7.2-0.1-10.8-0.1
	c-3.6,0-7.2-0.2-10.8,0.1c-3,0.2-3.2-1.1-2.8-3.4c3-17.7,6-35.4,8.8-53.1c0.5-3.4,2.7-2.7,4.7-2.5c2,0.1,4.6-1.4,5.2,2.4
	C425.3,233.7,428.2,251.4,431.3,269z M362.5,227.8c0,2.4-1.3,3.5-2.8,4.8c-12.9,11.6-28.2,19-44.8,23.4
	c-47.2,12.8-94.1,12.3-140.2-5.3c-11-4.2-21.2-10.2-30-18.3c-1.5-1.3-2.6-2.6-2.6-4.9c0.1-30.5,0.1-60.9,0.1-91.4
	c0-0.3,0.2-0.6,0.4-1.2c15.9,6.4,31.8,12.7,47.7,19c19.1,7.6,38.2,15.2,57.2,23c3.4,1.4,6.4,1.3,9.7-0.1
	c33.6-13.6,67.2-27,100.8-40.4c1.2-0.5,2.4-0.9,4.3-1.6C362.5,166.2,362.4,197,362.5,227.8z M378.2,176.2c0-14.6,0-29.2,0-43.7
	c0-4.5,2.9-6.8,7.2-5.2c7.4,2.6,14.6,5.7,22,8.3c2,0.7,2.3,1.9,2.3,3.7c-0.1,5.9-0.1,11.8,0,17.7c0,2.2-0.8,3-2.8,3.8
	c-17.6,8.1-22.3,27.6-10.4,42.9c1.2,1.6,1.8,3,1.4,4.9c-0.3,1.4-0.5,2.9-0.8,4.3c-0.7,4-0.2,9.4-2.6,11.7c-2.7,2.5-8.1,0.4-12.3,0.8
	c-3.2,0.3-4.1-0.7-4.1-4C378.3,206.3,378.2,191.2,378.2,176.2z M381.5,241.1c3.5,0.2,9.6-1.2,10,0.7c0.9,4.3-0.8,9.2-1.6,13.9
	c-0.3,1.9-2.1,1.1-3.2,1.1c-10.4,0.1-20.9,0-32.9,0c7.4-4.8,13.5-9.1,18.7-14.5c1-1,2.2-1.3,3.5-1.2
	C377.9,241.1,379.7,240.9,381.5,241.1z M213.3,277.5c33.6,5,66.8,3.8,99.8-4.4c1.9-0.5,3.8-0.7,5.8-0.7c21.3,0,42.6,0.1,63.8-0.1
	c3.8,0,5.2,0.7,3.7,4.5c-0.3,0.7-0.2,1.6-0.3,2.4c-1.3,8.9-1.3,8.9,7.9,8.9c4.1,0,8.2,0.1,12.3,0c2.4-0.1,3.4,0.4,3.4,3.1
	c0.4,12.6,0.5,12.6-12.1,12.6c-48.9,0-97.9,0-146.8,0c-51.2,0-102.5,0-153.7,0c-7.2,0-12.8-2.5-16.1-9.1
	c-5.2-10.7,2.5-22.3,14.9-22.3c25.9-0.1,51.7,0.5,77.6-0.2C187.3,271.9,200.1,275.5,213.3,277.5z M417.4,174.2
	c6.4-0.1,11.9,5.5,11.9,11.9c0,6.2-5.4,11.6-11.6,11.6c-6.4,0.1-12-5.5-11.9-11.9C405.8,179.7,411.2,174.3,417.4,174.2z M81.2,93.2
	c-0.9-0.3-1.7-0.8-3.5-1.6C87.8,87.5,97,83.7,106.3,80c47.3-18.9,94.5-37.8,141.8-56.7c2.4-1,4.6-1.7,7.4-0.6
	c56.2,22.6,112.4,45.1,168.6,67.6c0.7,0.3,1.5,0.6,2.2,0.9c-0.5,2-2.3,1.8-3.5,2.3c-11.9,4.9-23.9,9.6-35.9,14.5
	c-2.6,1.1-4.8,1.1-7.4,0.1C339.8,92.8,300,77.8,260.3,62.4c-4.3-1.7-5.7-0.8-7.2,3.4c-3.3,9.6-3.5,9.6,6,13.3
	c32.5,12.4,65,24.8,97.4,37.2c1.2,0.5,2.4,1,4.8,1.9c-15.1,6-29,11.6-42.9,17.2c-20.8,8.3-41.5,16.6-62.3,25c-2.3,0.9-4.4,1.3-7,0.3
	C193.2,138,137.2,115.6,81.2,93.2z M48.7,295.4c-4.4-27.4,15.8-52.7,43.6-54.2c12.1-0.6,24.2-0.2,36.3-0.2c1.1,0,2.2,0,3.2,0.9
	c5.4,5.4,11.4,10,17.7,14.8c-8.3,0-16.5,0-24.8,0c-9,0-18,0.4-27-0.1c-20.6-1.1-34.2,15.4-34.1,31.4c0.2,18.5,14,31.6,33.9,31.6
	c105.1,0,210.3,0,315.4,0c1.8,0,3.6-0.2,5.4,0.1c4.2,0.8,6.8,3.4,6.9,7.7c0,4.3-2.6,6.9-6.8,7.8c-1.3,0.3-2.6,0.1-3.9,0.1
	c-105.8,0-211.6,0-317.4,0C72,335.4,52.5,319.2,48.7,295.4z M341.9,414c41.9,0,83.8,0.1,125.8-0.1c4.2,0,5.1,1.1,5,5.1
	c-0.3,10-0.3,20,0,30c0.1,3.9-1.2,4.4-4.7,4.4c-64.5-0.1-129-0.1-193.5-0.1c-63.5,0-127.1,0-190.6,0c-18,0-31.9-10.4-36-26.7
	c-5.5-21.8,10.1-42.9,32.7-44c1.6-0.1,3.3-0.1,4.9-0.1c127.2,0,254.5,0,381.7-0.1c4.4,0,5.8,0.9,5.6,5.5
	c-0.4,10.3-0.1,10.3-10.5,10.3c-42.1,0-84.2,0.1-126.2-0.1c-4.1,0-5.2,1-5,5.1C331.2,414,331,414,341.9,414z M278.8,366.8
	c-65.5,0-131-0.1-196.5,0c-24.9,0-44.9,16.4-50.3,40.6c-6.8,30.6,17,61.2,48.5,61.4c39.1,0.3,78.3,0.1,117.4,0.1
	c92.9,0,185.7,0,278.6,0c8,0,11.8,2.5,11.8,7.8c0,5.3-3.9,7.9-11.8,7.9c-130.5,0-261.1,0-391.6,0c-33,0-59.5-21.1-66.7-52.8
	c-9.1-40.2,21.5-79.5,62.9-80.8c1.8-0.1,3.6,0,5.4,0c129.9,0,259.7,0,389.6,0c1.5,0,3-0.1,4.4,0c4.6,0.4,7.8,3.7,7.8,7.9
	c-0.1,4.2-3.3,7.4-8,7.7c-1.5,0.1-2.9,0-4.4,0C410.2,366.8,344.5,366.8,278.8,366.8z"/>
</svg>
