<?xml version="1.0" encoding="utf-8"?>
<!-- Generator: Adobe Illustrator 24.0.0, SVG Export Plug-In . SVG Version: 6.00 Build 0)  -->
<svg version="1.1" id="Layer_1" xmlns="http://www.w3.org/2000/svg" xmlns:xlink="http://www.w3.org/1999/xlink" x="0px" y="0px"
	 viewBox="0 0 504 504" style="enable-background:new 0 0 504 504;" xml:space="preserve">
<style type="text/css">
	.st0{fill:#005EAA;}
	.st1{fill:none;stroke:#00ACEA;stroke-width:5;stroke-miterlimit:10;}
	.st2{fill:#00ACEA;}
</style>
<g>
	<path class="st0" d="M69.1,367.4c2-4.8,2.4-10,4.2-14.8c9.8-26.6,34.6-44.6,63-45.1c15.9-0.3,31.9,0,47.9-0.1
		c3.2,0,4.3,0.7,4.6,4.1c1.3,15.2,7.3,28.4,17.8,39.5c0.6,0.7,1.2,1.4,2.1,2.4c-7.5,2.5-14.4,5.4-20.7,9.7
		c-23.6,15.9-36.2,38.1-37.3,66.6c-0.2,4.9-0.3,9.8,0,14.6c0.2,3.3-0.8,4.1-4.1,3.8c-23.5-2-46.6-6.3-69.2-13.2
		c-2.7-0.8-5.5-1.6-8.2-2.5C69.1,410.7,69.1,389.1,69.1,367.4z"/>
	<path class="st0" d="M163.4,455.4c0-9-0.2-18.1,0-27.1c0.8-31.6,25.9-59.9,57.2-64.6c5-0.7,9.9-1.1,14.9-1.1
		c15.8,0.2,31.7-0.5,47.5,0.4c29.9,1.5,57.5,26.7,62,56.3c0.8,5.4,1.2,10.9,1.2,16.3c0,16.1,0,32.1,0.1,48.2c0,2.2-0.6,3.4-2.6,4.3
		c-14,6.6-28.8,10.4-43.9,12.8c-44.1,7-87.2,1.7-129.6-11.1c-6.7-2-6.7-2-6.7-9.1C163.3,472.3,163.3,463.9,163.4,455.4
		C163.3,455.4,163.3,455.4,163.4,455.4z"/>
	<path class="st0" d="M300.7,353.3c7.1-7.2,12.4-15,15.8-24c2.3-6,3.9-12.2,4.1-18.7c0.1-2.5,0.8-3.4,3.5-3.3
		c13.7,0.2,27.4,0,41.1,0.1c39.5,0.2,69.4,30.2,69.6,69.7c0.1,17.1-0.1,34.3,0.1,51.4c0,2.5-0.9,3.5-2.9,4.5
		c-14.4,6.8-29.7,10.5-45.4,13c-8.2,1.3-16.5,1.9-24.8,2.5c-2.6,0.2-2.9-0.6-2.9-2.8c0-10.2,0.5-20.5-1.8-30.6
		c-6.8-29.8-24.7-49.9-53.3-60.6C303,354.1,302.1,353.8,300.7,353.3z"/>
	<path class="st0" d="M254.5,358.9c-29.7-0.1-53.5-24-53.4-53.6c0.1-29.7,24.3-53.8,53.9-53.6c29.5,0.2,53.6,24.6,53.4,53.9
		C308.1,335.2,284,359,254.5,358.9z"/>
	<path class="st0" d="M160.4,196.4c29.5-0.2,53.6,23.8,53.8,53.3c0,2.4-0.7,3.9-2.5,5.4c-11.6,9.9-19,22.3-21.9,37.3
		c-0.5,2.4-1.8,3.5-3.8,4.6c-31.7,17.2-71.3-1.4-78.1-36.8C101.5,227.2,126.6,196.6,160.4,196.4z"/>
	<path class="st0" d="M343.4,196.4c28.3,0,52.3,22.5,53.5,50.2c1.3,29.6-19.6,54-48.6,56.7c-8.7,0.8-17-0.5-25.1-3.7
		c-1.7-0.7-2.6-1.4-2.9-3.4c-3-19.3-12.6-34.6-28.7-45.6c-2.1-1.4-1.8-3.1-1.6-4.9C292.2,217.9,315.5,196.4,343.4,196.4z"/>
</g>
<g>
	<path class="st1" d="M142.9,88.3c0-0.6,0.1-1.1,0.1-1.7c0.8-4.2,1.5-8.3,2.9-12.4c3.5-9.8,8.8-18.5,15.9-26.1
		C172.2,37,185,29.7,199.4,25.4c6.9-2,13.9-3,21.1-3.3c11.8-0.5,23.1,1.4,34.1,5.5c10.7,4,20.3,9.9,28.7,17.8
		c9.5,9,16.4,19.7,20.3,32.3c3,10,3.9,20.1,2.5,30.5c-1.2,9.1-4,17.7-8.6,25.7c-8.3,14.5-20.3,25.1-35.5,32.2
		c-10.1,4.7-20.7,7.4-31.7,8.1c-14.4,0.9-28.3-1.7-41.5-7.6c-1.7-0.8-3.1-0.7-4.8,0c-11.4,5.3-23,10.3-34.4,15.5
		c-4.7,2.1-8.7,0.7-10.3-3.8c-0.6-1.7-0.3-3.5,0.3-5.1c4.2-11.5,8.5-22.9,12.8-34.4c0.6-1.7,0.6-3.1-0.4-4.7
		c-4.7-8-7.8-16.5-9.3-25.7c-0.4-2.5-0.1-5-0.5-7.5c0.2-3.6,0.4-7.3,0.5-10.9c0.3-0.2,0.2-0.5,0.3-0.8
		C143.1,88.9,143.2,88.6,142.9,88.3z"/>
	<path class="st1" d="M142.9,88.3c0.5,0.1,0.4,0.5,0.3,0.8c-0.1,0.2-0.2,0.2-0.4,0C142.9,88.9,142.9,88.6,142.9,88.3z"/>
	<path class="st1" d="M142.9,89.2c0.1,0,0.2,0,0.4,0c0.1,0.4,0,0.7-0.4,0.8C142.9,89.7,142.9,89.4,142.9,89.2z"/>
	<path class="st2" d="M234.5,10.5c8.6-4.7,17.2-7.8,26.3-9.2c27.3-4.3,51.9,1.8,72.7,20.2c18.1,16,26.7,36.4,24.8,60.7
		c-1,13.5-5.9,25.6-14,36.4c-0.9,1.1-1,2.1-0.6,3.4c3.3,12,6.4,24.1,9.7,36.2c0.8,3,0.5,5.6-2,7.6c-2.5,2-5.1,1.6-7.8,0.1
		c-10.9-6.3-21.8-12.4-32.7-18.7c-2-1.1-3.7-1.7-5.8-0.6c-0.4,0.2-0.9,0.5-1.5,0.2c5.5-8,9.8-16.6,12.2-26
		c7.4-29.1,1.2-55.2-18.3-77.8c-15-17.4-34.3-27.5-56.9-31.5C238.8,11.1,236.9,10.9,234.5,10.5z"/>
</g>
</svg>
