<?xml version="1.0" encoding="utf-8"?>
<!-- Generator: Adobe Illustrator 24.0.0, SVG Export Plug-In . SVG Version: 6.00 Build 0)  -->
<svg version="1.1" id="Layer_1" xmlns="http://www.w3.org/2000/svg" xmlns:xlink="http://www.w3.org/1999/xlink" x="0px" y="0px"
	 viewBox="0 0 504 504" style="enable-background:new 0 0 504 504;" xml:space="preserve">
<style type="text/css">
	.st0{fill:#005EAA;}
	.st1{fill:#00ACEA;}
</style>
<circle class="st0" cx="252" cy="252" r="252"/>
<path class="st1" d="M117.4,184.3c0.6-18.4,7.4-34.2,20.3-47.4c4.6-4.8,9.3-9.5,14.1-14.1c5.9-5.7,11.7-5.7,17.5,0
	c15.2,15.1,30.4,30.3,45.5,45.5c6,6.1,6,11.8,0,17.8c-8.3,8.4-16.7,16.7-25,25.1c-10.6,10.7-11.4,21.9-2.5,33.9
	c21,28.2,45.9,52.5,74.5,73c11.1,7.9,22.8,7.1,32.4-2.5c8.1-8.1,16.1-16.4,24.2-24.5c6.6-6.6,12.3-6.7,18.9-0.1
	c14.8,14.8,29.7,29.6,44.4,44.5c6.7,6.7,6.6,12.2-0.1,18.9c-9.1,9-17.7,18.6-29.5,24.2c-16.2,7.7-32.7,9.1-49.9,4
	c-45-13.2-82.3-38.8-115-71.6c-25.1-25.2-45.6-53.6-59.6-86.4C122.1,211.6,117,198.6,117.4,184.3z"/>
</svg>
