<?xml version="1.0" encoding="utf-8"?>
<!-- Generator: Adobe Illustrator 24.0.0, SVG Export Plug-In . SVG Version: 6.00 Build 0)  -->
<svg version="1.1" id="Layer_1" xmlns="http://www.w3.org/2000/svg" xmlns:xlink="http://www.w3.org/1999/xlink" x="0px" y="0px"
	 viewBox="0 0 360 360" style="enable-background:new 0 0 360 360;" xml:space="preserve">
<style type="text/css">
	.st0{fill:none;}
	.st1{fill-rule:evenodd;clip-rule:evenodd;fill:#FFFFFF;}
</style>
<g id="Group_344" transform="translate(-2672 -546)">
	<rect id="Rectangle_198" x="2672.3" y="546.3" class="st0" width="359.4" height="359.4"/>
	<g id="eye" transform="translate(2672 542.375)">
		<path id="Path_169" class="st1" d="M359.7,175.4c0,0-67.4-123.5-179.7-123.5S0.3,175.4,0.3,175.4S67.7,298.9,180,298.9
			S359.7,175.4,359.7,175.4z M26.7,175.4c10.9,16.5,23.3,31.9,37.3,46c29.8,33.1,71.6,52.9,116,55.1c44.5-2.2,86.2-22,116.1-55.1
			c13.9-14,26.4-29.4,37.3-46c-10.9-16.5-23.3-31.9-37.3-45.9c-29.8-33.1-71.6-52.9-116-55.2c-44.5,2.2-86.2,22-116.1,55.1
			C50,143.5,37.5,158.9,26.7,175.4z"/>
		<path id="Path_170" class="st1" d="M180,119.3c-31,0-56.2,25.1-56.2,56.2s25.1,56.2,56.2,56.2s56.2-25.1,56.2-56.2l0,0
			C236.2,144.4,211,119.3,180,119.3z M101.4,175.4c0-43.4,35.2-78.6,78.6-78.6s78.6,35.2,78.6,78.6S223.4,254,180,254
			S101.4,218.8,101.4,175.4C101.4,175.4,101.4,175.4,101.4,175.4L101.4,175.4z"/>
	</g>
</g>
</svg>
