<?xml version="1.0" encoding="utf-8"?>
<!-- Generator: Adobe Illustrator 24.3.0, SVG Export Plug-In . SVG Version: 6.00 Build 0)  -->
<svg version="1.1" id="Layer_1" xmlns="http://www.w3.org/2000/svg" xmlns:xlink="http://www.w3.org/1999/xlink" x="0px" y="0px"
	 viewBox="0 0 216 216" style="enable-background:new 0 0 216 216;" xml:space="preserve">
<style type="text/css">
	.st0{fill:#055FAA;}
</style>
<path id="user-o" class="st0" d="M160.19,94.5c3.76,1.12,7.38,2.65,10.79,4.58c3.99,2.39,7.61,5.36,10.73,8.8
	c3.87,4.14,7.1,8.84,9.57,13.94c3.06,6.61,5.29,13.57,6.63,20.74c1.86,9.39,2.74,18.94,2.65,28.51c0.23,11.75-4.11,23.14-12.1,31.76
	c-7.27,8.43-17.87,13.24-29,13.17H56.53c-11.15,0.08-21.77-4.75-29.05-13.2c-7.97-8.62-12.29-19.99-12.05-31.73
	c-0.09-9.57,0.8-19.12,2.65-28.51c1.34-7.16,3.56-14.13,6.63-20.74c2.48-5.1,5.71-9.79,9.58-13.93c3.13-3.45,6.74-6.41,10.73-8.8
	c3.41-1.93,7.03-3.46,10.79-4.58c-10.79-16.99-12.52-38.2-4.64-56.71c6.19-14.89,18.02-26.72,32.9-32.92
	c15.29-6.51,32.57-6.51,47.86,0c14.88,6.2,26.7,18.02,32.9,32.9C172.71,56.3,170.97,77.51,160.19,94.5L160.19,94.5z M108.01,15.42
	c-12.31-0.19-24.16,4.72-32.73,13.56c-8.84,8.57-13.75,20.41-13.56,32.73c-0.2,12.31,4.71,24.15,13.56,32.72
	c8.57,8.84,20.42,13.75,32.74,13.56c12.3,0.19,24.14-4.72,32.7-13.56c8.84-8.57,13.75-20.41,13.56-32.72
	c0.19-12.31-4.71-24.16-13.56-32.73C132.15,20.15,120.32,15.24,108.01,15.42z M159.48,200.56c7.04,0.01,13.71-3.16,18.14-8.64
	c5.03-5.78,7.72-13.24,7.53-20.91c0.76-15.71-2.51-31.36-9.5-45.45c-5.18-10.35-15.6-17.04-27.16-17.44
	c-11.1,10-25.56,15.46-40.5,15.31c-14.94,0.15-29.39-5.31-40.5-15.31c-11.58,0.41-22.01,7.11-27.18,17.48
	c-6.99,14.09-10.26,29.73-9.5,45.45c-0.19,7.67,2.5,15.13,7.53,20.91c4.43,5.47,11.1,8.65,18.14,8.64h102.98L159.48,200.56z"/>
</svg>
