<?xml version="1.0" encoding="utf-8"?>
<!-- Generator: Adobe Illustrator 24.0.0, SVG Export Plug-In . SVG Version: 6.00 Build 0)  -->
<svg version="1.1" id="Layer_1" xmlns="http://www.w3.org/2000/svg" xmlns:xlink="http://www.w3.org/1999/xlink" x="0px" y="0px"
	 viewBox="0 0 360 360" style="enable-background:new 0 0 360 360;" xml:space="preserve">
<style type="text/css">
	.st0{fill:#095FAA;}
</style>
<g>
	<path class="st0" d="M357.1,299.5c-0.6-10.3-9.7-18.8-20.6-18.9c-3.2,0-3.6-1-3.6-3.8c0.1-25.8,0.1-51.7,0.1-77.5
		c0-6.4-2.4-8.7-8.7-8.7c-12.1,0-24.2-0.1-36.3,0.1c-3,0.1-3.5-0.9-3.5-3.6c0.1-25.9,0.1-51.9,0.1-77.8c0-6.8-2.5-9.3-9.4-9.3
		c-11.9,0-23.8-0.1-35.6,0.1c-3.2,0.1-4.2-0.5-4.2-4c0.2-25.9,0.1-51.9,0.1-77.8c0-5.8-2.4-8.2-8.1-8.2c-31.4,0-62.7,0-94.1,0
		c-6.1,0-8.5,2.5-8.5,8.6c0,26.1,0,52.1,0.1,78.2c0,2.6-0.6,3.2-3.2,3.2c-12.1-0.2-24.2-0.1-36.3-0.1c-6.7,0-9,2.3-9,8.9
		c0,26.1-0.1,52.1,0.1,78.2c0,3.2-0.9,3.7-3.8,3.7c-12-0.2-24-0.1-36-0.1c-6.6,0-8.8,2.1-8.8,8.6c0,25.8,0,51.7,0.1,77.5
		c0,3-0.5,4.1-3.8,4c-7.2-0.1-13.1,3-17.5,8.8c-1.7,2.3-2.3,5.1-3.7,7.6c0,3,0,6,0,9c0.8,0.1,0.6,0.8,0.8,1.3
		c2.5,7.5,7.5,12.2,15,14.4c1.8,0.5,4.5-0.4,5.4,1.3c0.8,1.7,0.2,4.1,0.3,6.1c0,0.1,0,0.2,0,0.3c0.1,14.2,14,24,27.4,19.5
		c9.4-3.2,14.2-10.7,14-22.8c-0.1-3.2,0.8-3.9,3.9-3.9c72.7,0.1,145.3,0.1,218,0.1c7.2,0,7.2,0,7.3,7.3c0.1,10,7.1,18.2,17.1,20.1
		c9.8,1.8,19.3-3.5,23.1-12.8c1.6-3.9,1.5-7.9,1.3-11.9c-0.1-2,0.5-2.7,2.6-3C350.4,320.4,357.8,311.2,357.1,299.5z M290.4,232.3
		c5.3-0.1,7.9-3,7.9-8.3c0-5.4,0.2-10.9-0.1-16.3c-0.1-2.8,0.8-3.2,3.3-3.1c5,0.2,9.9,0.1,14.9,0c2-0.1,2.8,0.3,2.7,2.6
		c-0.1,23.6-0.1,47.3,0,70.9c0,2.1-0.7,2.4-2.6,2.4c-13.1-0.1-26.3,0-39.4,0c-12.9,0-25.8-0.1-38.8,0.1c-2.3,0-3.1-0.4-3.1-2.9
		c0.1-23.3,0.1-46.6,0-69.9c0-2.8,0.9-3.2,3.3-3.1c5.1,0.2,10.2,0.2,15.2,0c2.3-0.1,3.2,0.5,3.1,3c-0.2,5.6-0.1,11.3-0.1,17
		c0,5,2.5,7.7,7.6,7.8C273.1,232.5,281.7,232.5,290.4,232.3z M277.5,204.7c7,0,7,0,7,6.8c0,6.7,0,6.7-7.2,6.7c-6.7,0-6.7,0-6.7-6.8
		C270.7,204.7,270.7,204.7,277.5,204.7z M243.6,141.4c4.2-0.3,6.2-3,6.3-7.2c0-5.8,0.1-11.5,0-17.3c0-2.1,0.3-3,2.7-2.9
		c5.1,0.2,10.1,0.2,15.2,0c2.1-0.1,2.9,0.4,2.9,2.8c-0.1,23.7-0.1,47.5,0,71.2c0,2.2-0.6,2.6-2.7,2.6c-13.1-0.1-26.3-0.1-39.4-0.1
		c-12.9,0-25.8-0.1-38.7,0.1c-2.4,0-3-0.5-3-3c0.1-23.5,0.1-47,0-70.5c0-2.7,0.8-3.2,3.3-3.1c4.7,0.2,9.5,0.3,14.2,0
		c3.1-0.2,3.6,0.9,3.5,3.6c-0.2,5.5-0.1,11.1-0.1,16.6c0,4.2,2.1,7,6.2,7.2C223.8,142,233.7,142,243.6,141.4z M221.6,278
		c0,2.3-0.7,2.6-2.7,2.6c-13-0.1-26.1,0-39.1,0c-12.7,0-25.4-0.1-38.1,0.1c-2.4,0-3.3-0.3-3.3-3.1c0.1-23.2,0.1-46.4,0-69.5
		c0-2.9,0.9-3.4,3.5-3.3c4.7,0.2,9.5,0.2,14.2,0c2.5-0.1,3.4,0.4,3.3,3.1c-0.3,5.5-0.1,11.1-0.1,16.6c0,4.9,2.6,7.8,7.6,7.9
		c8.9,0.2,17.8,0.2,26.6,0c4.8-0.1,7.3-2.9,7.3-7.8c0-5.7,0.1-11.3-0.1-17c-0.1-2.5,0.7-3,3.1-3c5,0.2,9.9,0.1,14.9,0
		c2.1-0.1,2.9,0.3,2.9,2.7C221.5,230.9,221.5,254.5,221.6,278z M173.1,211.3c0-6.6,0-6.6,6.6-6.6c7.2,0,7.2,0,7.2,7
		c0,6.5,0,6.5-7,6.5C173.1,218.2,173.1,218.2,173.1,211.3z M228.1,114c7.9,0,7.9,0,7.9,6.6c0,6.9,0,6.9-7.3,6.9c-7.2,0-7.2,0-7.2-7
		C221.5,114,221.5,114,228.1,114z M180.1,24.1c6.8,0,6.8,0,6.8,6.7c0,6.9,0,6.9-7,6.9c-6.8,0-6.8,0-6.8-6.7
		C173.1,24.1,173.1,24.1,180.1,24.1z M138.4,26.9c0-2.1,0.4-3,2.8-2.9c5.1,0.2,10.1,0.2,15.2,0c2.2-0.1,3,0.4,2.9,2.8
		c-0.2,5.8-0.1,11.5-0.1,17.3c0,4.4,2.4,7.4,6.8,7.5c9.3,0.3,18.7,0.3,28,0c4.4-0.1,6.7-3,6.7-7.6c0-5.8,0.1-11.5,0-17.3
		c0-2,0.3-2.8,2.6-2.7c5.1,0.2,10.1,0.2,15.2,0c2.3-0.1,3.1,0.5,3.1,3c-0.1,23.4-0.1,46.8,0,70.2c0,2.3-0.7,2.8-2.9,2.8
		c-12.9-0.1-25.8,0-38.7,0c-12.9,0-25.8-0.1-38.7,0.1c-2.3,0-2.8-0.6-2.8-2.8C138.5,73.7,138.5,50.3,138.4,26.9z M131.7,114
		c6.8,0,6.8,0,6.8,6.7c0,6.8,0,6.8-6.7,6.8c-7.1,0-7.1,0-7.1-7.1C124.6,114,124.6,114,131.7,114z M93.2,114c4.8,0.2,9.7,0.2,14.5,0
		c2.3-0.1,3.2,0.4,3.1,2.9c-0.2,5.8-0.1,11.5-0.1,17.3c0,4.4,2.1,7.2,6.5,7.3c9.4,0.3,18.9,0.3,28.4,0c4.5-0.1,6.6-2.9,6.6-7.6
		c0-5.9,0.1-11.8,0-17.6c0-1.8,0.4-2.4,2.3-2.4c5.4,0.1,10.8,0.1,16.3,0c1.8,0,2.3,0.5,2.3,2.3c-0.1,24-0.1,48,0,72
		c0,2.1-0.8,2.4-2.6,2.3c-13-0.1-26.1,0-39.1,0c-12.8,0-25.6-0.1-38.4,0.1c-2.3,0-3.1-0.5-3.1-3c0.1-23.5,0.1-47,0-70.6
		C89.9,114.3,90.8,113.9,93.2,114z M83,204.7c7,0,7,0,7,6.9c0,6.7,0,6.7-6.8,6.7c-7,0-7,0-7-6.9C76.2,204.7,76.2,204.7,83,204.7z
		 M41.5,207.9c0-2.8,0.9-3.4,3.5-3.3c4.7,0.2,9.5,0.2,14.2,0c2.4-0.1,3.4,0.4,3.3,3.1c-0.3,5.6-0.1,11.3-0.1,17
		c0,4.7,2.5,7.5,7.1,7.6c9,0.2,18,0.2,27,0c4.9-0.1,7.4-3.1,7.4-8.1c0-5.7,0.1-11.3,0-17c0-1.8,0.2-2.7,2.4-2.6
		c5.4,0.2,10.8,0.1,16.3,0c2,0,2.2,0.7,2.2,2.4c0,23.6-0.1,47.3,0,70.9c0,2.3-0.7,2.6-2.7,2.6c-13-0.1-26.1,0-39.1,0
		c-12.7,0-25.4-0.1-38.1,0.1c-2.4,0-3.3-0.3-3.3-3.1C41.6,254.3,41.6,231.1,41.5,207.9z M52,328.3c-0.1,4.9-3,7.9-7.3,7.7
		c-3.3-0.2-5.7-2.4-6.4-5.7c0-0.2-0.1-0.5-0.1-0.7c-0.9-7.2-0.9-7.2,7-7.2c0.3,0,0.7,0,1,0C52.1,322.4,52.1,322.4,52,328.3z
		 M322.5,329.2c-0.4,4.6-3.8,7.4-8.2,6.7c-2.1-0.3-3.6-1.5-4.6-3.3c-0.4-0.8-0.8-1.7-0.9-2.6c-1.3-7.1-0.7-7.7,7.1-7.7
		c0.2,0,0.5,0,0.7,0C323.2,322.4,323.2,322.4,322.5,329.2z M333.8,308.2c-51.4,0-102.8,0-154.3,0c-51.1,0-102.1,0-153.2,0
		c-6.4,0-9.6-2.3-9.7-6.7c0-4.5,3.3-6.8,9.6-6.8c102.5,0,205,0,307.5,0c6.3,0,9.6,2.5,9.5,6.9C343.2,306,340,308.2,333.8,308.2z"/>
</g>
</svg>
