<?xml version="1.0" encoding="utf-8"?>
<!-- Generator: Adobe Illustrator 24.3.0, SVG Export Plug-In . SVG Version: 6.00 Build 0)  -->
<svg version="1.1" id="Layer_1" xmlns="http://www.w3.org/2000/svg" xmlns:xlink="http://www.w3.org/1999/xlink" x="0px" y="0px"
	 viewBox="0 0 504 504" style="enable-background:new 0 0 504 504;" xml:space="preserve">
<style type="text/css">
	.st0{fill:#FFFFFF;}
</style>
<g>
	<path class="st0" d="M212.6,26.5c-54,0-108.1,0-162.1,0C35.6,26.5,26,36.1,26,50.9c0,27,0,54,0,80.6c0,27,0,54,0,81.5
		c0,14.4,9.6,24,23.5,24c54.5,0,108.5,0,163,0c14.4,0,23.5-9.6,23.5-24c0-54,0-108.5,0-162.6C237,35.6,227.4,26.5,212.6,26.5z
		 M221.7,211.7c0,7.8-2.6,10-10,10c-53.6,0-107.2,0-160.8,0c-7.4,0-9.6-2.6-9.6-10c0-27,0-54,0-80.6s0-52.7,0-79.3
		c0-7.8,2.2-10.5,10.5-10.5c53.6,0,106.8,0,160.4,0c7.4,0,10,2.6,10,10C221.7,104.9,221.7,158.1,221.7,211.7z"/>
	<path class="st0" d="M477.5,51.7c0-16.1-9.2-25.3-25.3-25.3c-53.2,0-106.3,0-159.9,0c-16.6,0-25.7,8.7-25.7,25.3
		c0,53.2,0,106.3,0,159.9c0,16.1,9.2,25.3,25.3,25.3c53.6,0,106.8,0,160.4,0c16.1,0,25.3-9.2,25.3-24.8c0-26.6,0-53.6,0-80.2
		C477.5,104.9,477.5,78.3,477.5,51.7z M462.3,211.7c0,7.8-2.6,10-10,10c-53.6,0-107.2,0-160.8,0c-7.4,0-9.6-2.6-9.6-10
		c0-27,0-54,0-80.6s0-52.7,0-79.3c0-7.8,2.2-10.5,10.5-10.5c53.6,0,106.8,0,160.4,0c7.8,0,10,2.6,10,10
		C462.3,104.9,462.3,158.1,462.3,211.7z"/>
	<path class="st0" d="M212.1,267c-53.6,0-107.6,0-161.2,0c-15.7,0-24.8,9.2-24.8,24.8c0,26.6,0,53.2,0,79.8c0,27,0,54,0,80.6
		c0,15.7,9.2,24.8,24.8,24.8c53.6,0,107.6,0,161.2,0c15.3,0,24.8-9.2,24.8-24.4c0-54,0-107.6,0-161.7C237,276.2,227.4,267,212.1,267
		z M221.7,452.3c0,7.4-2.6,10-10,10c-53.6,0-106.8,0-160.4,0c-7.8,0-10-2.2-10-10c0-26.6,0-53.6,0-80.2c0-26.6,0-53.2,0-79.8
		c0-7.8,2.2-10.5,10.5-10.5c53.2,0,106.3,0,159.5,0c7.8,0,10.5,2.2,10.5,10.5C221.7,345.5,221.7,399.1,221.7,452.3z"/>
	<path class="st0" d="M477.5,291.4c0-15.7-9.2-24.8-24.8-24.8c-26.6,0-53.6,0-80.2,0c-26.6,0-53.2,0-79.8,0
		c-16.1,0-25.3,9.2-25.3,25.3c0,53.6,0,106.8,0,160.4c0,16.1,9.2,25.3,24.8,25.3c53.6,0,107.2,0,160.8,0c15.7,0,24.8-9.2,24.8-24.8
		C477.5,399.1,477.5,345.5,477.5,291.4z M462.3,452.7c0,7.4-2.6,10-9.6,10c-26.6,0-53.6,0-80.2,0c-26.6,0-53.6,0-80.2,0
		c-7.4,0-10-2.6-10-10c0-53.6,0-106.8,0-160.4c0-7.8,2.2-10,10-10c53.6,0,107.2,0,160.8,0c7.4,0,9.6,2.6,9.6,10
		C462.3,345.5,462.3,399.1,462.3,452.7z"/>
</g>
</svg>
