<?xml version="1.0" encoding="utf-8"?>
<!-- Generator: Adobe Illustrator 24.3.0, SVG Export Plug-In . SVG Version: 6.00 Build 0)  -->
<svg version="1.1" id="Layer_1" xmlns="http://www.w3.org/2000/svg" xmlns:xlink="http://www.w3.org/1999/xlink" x="0px" y="0px"
	 viewBox="0 0 504 504" style="enable-background:new 0 0 504 504;" xml:space="preserve">
<style type="text/css">
	.st0{fill:#FFFFFF;}
</style>
<g>
	<path class="st0" d="M67.8,407.4c-1.2,14.1-2.4,27-3.5,39.8c-0.5,5.9-3.2,8.9-7.9,8.6c-4.6-0.3-7.1-3.6-6.7-9.6
		c1.5-19.5,3.1-39,4.8-58.5c0.4-4.9,3.3-7.7,8.5-7.3c20.1,1.6,40.2,3.3,60.3,5.1c4.4,0.4,7.3,3.2,7,7.6c-0.3,4.7-3.3,7.2-8.2,6.8
		c-12.7-1-25.3-2.1-38-3.1c-1.7-0.1-3.5-0.3-6.6-0.5c5.2,5.6,9.3,10.6,13.9,15c62.8,60,137,81.3,220.6,58.2
		c83.3-23,136.4-79,159.2-162.5c11.7-42.8,9.1-85.5-4.8-127.5c-0.3-1-0.7-1.9-1-2.8c-1.4-4.6-0.9-8.6,4.1-10.5
		c4.4-1.7,8,0.6,9.9,6.2c9.5,27.7,14.3,56.3,13.2,85.6c-2.7,69.8-29.6,128.8-82.1,175c-49.1,43.3-107.2,63-172.7,59.1
		c-66.4-4-121.7-31.5-166.3-80.7C70.6,410.4,69.6,409.4,67.8,407.4z"/>
	<path class="st0" d="M410.7,90.9C360,42.3,299.4,20.8,229.7,27C128.8,36,45.3,114.8,28.9,214.9c-5.2,32.2-3.8,63.9,4.5,95.3
		c0.9,3.3,1.8,6.7-0.7,9.8c-1.9,2.3-4.3,2.8-7.1,2.4c-3.5-0.6-5-3.2-5.8-6.2c-3.6-13.3-6.4-26.7-7.5-40.4
		C6.5,205.9,25.7,143.7,72.8,91.7c54.4-60.2,123.3-86.5,204.1-79c55.4,5.1,103.3,28.3,143.4,67c1,1,2,1.8,3.9,3.6
		c0.8-8.4,1.5-15.9,2.1-23.4c0.5-6,0.9-12.1,1.4-18.1c0.5-5.8,3.6-8.9,8.3-8.2c5.4,0.8,6.7,4.4,6.3,9.3c-1.6,19.7-3,39.4-4.6,59.1
		c-0.4,5.1-3.8,7.5-10,7c-16.1-1.3-32.2-2.8-48.3-4.2c-3.6-0.3-7.3-0.3-10.9-0.9c-4.6-0.7-7.4-3.4-6.8-8.3c0.6-4.7,3.7-6.4,8.2-6.1
		c12.3,0.9,24.5,1.9,36.8,2.9C408.4,92.5,410.5,94.1,410.7,90.9z"/>
	<path class="st0" d="M410.7,90.9c1,0.3,2.1,1.4,1.4,1.9c-1.6,1.2-3.6,0.7-5.2-0.4C408.1,91.5,410,92.8,410.7,90.9z"/>
	<path class="st0" d="M328.1,297.9c-9.5-30.3-32-46.4-62.5-51.9c-4.8-0.9-6.5-2.1-6.4-7.3c0.3-33.7,0.2-67.4,0.2-101.2
		c0-2,0-4,0-6.4c24.9,3.8,43.7,15,53.6,38.6c2.4,5.8,3.2,12,3.5,18.3c0.2,4.4,3,7.2,7.5,7s7-3,6.9-7.6c0-3.2-0.1-6.5-0.7-9.6
		c-6-30.6-25.4-48.9-54.3-58c-5.2-1.6-12.4-0.7-15.4-3.9c-3.4-3.6-0.7-10.7-1.1-16.3c-0.3-4.5-2.9-7.3-7.3-7.2c-4.5,0-7,2.8-7.2,7.4
		c-0.1,4-0.4,8.1,0,12.1s-1.4,5.1-4.9,5.5c-11.1,1.4-21.5,5.2-31.1,10.9c-33.3,19.7-45.1,58.7-27.1,91.3
		c12.5,22.5,32.5,34.5,57.6,38.7c2.9,0.5,5.6,0.2,5.6,4.9c-0.2,35.1-0.2,70.3,0,105.4c0,4-1.5,4-4.5,3.5
		c-10.5-1.7-20.2-5.5-28.8-11.9c-14.4-10.6-22.9-24.7-23.7-42.9c-0.2-4.9-2.3-8.4-7.5-8.3s-7.3,3.6-7.1,8.6c0.1,2.6,0.2,5.3,0.7,7.8
		c5.7,31,25.2,49.4,54.4,58.7c5.1,1.6,12.4,0.7,15.4,4c3.3,3.6,0.7,10.7,1.1,16.3c0.3,4.5,2.9,7.3,7.3,7.2c4.5,0,7-2.8,7.2-7.4
		c0.2-4.2,0.3-8.5,0-12.7c-0.2-3.4,1-4.6,4.2-4.9c8.3-0.8,16.2-3.2,23.8-6.6C320.5,365.2,338.3,330.4,328.1,297.9z M244.5,243.5
		c-27.1,1.1-55-25-56.5-53c-1.6-29.6,24.1-56.5,56.5-58.8C244.5,169,244.5,206.2,244.5,243.5z M316.2,318.7
		c-0.8,23.7-20.2,45.6-46.1,52c-10.8,2.7-10.8,2.7-10.8-8.4c0-31.9,0-63.8,0-95.7c0-2.2,0-4.4,0-6.6
		C292,262.3,317.2,288.5,316.2,318.7z"/>
</g>
</svg>
