<?xml version="1.0" encoding="utf-8"?>
<!-- Generator: Adobe Illustrator 24.0.0, SVG Export Plug-In . SVG Version: 6.00 Build 0)  -->
<svg version="1.1" id="Layer_1" xmlns="http://www.w3.org/2000/svg" xmlns:xlink="http://www.w3.org/1999/xlink" x="0px" y="0px"
	 viewBox="0 0 504 504" style="enable-background:new 0 0 504 504;" xml:space="preserve">
<style type="text/css">
	.st0{fill:#FFFFFF;}
</style>
<g>
	<path class="st0" d="M447.6,254.7c-3-2.4-2.9-3.2,0-5.6c43.5-34.1,62.2-78.6,54.3-133.3C494,61.8,452.1,16.9,399.3,4.1
		c-54.6-13.2-111.5,7.1-144.1,51.6c-2.8,3.8-3.6,3.5-6.4,0c-34-43-78.3-61.7-132.6-53.7c-54.5,8.1-99.3,49.8-112,102.3
		C-9.1,159.4,11.1,215.8,56,248.8c3.5,2.6,3.3,3.5,0,6.1c-44.3,34.9-63.7,80.7-53.1,136c11.2,58.4,47.8,96.3,105.9,109.2
		c56.9,12.6,104.2-6.7,140.3-52.5c2.5-3.2,3.4-3.2,5.9,0c27.8,36.6,65,54.7,110.7,56.2c6,0.2,11.9-0.5,17.8-1.2
		c4.4-0.5,8.8-1.1,13-2.3c55.4-14.7,91.9-49.5,104-105.5C512.7,337.9,493.4,290.7,447.6,254.7z M341.6,18.6
		C408,4.6,475,50,485.6,117.2c8.1,51.7-10.7,92.7-53.2,123c-2.7,2-5,2.2-8.1,0.7c-25.6-12.1-52.5-16.1-80.5-11.4
		c-3.7,0.6-5.5,0.2-6.6-4c-3-11.2-8.8-21.1-16.4-30.7c8.6-1.9,14.6-6.3,18.1-13.6c0.9-1.8,1.9-2.4,3.8-2.4c15.4,0.1,30.8,0.1,46.2,0
		c2.3,0,3.2,0.9,4.1,2.7c4.5,8.7,11.8,13.5,21.5,13.5c9.8,0,17.1-4.7,21.6-13.4c1.1-2.2,2.3-2.9,4.6-2.8c3.2,0.1,6.5,0.2,9.6-0.2
		c11.9-1.6,20.8-11.6,21.1-23.6c0.2-8.6,0.1-17.3,0-25.9c-0.1-8.4-4.9-14.5-13.2-16.3c-8.2-1.8-16.5-3.5-24.8-5
		c-3-0.5-4.2-1.8-4.7-4.8c-1.1-6.5-2.4-13-3.9-19.4c-2.7-10.9-12-18.4-23.1-18.5c-23.9-0.1-47.7-0.1-71.6,0
		c-11.2,0.1-20.5,7.5-23.2,18.4c-1.5,6.2-2.9,12.5-3.8,18.9c-0.5,3.7-2.2,5-5.7,5.5c-7.7,1.2-15.3,2.9-22.8,4.6
		c-9.8,2.2-14.4,7.9-14.2,18c0.2,10.1-1.1,20.3,0.9,30.4c0.3,1.6-0.3,2.1-1.8,2c-1.9-0.2-3.7-0.2-5.6-0.2c-7.7-0.1-7.7-0.1-8.7-7.6
		C236.9,90.1,278.2,31.9,341.6,18.6z M370,422.5c1.4,0,2.7,0,4.1,0c4.4,0,8.8,0.1,13.2,0c2.2-0.1,3.2,0.5,2.9,2.8c0,0.2,0,0.3,0,0.5
		c0.5,13,0.5,13-12.4,13c-5.8,0-11.5-0.1-17.3,0c-2.2,0-3.2-0.5-2.8-2.8c0-0.2,0-0.3,0-0.5C357.2,422.5,357.2,422.5,370,422.5z
		 M373.7,406.3c-20.1,0-40.3-0.1-60.4,0.1c-3.5,0-4.5-0.8-4.4-4.4c0.2-11.9,0-11.9,12-11.9c37.8,0,75.5,0.1,113.3-0.1
		c3.9,0,5,0.9,5,4.9c-0.3,11.4-0.1,11.4-11.5,11.4C409.5,406.3,391.6,406.3,373.7,406.3z M439,369.8c0,3.4-0.9,4.1-4.2,4.1
		c-20.3-0.1-40.6-0.1-60.9-0.1c-20.3,0-40.6-0.1-60.9,0.1c-3.3,0-4.2-0.8-4.2-4.1c0.2-14.7,0.2-29.4,0-44.2c0-3.3,1.4-5.3,3.3-7.8
		c6.1-8.5,14.3-9.3,23.8-9.1c32.8,0.5,65.7,0.3,98.5,0.1c3.9,0,4.7,1,4.6,4.7C438.8,332.2,438.8,351,439,369.8z M251.9,325
		c-40.3,0-73.1-33-73.1-73.3c0.1-40.3,33-73,73.5-72.9c40.3,0.1,73,33.2,72.8,73.6C325,292.4,292.1,325.1,251.9,325z M159,146.2
		c-13.9,0.1-27.8,0.1-41.6,0c-2.9,0-3.7,0.8-3.6,3.6c0.1,13.7,0,27.4,0.1,41.1c0,3.3-0.8,4.2-4.2,4.2c-12.2-0.1-12.2,0.1-12.2-12.3
		c0-16.2,0.1-32.5-0.1-48.7c0-3.3,0.8-4.2,4.2-4.1c12.2,0.2,24.4,0.1,36.6,0.1c12.4,0,24.7,0.1,37.1-0.1c2.9,0,3.7,0.7,3.6,3.6
		c-0.1,19.3-0.1,38.6,0,57.9c0,2.9-0.7,3.6-3.6,3.6c-12.7,0.1-12.7,0.2-12.7-12.3c0-11-0.1-22,0.1-33
		C162.7,146.9,161.9,146.2,159,146.2z M130,165.3c-0.1-2.2,0.7-2.7,2.9-2.9c13.5-0.7,13.4-0.8,13.4,12.5c0,1.4,0,2.7,0,4.1
		c0,4.4-0.1,8.8,0,13.2c0.1,2.3-0.7,2.7-2.9,2.9c-13.5,0.7-13.4,0.8-13.4-12.5C130.1,176.8,130.2,171,130,165.3z M86.9,113.7
		c-2,0-4.3,0.5-5.3-1.9c-1-2.5,1.1-3.6,2.6-4.9c14.6-12.6,29.3-25.1,44-37.6c6.8-5.8,13.2-5.8,20,0c14.7,12.5,29.3,25.1,43.9,37.6
		c1.5,1.3,3.6,2.5,2.6,4.9c-1,2.4-3.3,1.9-5.3,1.9c-17.3,0-34.5,0-51.8,0C120.8,113.7,103.8,113.8,86.9,113.7z M455.2,143
		c0,3.6,0.1,7.1,0,10.7c-0.2,5.6-3.2,8.6-8.9,8.8c-1.9,0.1-3.7-0.1-5.6,0c-2.3,0.2-3.5-0.6-4.6-2.8c-4.5-8.7-11.8-13.4-21.6-13.4
		c-9.8,0-17.1,4.8-21.5,13.5c-1.1,2.2-2.4,2.7-4.7,2.7c-14.9-0.1-29.8-0.1-44.7,0c-2.7,0-4-0.7-5.3-3.2c-4.5-8.4-11.7-13-21.3-13
		c-9.4,0-16.8,4.3-21,12.6c-3.3,6.4-8.5,3.2-12.7,3.2c-4,0-6.6-3.3-6.7-7.5c-0.2-7.8,0-15.6-0.1-23.3c0-2.5,1-3,3.2-3.4
		c10.3-1.9,20.5-4.3,30.8-6c4.5-0.7,6-2.7,6.7-6.9c1.4-8.7,3.3-17.2,5-25.8c1.1-5.6,3.8-7.8,9.4-7.9c22.8,0,45.7,0,68.5,0
		c5.6,0,8.2,2.3,9.4,7.9c1.8,8.8,3.7,17.5,5.1,26.3c0.6,3.8,2.2,5.6,6.2,6.3c10.3,1.7,20.5,4.2,30.8,5.9c3.2,0.5,3.8,1.8,3.6,4.6
		C455,135.9,455.2,139.5,455.2,143z M422.6,170.4c0.1,4.6-3.7,8.4-8.3,8.3c-4.4-0.1-8-3.8-7.9-8.2c0-4.4,3.6-8,8-8
		C418.8,162.5,422.5,166.1,422.6,170.4z M325.1,170.4c0.1,4.4-3.4,8.1-7.8,8.3c-4.4,0.2-8.2-3.3-8.4-7.7c-0.3-4.6,3.4-8.5,8-8.5
		C321.3,162.5,325,166.1,325.1,170.4z M19.4,165.3C4.1,95.4,49.6,28.7,120.2,17.5c46.5-7.4,96.2,15.4,120.8,55.3
		c1.3,2.2,1.3,3.7,0.3,5.9c-12.4,26.1-16.6,53.4-11.7,81.9c0.6,3.4,0.1,5-3.6,6c-11.2,3-21.1,8.6-30.9,16.3c0-10.1,0-19.3,0-28.6
		c0-4.9,0.2-9.8-0.1-14.7c-0.3-5.9,0.2-9.9,7-13.1c11.6-5.4,12.7-21.3,2.9-30c-15.8-14.1-32-27.6-48.1-41.3
		c-3.7-3.1-8.1-4.8-12.8-5.7c-9.4-1.7-17.9,0.3-25.2,6.4c-15.7,13.2-31.3,26.5-46.6,40c-11.6,10.2-8.6,27.4,5.8,32.8
		c2.9,1.1,3.5,2.3,3.4,5c-0.1,19.8-0.1,39.6-0.1,59.4c0,11.7,6.5,18.2,18.3,18.2c22.3,0,44.7,0,67,0c1.7,0,3.3,0,5.6,0
		c-3.2,7.5-6.2,14.7-7.7,22.3c-1.3,6.7-2.3,13.4-1.8,20.2c0.2,2.9-0.5,3.9-3.6,4.5C96.3,269.8,33.1,227.8,19.4,165.3z M63.4,269.3
		c7.3-6.3,13.6-8.2,23.6-3.6c23,10.7,47.8,12.9,72.9,8.6c3.8-0.6,6.1-0.5,7,4.1c0.9,4.5,3.2,8.8,5.1,13.8c-43.7,0-87,0-131,0
		C47.6,283.3,55.4,276.3,63.4,269.3z M48.8,447.7c-36.7-38.1-42.2-98.6-16.3-141.8c0,10.7,0.1,20.6-0.1,30.5
		c-0.1,3.7,0.5,5.2,4.8,5.1c11.6-0.3,11.6-0.1,11.6,11.6C48.8,384.3,48.8,415.6,48.8,447.7z M48.7,320.5
		c0.2-11.7,0.1-11.7,11.8-11.7c15.1,0,30.1,0,45.2,0c17.6,0,35.2,0.1,52.8-0.1c3.3,0,4.2,0.8,4.2,4.1c-0.1,12.2,0.1,12.2-12.3,12.2
		c-32.3,0-64.7-0.1-97,0.1C49.6,325.1,48.6,324.3,48.7,320.5z M65,450.6c0.2-17.6,0.1-35.2,0.1-52.8c0-17.3,0.1-34.5-0.1-51.8
		c0-3.5,0.3-4.9,4.5-4.9c24.2,0.3,48.4,0.2,72.6,0.1c3,0,4.4,0.3,4.3,4c-0.3,13.7-0.2,27.4,0,41.1c0.1,3.3-1,3.9-4,3.8
		c-8-0.2-15.9,0.2-23.9-0.2c-4.2-0.2-4.9,1.3-4.8,5.1c0.2,18.4,0,36.9,0.2,55.3c0,3.5-0.4,4.9-4.5,4.8c-13.4-0.3-26.7-0.3-40.1,0
		C65.6,455.2,65,454,65,450.6z M79.2,471.5c39.5,0,78.7,0,118.3,0C162.6,493,112.6,492.5,79.2,471.5z M207.8,455.1
		c-12.4-0.2-24.7-0.1-37.1-0.1c-12.4,0-24.7-0.1-37.1,0.1c-2.9,0-3.7-0.8-3.6-3.6c0.1-13.9,0.1-27.8,0-41.6c0-2.9,0.8-3.6,3.6-3.6
		c24.7,0.1,49.4,0.1,74.1,0c2.9,0,3.7,0.8,3.6,3.6c-0.1,13.9-0.1,27.8,0,41.6C211.5,454.4,210.7,455.2,207.8,455.1z M228.5,447.5
		c-1.5-1.6-0.8-3.2-0.8-4.6c-0.1-15.9-0.2-31.8,0.1-47.7c0.1-4-0.6-5.4-5.1-5.3c-18.4,0.3-36.9,0-55.3,0.2c-3.6,0-4.9-0.5-4.8-4.5
		c0.3-13.4,0.2-26.7,0.1-40.1c0-3.1,0.4-4.5,4-4.3c4,0.2,9.5,1.9,11.6-0.7c2-2.5,0.7-7.7,0.7-11.7c0-8.1,0-16.1,0-25.2
		c19.8,25.3,44.5,38.1,75.6,37.7c2.1,0,3.3,0.2,3.7,2.8C264.7,383.1,254.2,417.4,228.5,447.5z M481.8,402
		c-14.7,46.4-47.5,74.6-95.5,83.6c-47.6,8.9-96.7-13.1-122.8-53.7c-1.8-2.8-1.7-4.8-0.4-7.7c12-25.6,16.1-52.5,11.4-80.5
		c-0.6-3.7-0.3-5.7,4-6.7c4.7-1.1,9.1-3.3,14.2-5.2c0,5.5,0,10.7,0,15.9c0,19,0,37.9,0,56.9c0,11.4,6.6,17.9,18,17.9
		c9.1,0,18.3,0.1,27.4,0c2.6,0,3.6,0.5,3.4,3.3c-0.3,4.2,1.2,9.5-0.9,12.2c-1.9,2.5-7.6,0.8-11.6,0.7c-3.1-0.1-3.9,0.7-3.9,3.9
		c0,12.5-0.1,12.5,12.5,12.5c26.9,0,53.8-0.1,80.7,0.1c3.5,0,4.8-0.8,4.4-4.4c-0.4-3.8,1.1-8.9-0.9-11.2c-2.1-2.4-7.3-0.9-11.1-0.6
		c-3.6,0.2-4.5-0.9-4.4-4.4c0.2-11.9,0-11.9,12-11.9c6.8,0,13.5,0.1,20.3,0c9.4-0.2,16.4-6.9,16.5-16.4c0.1-32.3,0.1-64.7,0-97
		c0-9.9-7-16.6-17.2-16.6c-33.9,0-67.7,0-101.6,0c-1.3,0-2.7,0-4.7,0c6.9-14.5,10.4-28.8,9.6-44c-0.1-2.9,1.9-2.6,3.6-2.9
		c41.7-6.5,78.2,4.5,107.5,34.7C485.8,314.7,496.2,356.3,481.8,402z"/>
	<path class="st0" d="M260.1,204.1c0,1.9,0.1,3.7,0,5.6c-0.2,2.1,0.5,3.2,2.5,4.3c10.6,5.8,15.2,15.1,13.9,27.5
		c-0.2,1.7-0.5,2.5-2.3,2.4c-1.5-0.1-3,0-4.6,0c-2.9,0-6.4,1-8.5-0.3c-2.4-1.5-0.7-5.3-1-8c-0.7-6.4-9.7-11-15.4-7.8
		c-0.3,0.2-0.6,0.4-0.7,0.6c-3.3,5.1,1.4,14.8,7.7,15.5c17,2.1,24.7,10.7,24.7,27.9c0,5.8-0.1,11.5,0.1,17.3
		c0.1,2.7-0.5,3.8-3.5,3.8c-4.2-0.1-9.7-1.9-12.1,0.8c-2,2.3-0.8,7.7-0.6,11.7c0.1,2.8-0.6,3.7-3.5,3.7
		c-12.8,0.2-12.9,0.3-12.7-12.7c0.1-3.7-1-5.5-4.3-7.3c-9.1-5-14-16.6-12.1-27c0.3-1.6,1-1.9,2.3-1.8c1.5,0,3,0,4.6,0
		c2.9,0,6.4-1,8.5,0.3c2.4,1.5,0.7,5.3,1,8c0.7,6.3,9.7,11,15.4,7.8c0.3-0.2,0.6-0.4,0.7-0.6c3.3-5.1-1.5-14.8-7.7-15.5
		c-17-2-24.7-10.7-24.7-27.9c0-5.8,0.1-11.5-0.1-17.3c-0.1-2.7,0.5-3.8,3.5-3.8c4.2,0.1,9.7,1.9,12.1-0.8c2-2.3,0.8-7.7,0.6-11.7
		c-0.1-2.8,0.6-4.1,3.6-3.7c1.2,0.2,2.4,0,3.6,0C260.1,195,260.1,195,260.1,204.1z"/>
	<path class="st0" d="M89.5,357.5c8.1,0,8.1,0,8.1,8.2c0,8.1,0,8.1-8.2,8.1c-8.1,0-8.1,0-8.1-8.2C81.3,357.5,81.3,357.5,89.5,357.5z
		"/>
	<path class="st0" d="M113.8,365.3c0-7.8,0-7.8,8-7.8c8.3,0,8.3,0,8.3,8.5c0,7.8,0,7.8-8,7.8C113.8,373.8,113.8,373.8,113.8,365.3z"
		/>
	<path class="st0" d="M89.4,406.3c-8.1,0-8.1,0-8.1-8.1c0-8.1,0-8.1,8.1-8.1c8.1,0,8.1,0,8.1,8.1C97.6,406.3,97.6,406.3,89.4,406.3z
		"/>
	<path class="st0" d="M89.6,422.5c8,0,8,0,8,8.2c0,8,0,8-8.2,8c-8,0-8,0-8-8.2C81.3,422.5,81.3,422.5,89.6,422.5z"/>
	<path class="st0" d="M162.6,430.9c0,7.9,0,7.9-7.8,7.9c-8.4,0-8.4,0-8.4-8.3c0-7.9,0-7.9,7.8-7.9
		C162.6,422.5,162.6,422.5,162.6,430.9z"/>
	<path class="st0" d="M195.1,430.8c0,8,0,8-8.2,8c-8,0-8,0-8-8.2c0-8,0-8,8.2-8C195.1,422.5,195.1,422.5,195.1,430.8z"/>
</g>
</svg>
