<?xml version="1.0" encoding="utf-8"?>
<!-- Generator: Adobe Illustrator 24.0.0, SVG Export Plug-In . SVG Version: 6.00 Build 0)  -->
<svg version="1.1" id="Layer_1" xmlns="http://www.w3.org/2000/svg" xmlns:xlink="http://www.w3.org/1999/xlink" x="0px" y="0px"
	 viewBox="0 0 504 504" style="enable-background:new 0 0 504 504;" xml:space="preserve">
<style type="text/css">
	.st0{fill:#FFFFFF;}
</style>
<g>
	<path class="st0" d="M-0.5,59.8c1.6,2,1.4,3.9,0,5.9C-0.5,63.7-0.5,61.7-0.5,59.8z"/>
	<path class="st0" d="M493.2,149c-1.9-5.7-1-10.2,1-15.4c10.7-27.4,11.7-56,8.8-84.8c-1.2-11.9-13.7-18.8-24.6-14.4
		c-5.5,2.2-8.4,7.1-11.7,11.6c-43.1,60.5-98.2,104.4-170.5,125.3c-17.8,5.1-29.2,17.7-34.3,35.5c-3,10.6-1.7,21.5-1.9,32.3
		c-0.1,4.1,1.4,9.6-0.7,11.9c-2.4,2.7-8.1,0.5-12.3,0.9c-2.9,0.3-3.5-0.8-3.5-3.6c0.2-8.7,0.1-17.4,0.1-26.1
		c-0.1-25.6-14.2-44.8-38.6-51.8c-48.5-14-89.9-39.6-125.9-74.6C62.4,79.5,47.5,61.3,34.1,42c-5.2-7.5-12.3-10.3-19.9-8.2
		C5.8,36,1.3,41.8,0.5,51.4c-0.1,0.9,0.3,2-1,2.5c0,2,0,3.9,0,5.9c0.8,2,0.8,3.9,0,5.9c0,9.2,0,18.4,0,27.6c1,0.3,0.9,1.2,1,2
		c1.5,15.1,4.9,29.7,11.1,43.6c1.1,2.4,0.7,4.3-0.1,6.5c-4.3,13.1-5.1,26.3-1.4,39.7c0.8,2.7,0.7,5.3-0.1,8.1
		c-3.2,11.1-3.1,22.4-0.2,33.5c0.8,3.1,0.8,5.9,0.1,9c-5.5,22.6-1.1,43,15.4,59.9c12,12.3,27.3,18.5,43.9,21.4
		c4.8,0.9,6.1,2.5,6.1,7.4c-0.2,42.2-0.1,84.4-0.1,126.7c0,13.6,6.3,19.8,19.8,19.8c104.6,0,209.3,0,313.9,0c1.1,0,2.3,0.1,3.4,0
		c6.8-0.4,11.7-3.8,14.8-9.9c1.6-3.2,1.4-6.7,1.4-10.1c0-42.7,0.1-85.4-0.1-128.2c0-3.5,0.9-4.8,4.3-5.3c6.5-1,12.7-2.9,18.9-5.1
		c34.6-12.8,50.7-43,41.5-78.7c-0.6-2.3-0.1-4.2,0.4-6.1c3.2-11.7,3.2-23.3-0.1-34.9c-0.7-2.2-0.8-4.3-0.1-6.6
		C497,173.6,497.2,161.1,493.2,149z M75.2,300.6c-28.2-2.2-52.4-25.1-49.7-47.1c8,7.1,16.7,12.8,26.5,16.7c6.4,2.6,13,4.5,19.8,5.4
		c2,0.3,3.5,0.3,3.4,3C75.2,285.9,75.2,293.2,75.2,300.6z M79.6,257.5c-1.1,1.2-2.2,1.7-3.9,1.4c-14.7-2.7-28.6-7.4-39.2-18.7
		C29,232.4,25.1,223,25,210.9c19.5,17.7,42.3,22.9,66.5,24.2c5.7,0.3,11.5,0.2,17.2-0.1c7.5-0.3,11.6-3.9,11-9.6
		c-0.5-5.4-4.9-8.1-12.1-7.6c-17.9,1.2-35.4-0.4-52.1-7.3c-15.4-6.3-26.5-16.7-29.9-33.8c-0.9-4.7-0.5-9.4-0.4-15.2
		c5.1,5.3,9.4,9.9,14.4,13.8c10.9,8.5,22.9,14.6,36.3,17.7c5.5,1.3,10.2-1.1,11.3-5.8c1.2-5.1-1.4-9.3-7.4-10.8
		c-16.1-4-29.6-12.3-40.3-24.9c-12.7-15-18.4-32.9-21.3-52C16,84.7,16,69.8,17.3,54.8c0.1-1.4-0.5-3.5,1.1-4c2-0.6,2.4,1.8,3.3,3
		c27.4,39.4,60.7,72.8,101.5,98.4c24.1,15.2,49.7,26.9,77.1,34.7c17,4.8,26.1,17,26.2,34.7c0,8.5-0.3,17.1,0.1,25.6
		c0.2,4.4-1.4,4.9-5.2,4.9c-42.6-0.1-85.1,0-127.7-0.1C88.1,252,83.3,253.4,79.6,257.5z M406.4,454c-103-0.1-206-0.1-309,0
		c-4.4,0-5.4-1-5.3-5.4c0.2-58.3,0.2-116.6,0-175c0-4.2,1.2-5,5.1-5c51.6,0.1,103.2,0.1,154.7,0.1c51.6,0,103.2,0.1,154.7-0.1
		c4.1,0,5.1,0.9,5.1,5c-0.2,58.3-0.2,116.6,0,175C411.8,453.2,410.6,454,406.4,454z M462.4,287c-8.8,7.2-19.2,10.9-30.2,13.3
		c-2.6,0.6-3.8,0.3-3.7-2.9c0.3-6.1,0.1-12.1,0.1-18.2c0-1.6-0.2-3,2.2-3.6c27.3-6.6,27.4-6.7,48.1-22.3
		C478.6,267.6,472.9,278.5,462.4,287z M478.6,127.2c-9.8,25.3-27.6,42.1-54.1,49.1c-6.3,1.7-9.1,5.8-7.8,11.1
		c1.2,4.8,5.8,7,11.8,5.5c18.2-4.5,33.5-13.7,46.3-27.3c1-1.1,2-2.1,3.5-3.6c2.7,20.7-6.6,37.5-25.5,46.6
		c-17.7,8.6-36.7,10.3-56.1,9.4c-1.5-0.1-3-0.4-4.4-0.3c-4.4,0.3-7.8,3.6-8.2,7.8c-0.4,4.4,2.1,7.9,6.7,9c6.8,1.5,13.8,0.9,20.6,0.7
		c17.8-0.6,35.1-3.9,51.1-12.3c5.7-3,10.7-6.8,15.9-11.5c1,4.4-0.1,8.3-1.2,12.1c-5.1,16.5-17.3,25.6-32.7,31.4
		c-2.9,1.1-5.9,1.8-8.9,2.6c-5.1,1.5-9.8,2.7-14.1-2.3c-2.6-3-6.9-3.2-11-3.2c-42.7,0.1-85.4,0-128.1,0.1c-3.7,0-5-0.7-4.9-4.7
		c0.4-8.7,0.1-17.4,0.1-26.1c0.1-17.3,9.3-29.6,26-34.3c27.9-7.9,53.9-19.9,78.4-35.4c39.5-25,71.9-57.5,98.8-95.5
		c0.9-1.3,1.9-2.7,2.8-4c0.5-0.7,1-1.6,1.8-1.4c1.2,0.3,1.1,1.4,1.2,2.4C488.5,78.3,487.8,103.3,478.6,127.2z"/>
	<path class="st0" d="M381.8,316.1c-9.8-2.2-16.3-8-18.6-18c-2.1-9-6.7-12.6-16-12.6c-31.7,0-63.4,0-95.1,0c-31.9,0-63.7,0-95.6,0
		c-9,0-13.9,3.8-15.8,12.3c-2.3,10.3-8.8,16.1-18.8,18.3c-9.1,2-12.9,6.5-12.9,15.7c0,19.5,0,39.1,0,58.6c0,10,3.6,14.2,13.3,16.3
		c9.7,2.1,16,7.9,18.3,17.7c2.2,9.2,6.8,12.9,16.3,12.9c63.4,0,126.8,0,190.2,0c9.3,0,14.1-3.7,16.1-12.6c2.3-10,8.7-15.8,18.5-18
		c9.5-2.1,13.2-6.4,13.2-16c0-19.5,0-39.1,0-58.6C394.9,322.5,391.2,318.2,381.8,316.1z M373.7,391.3c-12.4,3.9-21.3,12.2-25.6,24.5
		c-1.3,3.8-3.1,4.4-6.6,4.4c-51.6-0.1-103.1-0.1-154.7-0.1c-8.5,0-17.1-0.1-25.6,0.1c-2.6,0-4-0.5-4.9-3.3
		c-4.4-13.2-13.5-21.8-26.8-25.9c-2.6-0.8-3.8-1.8-3.8-4.9c0.2-16.4,0.2-32.9,0-49.3c0-3,0.8-4.2,3.7-5
		c13.3-4.1,22.4-12.7,26.8-25.9c1-3.1,2.6-3.5,5.3-3.5c30.2,0.1,60.4,0,90.7,0c30.1,0,60.1,0,90.2-0.1c3,0,4.5,0.5,5.5,3.8
		c4.3,12.8,13.3,21.3,26.1,25.4c3.5,1.1,4.4,2.6,4.3,6c-0.2,15.8-0.2,31.5,0,47.3C378.3,388.6,377.4,390.1,373.7,391.3z"/>
	<path class="st0" d="M251.9,319.2c-22.9-0.1-42.1,18.9-42.3,41.8c-0.2,23.1,18.8,42.4,42,42.7c23,0.3,42.5-19.1,42.5-42.1
		C294.2,338.4,275.1,319.2,251.9,319.2z M252,386.4c-14.3-0.1-25.1-11-25-25.3c0.1-13.9,11.3-24.8,25.2-24.6
		c14,0.2,24.7,11,24.8,25.1C277,375.4,265.9,386.4,252,386.4z"/>
	<path class="st0" d="M336.1,335.8c-14.2,0-25.8,11.5-25.7,25.5c0.1,13.7,11.6,25.3,25.4,25.4c13.9,0.2,25.5-11.5,25.6-25.7
		C361.4,347.2,350,335.8,336.1,335.8z M335.6,369.5c-4.8-0.1-8.1-3.7-8-8.6c0.1-4.6,4.1-8.4,8.6-8.2c4.5,0.2,8.4,4.4,8.2,8.8
		C344.2,366.2,340.4,369.7,335.6,369.5z"/>
	<path class="st0" d="M168.1,335.8c-14.4-0.1-25.6,10.9-25.7,25.2c-0.1,14.2,11.3,25.7,25.4,25.7c14,0,25.4-11.7,25.3-25.9
		C193,347.1,181.8,335.9,168.1,335.8z M167.8,369.5c-4.8,0.1-8.5-3.4-8.6-8.1c-0.1-4.5,3.7-8.6,8.2-8.7c4.4-0.1,8.5,3.8,8.6,8.3
		C176.2,365.8,172.7,369.5,167.8,369.5z"/>
</g>
</svg>
