<?xml version="1.0" encoding="utf-8"?>
<!-- Generator: Adobe Illustrator 24.0.0, SVG Export Plug-In . SVG Version: 6.00 Build 0)  -->
<svg version="1.1" id="Layer_1" xmlns="http://www.w3.org/2000/svg" xmlns:xlink="http://www.w3.org/1999/xlink" x="0px" y="0px"
	 viewBox="0 0 504 504" style="enable-background:new 0 0 504 504;" xml:space="preserve">
<style type="text/css">
	.st0{fill:#005FA9;}
</style>
<g>
	<path class="st0" d="M125.7,494.3c-4.4,0-8.8,0.2-13.2,0c-5.5-0.3-9.2-4.2-8.9-9.4c0.3-5.4,3.2-8.8,8.7-8.9c9-0.3,18-0.3,27,0
		c5.5,0.1,9.3,4.3,8.9,9.4c-0.4,5.3-3.3,8.4-8.7,9c-0.4,0-0.9,0-1.3,0C134.1,494.4,129.9,494.4,125.7,494.3
		C125.7,494.4,125.7,494.4,125.7,494.3z"/>
	<path class="st0" d="M496.7,443.7c3.9-9.7,1.9-19.7,2-29.4c0.1-10.4-8.6-18.6-19-19.1c-2.8-0.1-5.5,0-8.9,0
		c40.4-42.1,31-92.1,9.4-119.5c-24.4-30.9-67.5-42-103.4-26.2c-40.2,17.8-58.1,55-50,104.5c-20.5-7.7-40-16.9-58-28.9
		c-3.9-2.6-3.4-8.9,0.8-12c24.7-18.3,40.3-42.6,46.7-72.7c0.8-3.6,2.5-4.5,5.4-5.2c33-8,46.9-45.1,27.3-73c-2-2.8-2.5-5.3-2.2-8.5
		c1.7-15.3,3.2-30.7,2.8-46.2c-1-34.8-30.6-65.1-65.3-66.7c-3-0.1-5.4-0.9-7.7-2.9c-46.5-37.8-106.3-37.8-152.5,0
		c-2.4,1.9-4.7,2.8-7.7,2.9c-34.5,1.6-63.9,31.4-65.2,66.1c-0.5,14.8,0.5,29.5,2.3,44.2c0.5,3.6,1.1,7-1.5,10.6
		c-20.2,29-6.9,64.5,27.4,73.6c2.8,0.8,4.3,1.8,4.9,5.1c6.2,29.9,21.7,54,46,72.3c5.9,4.5,5.6,9.7-0.7,13.7
		c-14.2,8.9-28.7,16.8-44.4,22.9c-12.5,4.9-24.7,10.2-36.9,15.8C20.9,377.9,6,399.6,5.2,430.3c-0.5,17.6-0.1,35.3-0.1,52.9
		c0,7.9,3.3,11.1,11.3,11.1c15.4,0.1,30.8,0.1,46.2,0c7.3,0,11.1-3.2,11.2-9.1c0.1-5.9-3.8-9.3-11-9.4c-11.4-0.1-22.9-0.2-34.3,0.1
		c-4.2,0.1-5.1-1.2-5-5.2c0.3-13.7-0.3-27.4,0.2-41c0.9-22,11.5-38,31.5-47.2c15.4-7,31.1-13.2,46.5-20.2c4.2-1.9,5.3-0.7,6.8,3.1
		c8.3,21,16.9,42,25.4,62.9c4,9.7,9.1,11.3,17.8,5.2c14.6-10.2,29.3-20.3,43.7-30.7c3.6-2.6,6-2.8,9.7-0.1
		c14.2,10.4,28.7,20.3,43.1,30.4c9.7,6.8,14.4,5.4,18.9-5.8c8.2-20.2,16.5-40.2,24.2-60.6c2.2-5.7,4.4-5.9,9.3-3.5
		c9.7,4.6,19.5,9.3,29.6,12.6c10.3,3.3,14.8,11.9,22.3,19.3c-4,0-6.9-0.1-9.7,0c-9.1,0.5-17.1,7.1-18.3,16.1c-1.3,9-0.9,18-0.1,27
		c0.2,2.6,3.2,4.7,1.9,7.3c-3.8,7.8-2.4,16-2.3,24.1c0.1,4.9-1,6.2-6.1,6.2c-42-0.2-84-0.1-126.1-0.1c-2,0-4-0.2-5.9,0.1
		c-4.9,0.9-7.8,3.9-7.9,9c-0.1,5.2,2.8,8.2,7.7,9.2c1.9,0.4,3.9,0.2,5.9,0.2c94.4,0,188.8,0,283.2,0c2,0,4,0.1,5.9-0.1
		c9.4-0.8,17.4-8.6,17.9-18.1c0.4-7.5,0.3-15,0-22.5C498.5,450.3,495.6,446.4,496.7,443.7z M339.2,191.9
		c-0.6,11.5-8.5,21.1-20.4,24.2c0-16.8,0-33.4,0-50.1c0-4.2,2.4-2.7,4.3-1.9C333.2,168.2,339.9,179.7,339.2,191.9z M329.6,98.8
		c3.5,14.6,0,29.4-0.5,44c-0.1,1.6-0.6,3.4-2.7,2.3c-2.8-1.5-7.9,0.4-7.7-5.8c0.4-9.9,0-19.8-1.5-29.6c-2.4-15.8-8.1-30.4-15.7-44.7
		C316.5,71.6,325.8,83.2,329.6,98.8z M81.8,216.3c-12.2-4-19.4-12.8-20.3-24c-0.9-12.2,4.9-22.6,15.1-27.7c3.7-1.9,5.3-2,5.2,3
		C81.7,183.6,81.8,199.7,81.8,216.3z M87.5,92.3c-4.7,14.8-6,30.1-5.7,45.5c0.1,4.8-3.9,8.2-8.5,7.7c-1.9-0.2-2-1.4-2-2.7
		c-0.2-14.7-3.7-29.3-0.2-44c3.2-13.4,10.7-23.9,22.3-31.4c1.1-0.7,2.3-1.3,3.5-1.8c0.5-0.2,1.2,0.1,2.5,0.3
		C94.7,74.7,90.3,83.1,87.5,92.3z M102.8,237.1c-0.9-4.5-1.7-9.1-1.7-13.7c-0.6-36.1-2.3-72.3,0.7-108.4
		c3.5-42.2,39.8-78.6,82.5-85.2c56.2-8.6,107.1,28.7,114.8,85c2.6,19,0.5,38.3,0.9,53.7c0,18.5,0.2,33.3,0,48
		c-0.7,49.4-32.9,88.4-81.2,98.3C166.4,325.8,112.7,289.7,102.8,237.1z M148,413.5c-8-19.7-15.8-39-23.7-58.3
		c-0.9-2.3-0.5-3.7,1.6-4.8c0.6-0.3,1.1-0.6,1.7-1c4.7-2.8,9.7-8.1,14-7.6c4.3,0.5,7.9,6.9,11.7,10.8c10.8,11.2,21.5,22.5,32.6,34.1
		C173.4,395.7,160.9,404.4,148,413.5z M204.2,370.7c-2.7,2.9-4.2,4-7.5,0.4c-12.1-13.1-24.5-25.8-36.8-38.7c-1-1.1-2.5-1.8-2.4-4.7
		c29,10.7,57.4,10.6,86-0.2c0.3,2.9-1.8,3.8-3,5C228.5,345.2,216.2,357.8,204.2,370.7z M271,368.1c-5.4,13.7-10.9,27.3-16.5,40.9
		c-0.7,1.8-0.7,5.3-4.5,2.6c-11.6-8.3-23.3-16.4-35.3-24.8c14.1-14.8,28-29.3,41.7-43.8c1.7-1.8,3.1-2.2,5-0.6
		c0.3,0.3,0.7,0.5,1.1,0.7c4.8,3,11.9,5.1,13.8,9.4C278.1,356.9,273,362.8,271,368.1z M344,343c-8.2-42.3,23.9-81.5,67-81.6
		c33-0.1,61,22.5,67.7,54.6c6.7,31.7-9.9,63.8-39.6,77.1c-9.2,4.1-18.7,1-27.9,2c-16.3,2.2-31-0.7-43.7-11.9
		C355.3,372.3,347.2,359.2,344,343z M358.3,413.8c38.4,0,76.9,0.1,115.3-0.1c5.6,0,7,1.6,6.8,7c-0.3,14.7-0.1,14.7-14.8,14.7
		c-18.2,0-36.5,0-54.7,0c-20.6,0-41.3-0.1-61.9,0.1c-4.6,0-6.5-0.6-6.5-6C342.8,413.8,342.6,413.8,358.3,413.8z M465.1,475.9
		c-18,0-36,0-54,0c-20.9,0-41.7-0.1-62.6,0.1c-4.6,0.1-5.9-1.3-5.9-5.9c0.1-15.8-0.1-15.8,15.6-15.8c38.7,0,77.3,0.1,116-0.1
		c4.8,0,6.4,1.1,6.3,6.2C480.2,475.9,480.5,475.9,465.1,475.9z"/>
	<path class="st0" d="M199.8,133.3c-12.5,0-25,0-37.6,0c-7.2,0-11.1-3.4-11.1-9.3c0-5.8,4-9.2,11.2-9.3c25.3,0,50.5,0,75.8,0
		c7.3,0,11.2,3.2,11.3,9c0.2,6.2-3.6,9.5-11.4,9.5C225.3,133.4,212.5,133.3,199.8,133.3z"/>
	<path class="st0" d="M199.6,285.4c-13.2-0.3-25.6-4.1-36.6-11.9c-5.3-3.7-6.7-9-3.7-13.5c3-4.6,8.3-5.5,13.9-2
		c18.4,11.6,36.6,11.5,54.9-0.3c5.2-3.3,10.3-2.4,13.4,1.9c3.2,4.5,2,10-3.2,13.7C226.6,281.3,213.9,285.2,199.6,285.4z"/>
	<path class="st0" d="M200.3,97.2c-6.1,0-12.3,0.2-18.4-0.1c-7.1-0.3-10.8-3.9-10.6-9.8c0.2-5.6,3.9-8.9,10.7-9
		c12.3-0.1,24.5-0.2,36.8,0c6.7,0.1,10.5,3.6,10.7,9.1c0.2,5.8-3.8,9.5-10.8,9.7C212.6,97.3,206.4,97.2,200.3,97.2z"/>
	<path class="st0" d="M276,183.3c-0.1,7.6-6.7,12.7-12.3,9.5c-9.1-5.2-17.4-5.7-26.5-0.1c-4.3,2.7-8.7,0.6-11.3-3.6
		c-2.8-4.3-1.8-8.5,1.9-11.9c10.7-9.9,33.7-10,44.7-0.3C274.7,178.9,276.3,181.2,276,183.3z"/>
	<path class="st0" d="M176.2,184c-0.3,7.2-7.5,12-13.3,8.5c-8.7-5.2-16.7-5.3-25.3,0.1c-4.3,2.7-8.7,1-11.5-3.1
		c-3-4.5-2.2-8.8,1.8-12.4c11-9.9,33.8-9.9,44.7,0C174.9,179.1,175.9,181.7,176.2,184z"/>
	<path class="st0" d="M200,241.9c-7.3,0.3-14.1-1.9-20.3-6.1c-5.5-3.7-6.8-8.8-3.8-13.6c2.9-4.5,7.9-5.7,13.3-2.4
		c7.6,4.6,14.7,4.5,22.3-0.1c5.3-3.2,10.4-2,13.2,2.6c2.7,4.4,1.4,9.8-3.5,13.2C215,240,207.9,242.2,200,241.9z"/>
	<path class="st0" d="M383.8,349.9c-0.1-5.9,2.2-9.6,7.7-10.4c5.7-0.8,9.3,2.1,10.6,7.5c0.6,2.6,0.7,5.7,4.1,5.8
		c4.2,0.2,8.9,1.6,12.4-2.2c3.5-3.8,2.4-8.2-2.5-9.7c-5-1.6-10.2-2.5-15.3-4c-10.1-3-16.4-10.9-17-21.1c-0.8-12.7,3.7-21.3,14-25.8
		c2.6-1.1,4.4-1.9,4.6-5.3c0.3-5.2,4-7.9,8.9-8c4.6-0.1,8.5,2.5,8.9,7.2c0.4,4.2,2.6,5.3,5.7,6.7c7.9,3.5,11.9,10.1,13.1,18.5
		c0.8,5.8-2.3,10.4-7.4,11.5c-5,1.1-9.6-1.9-10.8-8c-1.6-8.6-8.2-5.5-13.1-5.8c-3.6-0.3-5.5,2-5.6,5.8c-0.1,3.6,1.2,5.9,4.8,6.8
		c4.3,1,8.5,2.1,12.8,3.1c11.1,2.9,18.1,10.3,19.3,20.7c1.2,9.7-4.3,20.3-13.5,25.2c-3.1,1.6-4.9,3.1-5.2,7.1
		c-0.4,4.8-4,7.8-9.1,7.7c-4.7-0.1-8.3-2.7-8.7-7.4c-0.3-4-2.5-4.8-5.4-6.2C388.8,365.5,384.3,358.7,383.8,349.9z"/>
</g>
</svg>
